<svg xmlns="http://www.w3.org/2000/svg" viewBox="0 0 2600 1733">
  <!-- Simplified world map outline (much smaller file size) -->
  <g fill="none" stroke="currentColor" stroke-width="1" opacity="0.2">
    <!-- North America -->
    <path d="M 400 200 Q 300 150, 250 300 L 200 400 Q 180 450, 200 500 L 250 600 Q 300 650, 400 600 L 600 550 Q 700 500, 700 400 L 650 300 Q 600 200, 500 200 Z"/>
    <!-- South America -->
    <path d="M 500 700 Q 450 750, 450 850 L 480 1000 Q 500 1100, 550 1150 L 600 1100 Q 650 1000, 620 900 L 580 800 Q 550 700, 500 700 Z"/>
    <!-- Europe -->
    <path d="M 1100 250 Q 1050 200, 1000 250 L 950 300 Q 920 350, 950 400 L 1000 450 Q 1050 480, 1100 450 L 1200 400 Q 1250 350, 1200 300 Z"/>
    <!-- Africa -->
    <path d="M 1100 500 Q 1050 480, 1000 550 L 950 700 Q 920 850, 980 1000 L 1050 1100 Q 1100 1150, 1150 1100 L 1250 950 Q 1300 800, 1250 650 L 1200 550 Q 1150 500, 1100 500 Z"/>
    <!-- Asia -->
    <path d="M 1300 200 Q 1250 150, 1200 200 L 1100 300 Q 1050 400, 1150 500 L 1300 550 Q 1450 600, 1600 550 L 1800 450 Q 1950 350, 2000 300 L 2100 250 Q 2150 200, 2100 150 L 1900 100 Q 1700 80, 1500 120 Z"/>
    <!-- Australia -->
    <path d="M 2000 900 Q 1950 850, 1900 900 L 1850 1000 Q 1820 1100, 1900 1150 L 2000 1180 Q 2100 1150, 2150 1100 L 2180 1000 Q 2150 900, 2050 900 Z"/>
    <!-- Antarctica (bottom) -->
    <path d="M 100 1600 Q 500 1650, 900 1620 Q 1300 1600, 1700 1620 Q 2100 1650, 2500 1600" stroke-width="2"/>
    <!-- Grid lines -->
    <line x1="0" y1="433" x2="2600" y2="433" stroke-dasharray="5,5" opacity="0.1"/>
    <line x1="0" y1="866" x2="2600" y2="866" stroke-dasharray="5,5" opacity="0.1"/>
    <line x1="0" y1="1300" x2="2600" y2="1300" stroke-dasharray="5,5" opacity="0.1"/>
    <line x1="650" y1="0" x2="650" y2="1733" stroke-dasharray="5,5" opacity="0.1"/>
    <line x1="1300" y1="0" x2="1300" y2="1733" stroke-dasharray="5,5" opacity="0.1"/>
    <line x1="1950" y1="0" x2="1950" y2="1733" stroke-dasharray="5,5" opacity="0.1"/>
  </g>
</svg>
