<svg width="660" height="263" viewBox="0 0 660 263" fill="none" xmlns="http://www.w3.org/2000/svg">
<rect width="660" height="263" fill="white"/>
<rect x="32.5" y="31.5" width="595" height="200" stroke="black"/>
<path d="M138.991 78.017V76.4545H149.9V78.017H145.326V91H143.565V78.017H138.991ZM154.267 84.4375V91H152.591V76.4545H154.267V81.7955H154.409C154.665 81.232 155.049 80.7846 155.56 80.4531C156.076 80.117 156.763 79.9489 157.62 79.9489C158.363 79.9489 159.014 80.098 159.573 80.3963C160.131 80.6899 160.565 81.142 160.872 81.7528C161.185 82.3589 161.341 83.1307 161.341 84.0682V91H159.665V84.1818C159.665 83.3153 159.44 82.6454 158.99 82.1719C158.545 81.6937 157.927 81.4545 157.137 81.4545C156.587 81.4545 156.095 81.5705 155.659 81.8026C155.228 82.0346 154.888 82.3731 154.637 82.8182C154.39 83.2633 154.267 83.803 154.267 84.4375ZM164.608 91V80.0909H166.284V91H164.608ZM165.46 78.2727C165.133 78.2727 164.851 78.1615 164.615 77.9389C164.383 77.7164 164.267 77.4489 164.267 77.1364C164.267 76.8239 164.383 76.5563 164.615 76.3338C164.851 76.1113 165.133 76 165.46 76C165.787 76 166.066 76.1113 166.298 76.3338C166.535 76.5563 166.653 76.8239 166.653 77.1364C166.653 77.4489 166.535 77.7164 166.298 77.9389C166.066 78.1615 165.787 78.2727 165.46 78.2727ZM177.281 82.5341L175.775 82.9602C175.681 82.7093 175.541 82.4654 175.356 82.2287C175.176 81.9872 174.93 81.7884 174.618 81.6321C174.305 81.4759 173.905 81.3977 173.417 81.3977C172.75 81.3977 172.193 81.5516 171.748 81.8594C171.308 82.1624 171.088 82.5483 171.088 83.017C171.088 83.4337 171.239 83.7628 171.542 84.0043C171.845 84.2457 172.319 84.447 172.963 84.608L174.582 85.0057C175.557 85.2424 176.284 85.6046 176.762 86.0923C177.241 86.5753 177.48 87.1979 177.48 87.9602C177.48 88.5852 177.3 89.1439 176.94 89.6364C176.585 90.1288 176.088 90.517 175.449 90.8011C174.809 91.0852 174.066 91.2273 173.218 91.2273C172.106 91.2273 171.185 90.9858 170.456 90.5028C169.726 90.0199 169.265 89.3144 169.071 88.3864L170.662 87.9886C170.813 88.5758 171.1 89.0161 171.521 89.3097C171.947 89.6032 172.503 89.75 173.19 89.75C173.971 89.75 174.592 89.5843 175.051 89.2528C175.515 88.9167 175.747 88.5142 175.747 88.0455C175.747 87.6667 175.614 87.3494 175.349 87.0938C175.084 86.8333 174.677 86.6392 174.127 86.5114L172.309 86.0852C171.31 85.8485 170.576 85.4815 170.108 84.9844C169.644 84.4825 169.412 83.8551 169.412 83.1023C169.412 82.4867 169.584 81.9422 169.93 81.4688C170.28 80.9953 170.756 80.6236 171.358 80.3537C171.964 80.0838 172.65 79.9489 173.417 79.9489C174.497 79.9489 175.344 80.1856 175.96 80.6591C176.58 81.1326 177.02 81.7576 177.281 82.5341ZM190.46 91.2273C189.437 91.2273 188.556 90.9858 187.818 90.5028C187.079 90.0199 186.511 89.3546 186.113 88.5071C185.715 87.6596 185.516 86.6913 185.516 85.6023C185.516 84.4943 185.72 83.5166 186.127 82.669C186.539 81.8168 187.112 81.1515 187.846 80.6733C188.585 80.1903 189.446 79.9489 190.431 79.9489C191.198 79.9489 191.89 80.0909 192.505 80.375C193.121 80.6591 193.625 81.0568 194.018 81.5682C194.411 82.0795 194.655 82.6761 194.749 83.358H193.073C192.945 82.8608 192.661 82.4205 192.221 82.0369C191.785 81.6487 191.198 81.4545 190.46 81.4545C189.806 81.4545 189.233 81.625 188.741 81.9659C188.253 82.3021 187.872 82.7779 187.597 83.3935C187.328 84.0043 187.193 84.7216 187.193 85.5455C187.193 86.3883 187.325 87.1222 187.59 87.7472C187.86 88.3722 188.239 88.8575 188.727 89.2031C189.219 89.5488 189.797 89.7216 190.46 89.7216C190.895 89.7216 191.291 89.6458 191.646 89.4943C192.001 89.3428 192.302 89.125 192.548 88.8409C192.794 88.5568 192.969 88.2159 193.073 87.8182H194.749C194.655 88.4621 194.42 89.0421 194.046 89.5582C193.677 90.0696 193.187 90.4768 192.576 90.7798C191.97 91.0781 191.265 91.2273 190.46 91.2273ZM200.61 91.2557C199.919 91.2557 199.291 91.1255 198.728 90.8651C198.164 90.5999 197.717 90.2188 197.386 89.7216C197.054 89.2197 196.888 88.6136 196.888 87.9034C196.888 87.2784 197.011 86.7718 197.258 86.3835C197.504 85.9905 197.833 85.6828 198.245 85.4602C198.657 85.2377 199.111 85.072 199.609 84.9631C200.11 84.8494 200.615 84.7595 201.121 84.6932C201.784 84.608 202.322 84.544 202.734 84.5014C203.15 84.4541 203.453 84.3759 203.643 84.267C203.837 84.1581 203.934 83.9687 203.934 83.6989V83.642C203.934 82.9413 203.742 82.3968 203.359 82.0085C202.98 81.6203 202.404 81.4261 201.633 81.4261C200.832 81.4261 200.205 81.6013 199.751 81.9517C199.296 82.3021 198.976 82.6761 198.792 83.0739L197.201 82.5057C197.485 81.8428 197.864 81.3267 198.337 80.9574C198.815 80.5833 199.336 80.3229 199.9 80.1761C200.468 80.0246 201.027 79.9489 201.576 79.9489C201.926 79.9489 202.329 79.9915 202.783 80.0767C203.243 80.1572 203.685 80.3253 204.111 80.581C204.542 80.8366 204.9 81.2225 205.184 81.7386C205.468 82.2547 205.61 82.946 205.61 83.8125V91H203.934V89.5227H203.849C203.735 89.7595 203.546 90.0128 203.28 90.2827C203.015 90.5526 202.663 90.7822 202.222 90.9716C201.782 91.161 201.244 91.2557 200.61 91.2557ZM200.866 89.75C201.529 89.75 202.087 89.6198 202.542 89.3594C203.001 89.099 203.347 88.7628 203.579 88.3509C203.815 87.9389 203.934 87.5057 203.934 87.0511V85.517C203.863 85.6023 203.707 85.6804 203.465 85.7514C203.228 85.8177 202.954 85.8769 202.641 85.929C202.333 85.9763 202.033 86.0189 201.739 86.0568C201.45 86.09 201.216 86.1184 201.036 86.142C200.6 86.1989 200.193 86.2912 199.814 86.419C199.44 86.5421 199.137 86.7292 198.905 86.9801C198.678 87.2263 198.564 87.5625 198.564 87.9886C198.564 88.571 198.78 89.0114 199.211 89.3097C199.646 89.6032 200.198 89.75 200.866 89.75ZM208.869 91V80.0909H210.489V81.7386H210.602C210.801 81.1989 211.161 80.7609 211.682 80.4247C212.203 80.0885 212.79 79.9205 213.443 79.9205C213.566 79.9205 213.72 79.9228 213.905 79.9276C214.089 79.9323 214.229 79.9394 214.324 79.9489V81.6534C214.267 81.6392 214.137 81.6179 213.933 81.5895C213.734 81.5563 213.524 81.5398 213.301 81.5398C212.771 81.5398 212.297 81.651 211.881 81.8736C211.469 82.0914 211.142 82.3944 210.901 82.7827C210.664 83.1662 210.545 83.6042 210.545 84.0966V91H208.869ZM220.298 91.2273C219.389 91.2273 218.586 90.9976 217.89 90.5384C217.194 90.0743 216.65 89.4209 216.257 88.5781C215.864 87.7306 215.667 86.7292 215.667 85.5739C215.667 84.428 215.864 83.4337 216.257 82.5909C216.65 81.7481 217.197 81.0971 217.897 80.6378C218.598 80.1785 219.408 79.9489 220.326 79.9489C221.037 79.9489 221.598 80.0672 222.01 80.304C222.426 80.536 222.743 80.8011 222.961 81.0994C223.184 81.393 223.357 81.6345 223.48 81.8239H223.622V76.4545H225.298V91H223.679V89.3239H223.48C223.357 89.5227 223.181 89.7737 222.954 90.0767C222.727 90.375 222.403 90.6425 221.981 90.8793C221.56 91.1113 220.999 91.2273 220.298 91.2273ZM220.525 89.7216C221.198 89.7216 221.766 89.5464 222.23 89.196C222.694 88.8409 223.047 88.3509 223.288 87.7259C223.529 87.0961 223.65 86.3693 223.65 85.5455C223.65 84.7311 223.532 84.0185 223.295 83.4077C223.058 82.7921 222.708 82.3139 222.244 81.973C221.78 81.6274 221.207 81.4545 220.525 81.4545C219.815 81.4545 219.223 81.6368 218.75 82.0014C218.281 82.3613 217.928 82.8513 217.691 83.4716C217.459 84.0871 217.343 84.7784 217.343 85.5455C217.343 86.322 217.462 87.0275 217.699 87.6619C217.94 88.2917 218.295 88.7936 218.764 89.1676C219.237 89.5369 219.824 89.7216 220.525 89.7216ZM237.097 91L233.773 80.0909H235.535L237.893 88.4432H238.006L240.336 80.0909H242.125L244.427 88.4148H244.54L246.898 80.0909H248.66L245.336 91H243.688L241.302 82.6193H241.131L238.745 91H237.097ZM251.076 91V80.0909H252.752V91H251.076ZM251.928 78.2727C251.601 78.2727 251.319 78.1615 251.083 77.9389C250.851 77.7164 250.735 77.4489 250.735 77.1364C250.735 76.8239 250.851 76.5563 251.083 76.3338C251.319 76.1113 251.601 76 251.928 76C252.254 76 252.534 76.1113 252.766 76.3338C253.003 76.5563 253.121 76.8239 253.121 77.1364C253.121 77.4489 253.003 77.7164 252.766 77.9389C252.534 78.1615 252.254 78.2727 251.928 78.2727ZM257.698 76.4545V91H256.022V76.4545H257.698ZM262.644 76.4545V91H260.968V76.4545H262.644ZM271.966 91V76.4545H273.642V81.8239H273.784C273.907 81.6345 274.078 81.393 274.296 81.0994C274.518 80.8011 274.835 80.536 275.247 80.304C275.664 80.0672 276.227 79.9489 276.938 79.9489C277.856 79.9489 278.666 80.1785 279.367 80.6378C280.067 81.0971 280.614 81.7481 281.007 82.5909C281.4 83.4337 281.597 84.428 281.597 85.5739C281.597 86.7292 281.4 87.7306 281.007 88.5781C280.614 89.4209 280.07 90.0743 279.374 90.5384C278.678 90.9976 277.875 91.2273 276.966 91.2273C276.265 91.2273 275.704 91.1113 275.283 90.8793C274.861 90.6425 274.537 90.375 274.31 90.0767C274.083 89.7737 273.907 89.5227 273.784 89.3239H273.585V91H271.966ZM273.614 85.5455C273.614 86.3693 273.735 87.0961 273.976 87.7259C274.217 88.3509 274.57 88.8409 275.034 89.196C275.498 89.5464 276.066 89.7216 276.739 89.7216C277.44 89.7216 278.024 89.5369 278.493 89.1676C278.967 88.7936 279.322 88.2917 279.558 87.6619C279.8 87.0275 279.921 86.322 279.921 85.5455C279.921 84.7784 279.802 84.0871 279.565 83.4716C279.333 82.8513 278.981 82.3613 278.507 82.0014C278.038 81.6368 277.449 81.4545 276.739 81.4545C276.057 81.4545 275.484 81.6274 275.02 81.973C274.556 82.3139 274.206 82.7921 273.969 83.4077C273.732 84.0185 273.614 84.7311 273.614 85.5455ZM288.935 91.2273C287.883 91.2273 286.977 90.9953 286.214 90.5312C285.457 90.0625 284.872 89.4091 284.46 88.571C284.053 87.7282 283.849 86.7481 283.849 85.6307C283.849 84.5133 284.053 83.5284 284.46 82.6761C284.872 81.8191 285.445 81.1515 286.179 80.6733C286.917 80.1903 287.779 79.9489 288.764 79.9489C289.332 79.9489 289.893 80.0436 290.447 80.233C291.001 80.4223 291.506 80.7301 291.96 81.1562C292.415 81.5777 292.777 82.1364 293.047 82.8324C293.317 83.5284 293.452 84.3854 293.452 85.4034V86.1136H285.042V84.6648H291.747C291.747 84.0492 291.624 83.5 291.378 83.017C291.136 82.5341 290.791 82.1529 290.341 81.8736C289.896 81.5942 289.37 81.4545 288.764 81.4545C288.096 81.4545 287.519 81.6203 287.031 81.9517C286.548 82.2784 286.176 82.7045 285.916 83.2301C285.656 83.7557 285.525 84.3191 285.525 84.9205V85.8864C285.525 86.7102 285.667 87.4086 285.952 87.9815C286.24 88.5497 286.64 88.983 287.152 89.2812C287.663 89.5748 288.257 89.7216 288.935 89.7216C289.375 89.7216 289.773 89.66 290.128 89.5369C290.488 89.4091 290.798 89.2197 291.058 88.9688C291.319 88.7131 291.52 88.3958 291.662 88.017L293.281 88.4716C293.111 89.0208 292.824 89.5038 292.422 89.9205C292.019 90.3324 291.522 90.6544 290.93 90.8864C290.338 91.1136 289.673 91.2273 288.935 91.2273ZM302.026 91V80.0909H303.646V81.7386H303.759C303.958 81.1989 304.318 80.7609 304.839 80.4247C305.36 80.0885 305.947 79.9205 306.6 79.9205C306.723 79.9205 306.877 79.9228 307.062 79.9276C307.246 79.9323 307.386 79.9394 307.481 79.9489V81.6534C307.424 81.6392 307.294 81.6179 307.09 81.5895C306.891 81.5563 306.681 81.5398 306.458 81.5398C305.928 81.5398 305.454 81.651 305.038 81.8736C304.626 82.0914 304.299 82.3944 304.058 82.7827C303.821 83.1662 303.702 83.6042 303.702 84.0966V91H302.026ZM313.91 91.2273C312.858 91.2273 311.952 90.9953 311.189 90.5312C310.432 90.0625 309.847 89.4091 309.435 88.571C309.028 87.7282 308.824 86.7481 308.824 85.6307C308.824 84.5133 309.028 83.5284 309.435 82.6761C309.847 81.8191 310.42 81.1515 311.154 80.6733C311.892 80.1903 312.754 79.9489 313.739 79.9489C314.307 79.9489 314.868 80.0436 315.422 80.233C315.976 80.4223 316.481 80.7301 316.935 81.1562C317.39 81.5777 317.752 82.1364 318.022 82.8324C318.292 83.5284 318.427 84.3854 318.427 85.4034V86.1136H310.017V84.6648H316.722C316.722 84.0492 316.599 83.5 316.353 83.017C316.111 82.5341 315.766 82.1529 315.316 81.8736C314.871 81.5942 314.345 81.4545 313.739 81.4545C313.071 81.4545 312.494 81.6203 312.006 81.9517C311.523 82.2784 311.151 82.7045 310.891 83.2301C310.631 83.7557 310.5 84.3191 310.5 84.9205V85.8864C310.5 86.7102 310.642 87.4086 310.927 87.9815C311.215 88.5497 311.615 88.983 312.127 89.2812C312.638 89.5748 313.232 89.7216 313.91 89.7216C314.35 89.7216 314.748 89.66 315.103 89.5369C315.463 89.4091 315.773 89.2197 316.033 88.9688C316.294 88.7131 316.495 88.3958 316.637 88.017L318.256 88.4716C318.086 89.0208 317.799 89.5038 317.397 89.9205C316.994 90.3324 316.497 90.6544 315.905 90.8864C315.313 91.1136 314.648 91.2273 313.91 91.2273ZM321.176 95.0909V80.0909H322.796V81.8239H322.994C323.118 81.6345 323.288 81.393 323.506 81.0994C323.728 80.8011 324.046 80.536 324.458 80.304C324.874 80.0672 325.438 79.9489 326.148 79.9489C327.066 79.9489 327.876 80.1785 328.577 80.6378C329.278 81.0971 329.824 81.7481 330.217 82.5909C330.61 83.4337 330.807 84.428 330.807 85.5739C330.807 86.7292 330.61 87.7306 330.217 88.5781C329.824 89.4209 329.28 90.0743 328.584 90.5384C327.888 90.9976 327.085 91.2273 326.176 91.2273C325.476 91.2273 324.914 91.1113 324.493 90.8793C324.072 90.6425 323.747 90.375 323.52 90.0767C323.293 89.7737 323.118 89.5227 322.994 89.3239H322.852V95.0909H321.176ZM322.824 85.5455C322.824 86.3693 322.945 87.0961 323.186 87.7259C323.428 88.3509 323.78 88.8409 324.244 89.196C324.708 89.5464 325.277 89.7216 325.949 89.7216C326.65 89.7216 327.235 89.5369 327.703 89.1676C328.177 88.7936 328.532 88.2917 328.769 87.6619C329.01 87.0275 329.131 86.322 329.131 85.5455C329.131 84.7784 329.012 84.0871 328.776 83.4716C328.544 82.8513 328.191 82.3613 327.717 82.0014C327.249 81.6368 326.659 81.4545 325.949 81.4545C325.267 81.4545 324.694 81.6274 324.23 81.973C323.766 82.3139 323.416 82.7921 323.179 83.4077C322.942 84.0185 322.824 84.7311 322.824 85.5455ZM335.24 76.4545V91H333.564V76.4545H335.24ZM341.72 91.2557C341.029 91.2557 340.401 91.1255 339.838 90.8651C339.275 90.5999 338.827 90.2188 338.496 89.7216C338.164 89.2197 337.998 88.6136 337.998 87.9034C337.998 87.2784 338.122 86.7718 338.368 86.3835C338.614 85.9905 338.943 85.6828 339.355 85.4602C339.767 85.2377 340.222 85.072 340.719 84.9631C341.221 84.8494 341.725 84.7595 342.231 84.6932C342.894 84.608 343.432 84.544 343.844 84.5014C344.26 84.4541 344.563 84.3759 344.753 84.267C344.947 84.1581 345.044 83.9687 345.044 83.6989V83.642C345.044 82.9413 344.852 82.3968 344.469 82.0085C344.09 81.6203 343.515 81.4261 342.743 81.4261C341.943 81.4261 341.315 81.6013 340.861 81.9517C340.406 82.3021 340.087 82.6761 339.902 83.0739L338.311 82.5057C338.595 81.8428 338.974 81.3267 339.447 80.9574C339.926 80.5833 340.446 80.3229 341.01 80.1761C341.578 80.0246 342.137 79.9489 342.686 79.9489C343.036 79.9489 343.439 79.9915 343.893 80.0767C344.353 80.1572 344.795 80.3253 345.222 80.581C345.652 80.8366 346.01 81.2225 346.294 81.7386C346.578 82.2547 346.72 82.946 346.72 83.8125V91H345.044V89.5227H344.959C344.845 89.7595 344.656 90.0128 344.391 90.2827C344.125 90.5526 343.773 90.7822 343.332 90.9716C342.892 91.161 342.355 91.2557 341.72 91.2557ZM341.976 89.75C342.639 89.75 343.197 89.6198 343.652 89.3594C344.111 89.099 344.457 88.7628 344.689 88.3509C344.926 87.9389 345.044 87.5057 345.044 87.0511V85.517C344.973 85.6023 344.817 85.6804 344.575 85.7514C344.338 85.8177 344.064 85.8769 343.751 85.929C343.444 85.9763 343.143 86.0189 342.849 86.0568C342.561 86.09 342.326 86.1184 342.146 86.142C341.711 86.1989 341.303 86.2912 340.925 86.419C340.551 86.5421 340.248 86.7292 340.016 86.9801C339.788 87.2263 339.675 87.5625 339.675 87.9886C339.675 88.571 339.89 89.0114 340.321 89.3097C340.757 89.6032 341.308 89.75 341.976 89.75ZM354.411 91.2273C353.388 91.2273 352.508 90.9858 351.769 90.5028C351.031 90.0199 350.462 89.3546 350.065 88.5071C349.667 87.6596 349.468 86.6913 349.468 85.6023C349.468 84.4943 349.672 83.5166 350.079 82.669C350.491 81.8168 351.064 81.1515 351.798 80.6733C352.536 80.1903 353.398 79.9489 354.383 79.9489C355.15 79.9489 355.841 80.0909 356.457 80.375C357.072 80.6591 357.576 81.0568 357.969 81.5682C358.362 82.0795 358.606 82.6761 358.701 83.358H357.025C356.897 82.8608 356.613 82.4205 356.173 82.0369C355.737 81.6487 355.15 81.4545 354.411 81.4545C353.758 81.4545 353.185 81.625 352.692 81.9659C352.205 82.3021 351.824 82.7779 351.549 83.3935C351.279 84.0043 351.144 84.7216 351.144 85.5455C351.144 86.3883 351.277 87.1222 351.542 87.7472C351.812 88.3722 352.191 88.8575 352.678 89.2031C353.171 89.5488 353.748 89.7216 354.411 89.7216C354.847 89.7216 355.242 89.6458 355.597 89.4943C355.952 89.3428 356.253 89.125 356.499 88.8409C356.746 88.5568 356.921 88.2159 357.025 87.8182H358.701C358.606 88.4621 358.372 89.0421 357.998 89.5582C357.629 90.0696 357.138 90.4768 356.528 90.7798C355.922 91.0781 355.216 91.2273 354.411 91.2273ZM365.925 91.2273C364.874 91.2273 363.967 90.9953 363.205 90.5312C362.447 90.0625 361.863 89.4091 361.451 88.571C361.044 87.7282 360.84 86.7481 360.84 85.6307C360.84 84.5133 361.044 83.5284 361.451 82.6761C361.863 81.8191 362.436 81.1515 363.169 80.6733C363.908 80.1903 364.77 79.9489 365.755 79.9489C366.323 79.9489 366.884 80.0436 367.438 80.233C367.992 80.4223 368.496 80.7301 368.951 81.1562C369.405 81.5777 369.767 82.1364 370.037 82.8324C370.307 83.5284 370.442 84.3854 370.442 85.4034V86.1136H362.033V84.6648H368.738C368.738 84.0492 368.615 83.5 368.368 83.017C368.127 82.5341 367.781 82.1529 367.331 81.8736C366.886 81.5942 366.361 81.4545 365.755 81.4545C365.087 81.4545 364.509 81.6203 364.022 81.9517C363.539 82.2784 363.167 82.7045 362.907 83.2301C362.646 83.7557 362.516 84.3191 362.516 84.9205V85.8864C362.516 86.7102 362.658 87.4086 362.942 87.9815C363.231 88.5497 363.631 88.983 364.142 89.2812C364.654 89.5748 365.248 89.7216 365.925 89.7216C366.365 89.7216 366.763 89.66 367.118 89.5369C367.478 89.4091 367.788 89.2197 368.049 88.9688C368.309 88.7131 368.51 88.3958 368.652 88.017L370.272 88.4716C370.101 89.0208 369.815 89.5038 369.412 89.9205C369.01 90.3324 368.513 90.6544 367.921 90.8864C367.329 91.1136 366.664 91.2273 365.925 91.2273ZM377.311 91.2273C376.402 91.2273 375.6 90.9976 374.904 90.5384C374.208 90.0743 373.663 89.4209 373.27 88.5781C372.877 87.7306 372.681 86.7292 372.681 85.5739C372.681 84.428 372.877 83.4337 373.27 82.5909C373.663 81.7481 374.21 81.0971 374.911 80.6378C375.611 80.1785 376.421 79.9489 377.34 79.9489C378.05 79.9489 378.611 80.0672 379.023 80.304C379.44 80.536 379.757 80.8011 379.975 81.0994C380.197 81.393 380.37 81.6345 380.493 81.8239H380.635V76.4545H382.311V91H380.692V89.3239H380.493C380.37 89.5227 380.195 89.7737 379.967 90.0767C379.74 90.375 379.416 90.6425 378.994 90.8793C378.573 91.1113 378.012 91.2273 377.311 91.2273ZM377.538 89.7216C378.211 89.7216 378.779 89.5464 379.243 89.196C379.707 88.8409 380.06 88.3509 380.301 87.7259C380.543 87.0961 380.663 86.3693 380.663 85.5455C380.663 84.7311 380.545 84.0185 380.308 83.4077C380.072 82.7921 379.721 82.3139 379.257 81.973C378.793 81.6274 378.22 81.4545 377.538 81.4545C376.828 81.4545 376.236 81.6368 375.763 82.0014C375.294 82.3613 374.941 82.8513 374.705 83.4716C374.473 84.0871 374.357 84.7784 374.357 85.5455C374.357 86.322 374.475 87.0275 374.712 87.6619C374.953 88.2917 375.308 88.7936 375.777 89.1676C376.251 89.5369 376.838 89.7216 377.538 89.7216ZM391.639 91V80.0909H393.315V91H391.639ZM392.491 78.2727C392.164 78.2727 391.883 78.1615 391.646 77.9389C391.414 77.7164 391.298 77.4489 391.298 77.1364C391.298 76.8239 391.414 76.5563 391.646 76.3338C391.883 76.1113 392.164 76 392.491 76C392.818 76 393.097 76.1113 393.329 76.3338C393.566 76.5563 393.684 76.8239 393.684 77.1364C393.684 77.4489 393.566 77.7164 393.329 77.9389C393.097 78.1615 392.818 78.2727 392.491 78.2727ZM398.261 84.4375V91H396.585V80.0909H398.204V81.7955H398.346C398.602 81.2415 398.99 80.7964 399.511 80.4602C400.032 80.1193 400.704 79.9489 401.528 79.9489C402.267 79.9489 402.913 80.1004 403.467 80.4034C404.021 80.7017 404.452 81.1562 404.76 81.767C405.067 82.3731 405.221 83.1402 405.221 84.0682V91H403.545V84.1818C403.545 83.3248 403.323 82.6572 402.877 82.179C402.432 81.696 401.822 81.4545 401.045 81.4545C400.51 81.4545 400.032 81.5705 399.61 81.8026C399.194 82.0346 398.865 82.3731 398.623 82.8182C398.382 83.2633 398.261 83.803 398.261 84.4375ZM419.195 91.1989C418.258 91.1989 417.422 91.0379 416.688 90.7159C415.959 90.3939 415.379 89.9465 414.948 89.3736C414.522 88.7959 414.29 88.1259 414.252 87.3636H416.042C416.08 87.8324 416.241 88.2372 416.525 88.5781C416.809 88.9143 417.181 89.1747 417.64 89.3594C418.099 89.544 418.608 89.6364 419.167 89.6364C419.792 89.6364 420.346 89.5275 420.829 89.3097C421.312 89.0919 421.691 88.7888 421.965 88.4006C422.24 88.0123 422.377 87.5625 422.377 87.0511C422.377 86.5161 422.245 86.045 421.98 85.6378C421.714 85.2259 421.326 84.9039 420.815 84.6719C420.303 84.4399 419.678 84.3239 418.94 84.3239H417.775V82.7614H418.94C419.517 82.7614 420.024 82.6572 420.46 82.4489C420.9 82.2405 421.243 81.947 421.489 81.5682C421.74 81.1894 421.866 80.7443 421.866 80.233C421.866 79.7405 421.757 79.312 421.539 78.9474C421.321 78.5829 421.014 78.2988 420.616 78.0952C420.223 77.8916 419.759 77.7898 419.224 77.7898C418.722 77.7898 418.248 77.8821 417.803 78.0668C417.363 78.2467 417.003 78.5095 416.724 78.8551C416.445 79.196 416.293 79.608 416.269 80.0909H414.565C414.593 79.3286 414.823 78.661 415.254 78.0881C415.685 77.5104 416.248 77.0606 416.944 76.7386C417.645 76.4167 418.414 76.2557 419.252 76.2557C420.152 76.2557 420.924 76.438 421.568 76.8026C422.212 77.1624 422.706 77.6383 423.052 78.2301C423.398 78.822 423.57 79.4612 423.57 80.1477C423.57 80.9669 423.355 81.6652 422.924 82.2429C422.498 82.8205 421.918 83.2206 421.184 83.4432V83.5568C422.103 83.7083 422.82 84.099 423.336 84.7287C423.852 85.3537 424.11 86.1278 424.11 87.0511C424.11 87.8419 423.895 88.5521 423.464 89.1818C423.038 89.8068 422.455 90.2992 421.717 90.6591C420.978 91.0189 420.138 91.1989 419.195 91.1989ZM431.959 91.1989C430.889 91.1989 429.978 90.9077 429.225 90.3253C428.472 89.7382 427.897 88.8883 427.499 87.7756C427.101 86.6581 426.903 85.3087 426.903 83.7273C426.903 82.1553 427.101 80.813 427.499 79.7003C427.902 78.5829 428.479 77.7306 429.232 77.1435C429.99 76.5516 430.899 76.2557 431.959 76.2557C433.02 76.2557 433.927 76.5516 434.68 77.1435C435.437 77.7306 436.015 78.5829 436.413 79.7003C436.815 80.813 437.016 82.1553 437.016 83.7273C437.016 85.3087 436.817 86.6581 436.42 87.7756C436.022 88.8883 435.447 89.7382 434.694 90.3253C433.941 90.9077 433.029 91.1989 431.959 91.1989ZM431.959 89.6364C433.02 89.6364 433.844 89.125 434.431 88.1023C435.018 87.0795 435.312 85.6212 435.312 83.7273C435.312 82.4678 435.177 81.3954 434.907 80.5099C434.642 79.6245 434.258 78.9498 433.756 78.4858C433.259 78.0218 432.66 77.7898 431.959 77.7898C430.908 77.7898 430.087 78.3082 429.495 79.3452C428.903 80.3774 428.607 81.8381 428.607 83.7273C428.607 84.9867 428.74 86.0568 429.005 86.9375C429.27 87.8182 429.651 88.4882 430.148 88.9474C430.65 89.4067 431.254 89.6364 431.959 89.6364ZM453.496 82.5341L451.99 82.9602C451.895 82.7093 451.756 82.4654 451.571 82.2287C451.391 81.9872 451.145 81.7884 450.832 81.6321C450.52 81.4759 450.12 81.3977 449.632 81.3977C448.964 81.3977 448.408 81.5516 447.963 81.8594C447.523 82.1624 447.303 82.5483 447.303 83.017C447.303 83.4337 447.454 83.7628 447.757 84.0043C448.06 84.2457 448.534 84.447 449.178 84.608L450.797 85.0057C451.772 85.2424 452.499 85.6046 452.977 86.0923C453.455 86.5753 453.695 87.1979 453.695 87.9602C453.695 88.5852 453.515 89.1439 453.155 89.6364C452.8 90.1288 452.303 90.517 451.663 90.8011C451.024 91.0852 450.281 91.2273 449.433 91.2273C448.321 91.2273 447.4 90.9858 446.67 90.5028C445.941 90.0199 445.48 89.3144 445.286 88.3864L446.876 87.9886C447.028 88.5758 447.314 89.0161 447.736 89.3097C448.162 89.6032 448.718 89.75 449.405 89.75C450.186 89.75 450.806 89.5843 451.266 89.2528C451.73 88.9167 451.962 88.5142 451.962 88.0455C451.962 87.6667 451.829 87.3494 451.564 87.0938C451.299 86.8333 450.892 86.6392 450.342 86.5114L448.524 86.0852C447.525 85.8485 446.791 85.4815 446.322 84.9844C445.858 84.4825 445.626 83.8551 445.626 83.1023C445.626 82.4867 445.799 81.9422 446.145 81.4688C446.495 80.9953 446.971 80.6236 447.572 80.3537C448.179 80.0838 448.865 79.9489 449.632 79.9489C450.712 79.9489 451.559 80.1856 452.175 80.6591C452.795 81.1326 453.235 81.7576 453.496 82.5341ZM52.2955 100.455V115H50.5909L42.6648 103.58H42.5227V115H40.7614V100.455H42.4659L50.4205 111.903H50.5625V100.455H52.2955ZM60.3665 115.227C59.3154 115.227 58.4087 114.995 57.6464 114.531C56.8888 114.062 56.304 113.409 55.8921 112.571C55.4849 111.728 55.2813 110.748 55.2813 109.631C55.2813 108.513 55.4849 107.528 55.8921 106.676C56.304 105.819 56.877 105.152 57.6109 104.673C58.3495 104.19 59.2112 103.949 60.1961 103.949C60.7643 103.949 61.3254 104.044 61.8793 104.233C62.4333 104.422 62.9376 104.73 63.3921 105.156C63.8467 105.578 64.2089 106.136 64.4788 106.832C64.7487 107.528 64.8836 108.385 64.8836 109.403V110.114H56.4745V108.665H63.179C63.179 108.049 63.0559 107.5 62.8097 107.017C62.5683 106.534 62.2226 106.153 61.7728 105.874C61.3277 105.594 60.8022 105.455 60.1961 105.455C59.5285 105.455 58.9508 105.62 58.4631 105.952C57.9802 106.278 57.6085 106.705 57.3481 107.23C57.0877 107.756 56.9575 108.319 56.9575 108.92V109.886C56.9575 110.71 57.0995 111.409 57.3836 111.982C57.6724 112.55 58.0725 112.983 58.5839 113.281C59.0952 113.575 59.6895 113.722 60.3665 113.722C60.8069 113.722 61.2046 113.66 61.5597 113.537C61.9196 113.409 62.2297 113.22 62.4901 112.969C62.7505 112.713 62.9518 112.396 63.0938 112.017L64.7131 112.472C64.5427 113.021 64.2562 113.504 63.8538 113.92C63.4513 114.332 62.9541 114.654 62.3623 114.886C61.7704 115.114 61.1052 115.227 60.3665 115.227ZM70.1049 115L66.781 104.091H68.5424L70.9004 112.443H71.014L73.3435 104.091H75.1333L77.4344 112.415H77.5481L79.906 104.091H81.6674L78.3435 115H76.6958L74.3094 106.619H74.139L71.7526 115H70.1049ZM85.3049 115.114C84.9545 115.114 84.6539 114.988 84.4029 114.737C84.152 114.486 84.0265 114.186 84.0265 113.835C84.0265 113.485 84.152 113.184 84.4029 112.933C84.6539 112.682 84.9545 112.557 85.3049 112.557C85.6553 112.557 85.9559 112.682 86.2069 112.933C86.4578 113.184 86.5833 113.485 86.5833 113.835C86.5833 114.067 86.5241 114.28 86.4058 114.474C86.2921 114.669 86.1382 114.825 85.9441 114.943C85.7547 115.057 85.5416 115.114 85.3049 115.114ZM85.3049 107.017C84.9545 107.017 84.6539 106.892 84.4029 106.641C84.152 106.39 84.0265 106.089 84.0265 105.739C84.0265 105.388 84.152 105.088 84.4029 104.837C84.6539 104.586 84.9545 104.46 85.3049 104.46C85.6553 104.46 85.9559 104.586 86.2069 104.837C86.4578 105.088 86.5833 105.388 86.5833 105.739C86.5833 105.971 86.5241 106.184 86.4058 106.378C86.2921 106.572 86.1382 106.728 85.9441 106.847C85.7547 106.96 85.5416 107.017 85.3049 107.017ZM97.065 100.455V105.455H95.5025V100.455H97.065ZM100.701 100.455V105.455H99.1388V100.455H100.701ZM103.124 115H101.278L106.619 100.455H108.437L113.778 115H111.931L107.585 102.756H107.471L103.124 115ZM103.806 109.318H111.249V110.881H103.806V109.318ZM116.016 119.091V104.091H117.635V105.824H117.834C117.957 105.634 118.128 105.393 118.346 105.099C118.568 104.801 118.885 104.536 119.297 104.304C119.714 104.067 120.277 103.949 120.988 103.949C121.906 103.949 122.716 104.179 123.417 104.638C124.117 105.097 124.664 105.748 125.057 106.591C125.45 107.434 125.647 108.428 125.647 109.574C125.647 110.729 125.45 111.731 125.057 112.578C124.664 113.421 124.12 114.074 123.424 114.538C122.728 114.998 121.925 115.227 121.016 115.227C120.315 115.227 119.754 115.111 119.333 114.879C118.911 114.643 118.587 114.375 118.36 114.077C118.133 113.774 117.957 113.523 117.834 113.324H117.692V119.091H116.016ZM117.664 109.545C117.664 110.369 117.785 111.096 118.026 111.726C118.268 112.351 118.62 112.841 119.084 113.196C119.548 113.546 120.117 113.722 120.789 113.722C121.49 113.722 122.074 113.537 122.543 113.168C123.017 112.794 123.372 112.292 123.608 111.662C123.85 111.027 123.971 110.322 123.971 109.545C123.971 108.778 123.852 108.087 123.616 107.472C123.384 106.851 123.031 106.361 122.557 106.001C122.089 105.637 121.499 105.455 120.789 105.455C120.107 105.455 119.534 105.627 119.07 105.973C118.606 106.314 118.256 106.792 118.019 107.408C117.782 108.018 117.664 108.731 117.664 109.545ZM128.404 119.091V104.091H130.023V105.824H130.222C130.345 105.634 130.515 105.393 130.733 105.099C130.956 104.801 131.273 104.536 131.685 104.304C132.102 104.067 132.665 103.949 133.375 103.949C134.294 103.949 135.103 104.179 135.804 104.638C136.505 105.097 137.052 105.748 137.445 106.591C137.838 107.434 138.034 108.428 138.034 109.574C138.034 110.729 137.838 111.731 137.445 112.578C137.052 113.421 136.507 114.074 135.811 114.538C135.115 114.998 134.313 115.227 133.404 115.227C132.703 115.227 132.142 115.111 131.72 114.879C131.299 114.643 130.975 114.375 130.747 114.077C130.52 113.774 130.345 113.523 130.222 113.324H130.08V119.091H128.404ZM130.051 109.545C130.051 110.369 130.172 111.096 130.414 111.726C130.655 112.351 131.008 112.841 131.472 113.196C131.936 113.546 132.504 113.722 133.176 113.722C133.877 113.722 134.462 113.537 134.931 113.168C135.404 112.794 135.759 112.292 135.996 111.662C136.237 111.027 136.358 110.322 136.358 109.545C136.358 108.778 136.24 108.087 136.003 107.472C135.771 106.851 135.418 106.361 134.945 106.001C134.476 105.637 133.887 105.455 133.176 105.455C132.495 105.455 131.922 105.627 131.458 105.973C130.994 106.314 130.643 106.792 130.406 107.408C130.17 108.018 130.051 108.731 130.051 109.545ZM151.332 115H146.843V100.455H151.531C152.942 100.455 154.149 100.746 155.153 101.328C156.157 101.906 156.926 102.737 157.461 103.821C157.996 104.901 158.264 106.193 158.264 107.699C158.264 109.214 157.994 110.518 157.454 111.612C156.914 112.701 156.128 113.539 155.096 114.126C154.064 114.709 152.809 115 151.332 115ZM148.605 113.438H151.218C152.421 113.438 153.418 113.205 154.208 112.741C154.999 112.277 155.589 111.617 155.977 110.76C156.365 109.903 156.559 108.883 156.559 107.699C156.559 106.525 156.368 105.514 155.984 104.666C155.6 103.814 155.028 103.161 154.265 102.706C153.503 102.247 152.554 102.017 151.417 102.017H148.605V113.438ZM165.765 115.227C164.714 115.227 163.807 114.995 163.045 114.531C162.287 114.062 161.702 113.409 161.291 112.571C160.883 111.728 160.68 110.748 160.68 109.631C160.68 108.513 160.883 107.528 161.291 106.676C161.702 105.819 162.275 105.152 163.009 104.673C163.748 104.19 164.61 103.949 165.595 103.949C166.163 103.949 166.724 104.044 167.278 104.233C167.832 104.422 168.336 104.73 168.791 105.156C169.245 105.578 169.607 106.136 169.877 106.832C170.147 107.528 170.282 108.385 170.282 109.403V110.114H161.873V108.665H168.577C168.577 108.049 168.454 107.5 168.208 107.017C167.967 106.534 167.621 106.153 167.171 105.874C166.726 105.594 166.201 105.455 165.595 105.455C164.927 105.455 164.349 105.62 163.862 105.952C163.379 106.278 163.007 106.705 162.747 107.23C162.486 107.756 162.356 108.319 162.356 108.92V109.886C162.356 110.71 162.498 111.409 162.782 111.982C163.071 112.55 163.471 112.983 163.982 113.281C164.494 113.575 165.088 113.722 165.765 113.722C166.205 113.722 166.603 113.66 166.958 113.537C167.318 113.409 167.628 113.22 167.889 112.969C168.149 112.713 168.35 112.396 168.492 112.017L170.112 112.472C169.941 113.021 169.655 113.504 169.252 113.92C168.85 114.332 168.353 114.654 167.761 114.886C167.169 115.114 166.504 115.227 165.765 115.227ZM173.032 119.091V104.091H174.651V105.824H174.85C174.973 105.634 175.143 105.393 175.361 105.099C175.584 104.801 175.901 104.536 176.313 104.304C176.73 104.067 177.293 103.949 178.003 103.949C178.922 103.949 179.732 104.179 180.432 104.638C181.133 105.097 181.68 105.748 182.073 106.591C182.466 107.434 182.662 108.428 182.662 109.574C182.662 110.729 182.466 111.731 182.073 112.578C181.68 113.421 181.135 114.074 180.439 114.538C179.743 114.998 178.941 115.227 178.032 115.227C177.331 115.227 176.77 115.111 176.349 114.879C175.927 114.643 175.603 114.375 175.375 114.077C175.148 113.774 174.973 113.523 174.85 113.324H174.708V119.091H173.032ZM174.679 109.545C174.679 110.369 174.8 111.096 175.042 111.726C175.283 112.351 175.636 112.841 176.1 113.196C176.564 113.546 177.132 113.722 177.804 113.722C178.505 113.722 179.09 113.537 179.559 113.168C180.032 112.794 180.387 112.292 180.624 111.662C180.866 111.027 180.986 110.322 180.986 109.545C180.986 108.778 180.868 108.087 180.631 107.472C180.399 106.851 180.046 106.361 179.573 106.001C179.104 105.637 178.515 105.455 177.804 105.455C177.123 105.455 176.55 105.627 176.086 105.973C175.622 106.314 175.271 106.792 175.035 107.408C174.798 108.018 174.679 108.731 174.679 109.545ZM187.095 100.455V115H185.419V100.455H187.095ZM194.797 115.227C193.812 115.227 192.948 114.993 192.205 114.524C191.466 114.055 190.889 113.4 190.472 112.557C190.06 111.714 189.854 110.729 189.854 109.602C189.854 108.466 190.06 107.474 190.472 106.626C190.889 105.779 191.466 105.121 192.205 104.652C192.948 104.183 193.812 103.949 194.797 103.949C195.782 103.949 196.644 104.183 197.382 104.652C198.126 105.121 198.703 105.779 199.115 106.626C199.532 107.474 199.74 108.466 199.74 109.602C199.74 110.729 199.532 111.714 199.115 112.557C198.703 113.4 198.126 114.055 197.382 114.524C196.644 114.993 195.782 115.227 194.797 115.227ZM194.797 113.722C195.545 113.722 196.161 113.53 196.644 113.146C197.127 112.763 197.484 112.259 197.716 111.634C197.948 111.009 198.064 110.331 198.064 109.602C198.064 108.873 197.948 108.194 197.716 107.564C197.484 106.934 197.127 106.425 196.644 106.037C196.161 105.649 195.545 105.455 194.797 105.455C194.049 105.455 193.434 105.649 192.951 106.037C192.468 106.425 192.11 106.934 191.878 107.564C191.646 108.194 191.53 108.873 191.53 109.602C191.53 110.331 191.646 111.009 191.878 111.634C192.11 112.259 192.468 112.763 192.951 113.146C193.434 113.53 194.049 113.722 194.797 113.722ZM203.188 119.091C202.904 119.091 202.65 119.067 202.428 119.02C202.205 118.977 202.051 118.935 201.966 118.892L202.392 117.415C202.8 117.519 203.159 117.557 203.472 117.528C203.784 117.5 204.061 117.36 204.303 117.109C204.549 116.863 204.774 116.463 204.978 115.909L205.29 115.057L201.256 104.091H203.074L206.086 112.784H206.199L209.211 104.091H211.029L206.398 116.591C206.19 117.154 205.932 117.621 205.624 117.99C205.316 118.364 204.959 118.641 204.551 118.821C204.149 119.001 203.694 119.091 203.188 119.091ZM213.441 115V104.091H215.06V105.795H215.202C215.43 105.213 215.797 104.761 216.303 104.439C216.81 104.112 217.418 103.949 218.129 103.949C218.848 103.949 219.447 104.112 219.925 104.439C220.408 104.761 220.785 105.213 221.055 105.795H221.168C221.448 105.232 221.867 104.785 222.425 104.453C222.984 104.117 223.654 103.949 224.435 103.949C225.411 103.949 226.209 104.254 226.829 104.865C227.449 105.471 227.759 106.416 227.759 107.699V115H226.083V107.699C226.083 106.894 225.863 106.319 225.423 105.973C224.982 105.627 224.464 105.455 223.867 105.455C223.1 105.455 222.506 105.687 222.085 106.151C221.663 106.61 221.452 107.192 221.452 107.898V115H219.748V107.528C219.748 106.908 219.547 106.409 219.144 106.03C218.742 105.646 218.223 105.455 217.589 105.455C217.153 105.455 216.746 105.571 216.367 105.803C215.993 106.035 215.69 106.357 215.458 106.768C215.231 107.176 215.117 107.647 215.117 108.182V115H213.441ZM235.598 115.227C234.547 115.227 233.64 114.995 232.878 114.531C232.12 114.062 231.535 113.409 231.123 112.571C230.716 111.728 230.513 110.748 230.513 109.631C230.513 108.513 230.716 107.528 231.123 106.676C231.535 105.819 232.108 105.152 232.842 104.673C233.581 104.19 234.442 103.949 235.427 103.949C235.996 103.949 236.557 104.044 237.111 104.233C237.665 104.422 238.169 104.73 238.623 105.156C239.078 105.578 239.44 106.136 239.71 106.832C239.98 107.528 240.115 108.385 240.115 109.403V110.114H231.706V108.665H238.41C238.41 108.049 238.287 107.5 238.041 107.017C237.799 106.534 237.454 106.153 237.004 105.874C236.559 105.594 236.033 105.455 235.427 105.455C234.76 105.455 234.182 105.62 233.694 105.952C233.211 106.278 232.84 106.705 232.579 107.23C232.319 107.756 232.189 108.319 232.189 108.92V109.886C232.189 110.71 232.331 111.409 232.615 111.982C232.904 112.55 233.304 112.983 233.815 113.281C234.326 113.575 234.921 113.722 235.598 113.722C236.038 113.722 236.436 113.66 236.791 113.537C237.151 113.409 237.461 113.22 237.721 112.969C237.982 112.713 238.183 112.396 238.325 112.017L239.944 112.472C239.774 113.021 239.487 113.504 239.085 113.92C238.683 114.332 238.185 114.654 237.594 114.886C237.002 115.114 236.336 115.227 235.598 115.227ZM244.541 108.438V115H242.865V104.091H244.484V105.795H244.626C244.882 105.241 245.27 104.796 245.791 104.46C246.312 104.119 246.984 103.949 247.808 103.949C248.546 103.949 249.193 104.1 249.747 104.403C250.301 104.702 250.732 105.156 251.039 105.767C251.347 106.373 251.501 107.14 251.501 108.068V115H249.825V108.182C249.825 107.325 249.602 106.657 249.157 106.179C248.712 105.696 248.101 105.455 247.325 105.455C246.79 105.455 246.312 105.571 245.89 105.803C245.473 106.035 245.144 106.373 244.903 106.818C244.661 107.263 244.541 107.803 244.541 108.438ZM259.508 104.091V105.511H253.855V104.091H259.508ZM255.502 101.477H257.179V111.875C257.179 112.348 257.247 112.704 257.385 112.94C257.527 113.172 257.706 113.329 257.924 113.409C258.147 113.485 258.381 113.523 258.627 113.523C258.812 113.523 258.964 113.513 259.082 113.494C259.2 113.471 259.295 113.452 259.366 113.438L259.707 114.943C259.593 114.986 259.435 115.028 259.231 115.071C259.028 115.118 258.769 115.142 258.457 115.142C257.983 115.142 257.519 115.04 257.065 114.837C256.615 114.633 256.241 114.323 255.943 113.906C255.649 113.49 255.502 112.964 255.502 112.33V101.477ZM276.236 104.091C276.151 103.371 275.805 102.812 275.199 102.415C274.593 102.017 273.85 101.818 272.969 101.818C272.325 101.818 271.762 101.922 271.279 102.131C270.801 102.339 270.427 102.625 270.157 102.99C269.892 103.355 269.759 103.769 269.759 104.233C269.759 104.621 269.851 104.955 270.036 105.234C270.225 105.509 270.467 105.739 270.76 105.923C271.054 106.103 271.362 106.252 271.684 106.371C272.006 106.484 272.302 106.577 272.571 106.648L274.049 107.045C274.428 107.145 274.849 107.282 275.313 107.457C275.782 107.633 276.229 107.872 276.655 108.175C277.086 108.473 277.441 108.857 277.721 109.325C278 109.794 278.14 110.369 278.14 111.051C278.14 111.837 277.934 112.547 277.522 113.182C277.115 113.816 276.518 114.321 275.732 114.695C274.951 115.069 274.001 115.256 272.884 115.256C271.842 115.256 270.94 115.088 270.178 114.751C269.42 114.415 268.824 113.946 268.388 113.345C267.957 112.744 267.713 112.045 267.657 111.25H269.475C269.522 111.799 269.707 112.254 270.029 112.614C270.356 112.969 270.767 113.234 271.265 113.409C271.767 113.58 272.306 113.665 272.884 113.665C273.556 113.665 274.16 113.556 274.695 113.338C275.23 113.116 275.654 112.808 275.966 112.415C276.279 112.017 276.435 111.553 276.435 111.023C276.435 110.54 276.3 110.147 276.03 109.844C275.76 109.541 275.405 109.295 274.965 109.105C274.525 108.916 274.049 108.75 273.537 108.608L271.748 108.097C270.611 107.77 269.712 107.304 269.049 106.697C268.386 106.091 268.054 105.298 268.054 104.318C268.054 103.504 268.275 102.794 268.715 102.188C269.16 101.577 269.757 101.103 270.505 100.767C271.258 100.426 272.098 100.256 273.026 100.256C273.963 100.256 274.797 100.424 275.526 100.76C276.255 101.091 276.833 101.546 277.259 102.124C277.69 102.701 277.917 103.357 277.941 104.091H276.236ZM285.753 104.091V105.511H280.099V104.091H285.753ZM281.747 101.477H283.423V111.875C283.423 112.348 283.492 112.704 283.629 112.94C283.771 113.172 283.951 113.329 284.169 113.409C284.391 113.485 284.626 113.523 284.872 113.523C285.057 113.523 285.208 113.513 285.326 113.494C285.445 113.471 285.54 113.452 285.611 113.438L285.951 114.943C285.838 114.986 285.679 115.028 285.476 115.071C285.272 115.118 285.014 115.142 284.701 115.142C284.228 115.142 283.764 115.04 283.309 114.837C282.86 114.633 282.486 114.323 282.187 113.906C281.894 113.49 281.747 112.964 281.747 112.33V101.477ZM291.684 115.256C290.993 115.256 290.366 115.125 289.802 114.865C289.239 114.6 288.791 114.219 288.46 113.722C288.128 113.22 287.963 112.614 287.963 111.903C287.963 111.278 288.086 110.772 288.332 110.384C288.578 109.991 288.907 109.683 289.319 109.46C289.731 109.238 290.186 109.072 290.683 108.963C291.185 108.849 291.689 108.759 292.196 108.693C292.858 108.608 293.396 108.544 293.808 108.501C294.224 108.454 294.527 108.376 294.717 108.267C294.911 108.158 295.008 107.969 295.008 107.699V107.642C295.008 106.941 294.816 106.397 294.433 106.009C294.054 105.62 293.479 105.426 292.707 105.426C291.907 105.426 291.279 105.601 290.825 105.952C290.37 106.302 290.051 106.676 289.866 107.074L288.275 106.506C288.559 105.843 288.938 105.327 289.411 104.957C289.89 104.583 290.41 104.323 290.974 104.176C291.542 104.025 292.101 103.949 292.65 103.949C293 103.949 293.403 103.991 293.857 104.077C294.317 104.157 294.759 104.325 295.186 104.581C295.616 104.837 295.974 105.223 296.258 105.739C296.542 106.255 296.684 106.946 296.684 107.812V115H295.008V113.523H294.923C294.809 113.759 294.62 114.013 294.355 114.283C294.089 114.553 293.737 114.782 293.296 114.972C292.856 115.161 292.319 115.256 291.684 115.256ZM291.94 113.75C292.603 113.75 293.161 113.62 293.616 113.359C294.075 113.099 294.421 112.763 294.653 112.351C294.89 111.939 295.008 111.506 295.008 111.051V109.517C294.937 109.602 294.781 109.68 294.539 109.751C294.303 109.818 294.028 109.877 293.715 109.929C293.408 109.976 293.107 110.019 292.813 110.057C292.525 110.09 292.29 110.118 292.11 110.142C291.675 110.199 291.268 110.291 290.889 110.419C290.515 110.542 290.212 110.729 289.98 110.98C289.752 111.226 289.639 111.562 289.639 111.989C289.639 112.571 289.854 113.011 290.285 113.31C290.721 113.603 291.272 113.75 291.94 113.75ZM304.688 104.091V105.511H299.034V104.091H304.688ZM300.682 101.477H302.358V111.875C302.358 112.348 302.427 112.704 302.564 112.94C302.706 113.172 302.886 113.329 303.104 113.409C303.327 113.485 303.561 113.523 303.807 113.523C303.992 113.523 304.143 113.513 304.262 113.494C304.38 113.471 304.475 113.452 304.546 113.438L304.887 114.943C304.773 114.986 304.614 115.028 304.411 115.071C304.207 115.118 303.949 115.142 303.637 115.142C303.163 115.142 302.699 115.04 302.245 114.837C301.795 114.633 301.421 114.323 301.122 113.906C300.829 113.49 300.682 112.964 300.682 112.33V101.477ZM314.284 110.54V104.091H315.96V115H314.284V113.153H314.17C313.915 113.707 313.517 114.179 312.977 114.567C312.438 114.95 311.756 115.142 310.932 115.142C310.25 115.142 309.644 114.993 309.114 114.695C308.583 114.392 308.167 113.937 307.864 113.331C307.561 112.72 307.409 111.951 307.409 111.023V104.091H309.085V110.909C309.085 111.705 309.308 112.339 309.753 112.812C310.203 113.286 310.776 113.523 311.472 113.523C311.888 113.523 312.312 113.416 312.743 113.203C313.179 112.99 313.543 112.663 313.837 112.223C314.135 111.783 314.284 111.222 314.284 110.54ZM326.957 106.534L325.452 106.96C325.357 106.709 325.217 106.465 325.033 106.229C324.853 105.987 324.607 105.788 324.294 105.632C323.982 105.476 323.582 105.398 323.094 105.398C322.426 105.398 321.87 105.552 321.425 105.859C320.984 106.162 320.764 106.548 320.764 107.017C320.764 107.434 320.916 107.763 321.219 108.004C321.522 108.246 321.995 108.447 322.639 108.608L324.259 109.006C325.234 109.242 325.961 109.605 326.439 110.092C326.917 110.575 327.156 111.198 327.156 111.96C327.156 112.585 326.976 113.144 326.617 113.636C326.261 114.129 325.764 114.517 325.125 114.801C324.486 115.085 323.743 115.227 322.895 115.227C321.782 115.227 320.861 114.986 320.132 114.503C319.403 114.02 318.941 113.314 318.747 112.386L320.338 111.989C320.49 112.576 320.776 113.016 321.198 113.31C321.624 113.603 322.18 113.75 322.867 113.75C323.648 113.75 324.268 113.584 324.727 113.253C325.191 112.917 325.423 112.514 325.423 112.045C325.423 111.667 325.291 111.349 325.026 111.094C324.76 110.833 324.353 110.639 323.804 110.511L321.986 110.085C320.987 109.848 320.253 109.482 319.784 108.984C319.32 108.482 319.088 107.855 319.088 107.102C319.088 106.487 319.261 105.942 319.607 105.469C319.957 104.995 320.433 104.624 321.034 104.354C321.64 104.084 322.327 103.949 323.094 103.949C324.173 103.949 325.021 104.186 325.636 104.659C326.257 105.133 326.697 105.758 326.957 106.534ZM331.328 100.455V105.455H329.766V100.455H331.328ZM334.965 100.455V105.455H333.402V100.455H334.965ZM350.221 107.983V109.545H343.857V107.983H350.221ZM359.422 115V100.455H361.098V105.824H361.24C361.364 105.634 361.534 105.393 361.752 105.099C361.974 104.801 362.292 104.536 362.704 104.304C363.12 104.067 363.684 103.949 364.394 103.949C365.312 103.949 366.122 104.179 366.823 104.638C367.524 105.097 368.071 105.748 368.464 106.591C368.856 107.434 369.053 108.428 369.053 109.574C369.053 110.729 368.856 111.731 368.464 112.578C368.071 113.421 367.526 114.074 366.83 114.538C366.134 114.998 365.331 115.227 364.422 115.227C363.722 115.227 363.16 115.111 362.739 114.879C362.318 114.643 361.993 114.375 361.766 114.077C361.539 113.774 361.364 113.523 361.24 113.324H361.042V115H359.422ZM361.07 109.545C361.07 110.369 361.191 111.096 361.432 111.726C361.674 112.351 362.026 112.841 362.49 113.196C362.955 113.546 363.523 113.722 364.195 113.722C364.896 113.722 365.481 113.537 365.949 113.168C366.423 112.794 366.778 112.292 367.015 111.662C367.256 111.027 367.377 110.322 367.377 109.545C367.377 108.778 367.258 108.087 367.022 107.472C366.79 106.851 366.437 106.361 365.964 106.001C365.495 105.637 364.905 105.455 364.195 105.455C363.513 105.455 362.94 105.627 362.476 105.973C362.012 106.314 361.662 106.792 361.425 107.408C361.188 108.018 361.07 108.731 361.07 109.545ZM375.027 115.256C374.336 115.256 373.708 115.125 373.145 114.865C372.582 114.6 372.134 114.219 371.803 113.722C371.471 113.22 371.306 112.614 371.306 111.903C371.306 111.278 371.429 110.772 371.675 110.384C371.921 109.991 372.25 109.683 372.662 109.46C373.074 109.238 373.529 109.072 374.026 108.963C374.528 108.849 375.032 108.759 375.538 108.693C376.201 108.608 376.739 108.544 377.151 108.501C377.567 108.454 377.87 108.376 378.06 108.267C378.254 108.158 378.351 107.969 378.351 107.699V107.642C378.351 106.941 378.159 106.397 377.776 106.009C377.397 105.62 376.822 105.426 376.05 105.426C375.25 105.426 374.622 105.601 374.168 105.952C373.713 106.302 373.394 106.676 373.209 107.074L371.618 106.506C371.902 105.843 372.281 105.327 372.754 104.957C373.233 104.583 373.753 104.323 374.317 104.176C374.885 104.025 375.444 103.949 375.993 103.949C376.343 103.949 376.746 103.991 377.2 104.077C377.66 104.157 378.102 104.325 378.529 104.581C378.959 104.837 379.317 105.223 379.601 105.739C379.885 106.255 380.027 106.946 380.027 107.812V115H378.351V113.523H378.266C378.152 113.759 377.963 114.013 377.698 114.283C377.432 114.553 377.08 114.782 376.639 114.972C376.199 115.161 375.662 115.256 375.027 115.256ZM375.283 113.75C375.946 113.75 376.504 113.62 376.959 113.359C377.418 113.099 377.764 112.763 377.996 112.351C378.233 111.939 378.351 111.506 378.351 111.051V109.517C378.28 109.602 378.124 109.68 377.882 109.751C377.645 109.818 377.371 109.877 377.058 109.929C376.751 109.976 376.45 110.019 376.156 110.057C375.868 110.09 375.633 110.118 375.453 110.142C375.018 110.199 374.61 110.291 374.232 110.419C373.858 110.542 373.555 110.729 373.323 110.98C373.095 111.226 372.982 111.562 372.982 111.989C372.982 112.571 373.197 113.011 373.628 113.31C374.064 113.603 374.615 113.75 375.283 113.75ZM391.014 106.534L389.508 106.96C389.413 106.709 389.274 106.465 389.089 106.229C388.909 105.987 388.663 105.788 388.35 105.632C388.038 105.476 387.638 105.398 387.15 105.398C386.482 105.398 385.926 105.552 385.481 105.859C385.041 106.162 384.821 106.548 384.821 107.017C384.821 107.434 384.972 107.763 385.275 108.004C385.578 108.246 386.052 108.447 386.696 108.608L388.315 109.006C389.29 109.242 390.017 109.605 390.495 110.092C390.973 110.575 391.213 111.198 391.213 111.96C391.213 112.585 391.033 113.144 390.673 113.636C390.318 114.129 389.821 114.517 389.181 114.801C388.542 115.085 387.799 115.227 386.951 115.227C385.839 115.227 384.918 114.986 384.188 114.503C383.459 114.02 382.998 113.314 382.803 112.386L384.394 111.989C384.546 112.576 384.832 113.016 385.254 113.31C385.68 113.603 386.236 113.75 386.923 113.75C387.704 113.75 388.324 113.584 388.784 113.253C389.248 112.917 389.48 112.514 389.48 112.045C389.48 111.667 389.347 111.349 389.082 111.094C388.817 110.833 388.41 110.639 387.86 110.511L386.042 110.085C385.043 109.848 384.309 109.482 383.84 108.984C383.376 108.482 383.144 107.855 383.144 107.102C383.144 106.487 383.317 105.942 383.663 105.469C384.013 104.995 384.489 104.624 385.09 104.354C385.696 104.084 386.383 103.949 387.15 103.949C388.23 103.949 389.077 104.186 389.693 104.659C390.313 105.133 390.753 105.758 391.014 106.534ZM398.51 115.227C397.458 115.227 396.552 114.995 395.789 114.531C395.032 114.062 394.447 113.409 394.035 112.571C393.628 111.728 393.424 110.748 393.424 109.631C393.424 108.513 393.628 107.528 394.035 106.676C394.447 105.819 395.02 105.152 395.754 104.673C396.492 104.19 397.354 103.949 398.339 103.949C398.907 103.949 399.468 104.044 400.022 104.233C400.576 104.422 401.081 104.73 401.535 105.156C401.99 105.578 402.352 106.136 402.622 106.832C402.892 107.528 403.027 108.385 403.027 109.403V110.114H394.617V108.665H401.322C401.322 108.049 401.199 107.5 400.953 107.017C400.711 106.534 400.366 106.153 399.916 105.874C399.471 105.594 398.945 105.455 398.339 105.455C397.671 105.455 397.094 105.62 396.606 105.952C396.123 106.278 395.751 106.705 395.491 107.23C395.231 107.756 395.1 108.319 395.1 108.92V109.886C395.1 110.71 395.242 111.409 395.527 111.982C395.815 112.55 396.215 112.983 396.727 113.281C397.238 113.575 397.832 113.722 398.51 113.722C398.95 113.722 399.348 113.66 399.703 113.537C400.063 113.409 400.373 113.22 400.633 112.969C400.894 112.713 401.095 112.396 401.237 112.017L402.856 112.472C402.686 113.021 402.399 113.504 401.997 113.92C401.594 114.332 401.097 114.654 400.505 114.886C399.913 115.114 399.248 115.227 398.51 115.227ZM409.896 115.227C408.987 115.227 408.184 114.998 407.488 114.538C406.792 114.074 406.247 113.421 405.854 112.578C405.461 111.731 405.265 110.729 405.265 109.574C405.265 108.428 405.461 107.434 405.854 106.591C406.247 105.748 406.794 105.097 407.495 104.638C408.196 104.179 409.005 103.949 409.924 103.949C410.634 103.949 411.195 104.067 411.607 104.304C412.024 104.536 412.341 104.801 412.559 105.099C412.781 105.393 412.954 105.634 413.077 105.824H413.219V100.455H414.896V115H413.276V113.324H413.077C412.954 113.523 412.779 113.774 412.552 114.077C412.325 114.375 412 114.643 411.579 114.879C411.157 115.111 410.596 115.227 409.896 115.227ZM410.123 113.722C410.795 113.722 411.363 113.546 411.827 113.196C412.291 112.841 412.644 112.351 412.886 111.726C413.127 111.096 413.248 110.369 413.248 109.545C413.248 108.731 413.129 108.018 412.893 107.408C412.656 106.792 412.306 106.314 411.842 105.973C411.378 105.627 410.805 105.455 410.123 105.455C409.413 105.455 408.821 105.637 408.347 106.001C407.879 106.361 407.526 106.851 407.289 107.472C407.057 108.087 406.941 108.778 406.941 109.545C406.941 110.322 407.059 111.027 407.296 111.662C407.538 112.292 407.893 112.794 408.362 113.168C408.835 113.537 409.422 113.722 410.123 113.722ZM428.655 115.227C427.67 115.227 426.806 114.993 426.063 114.524C425.324 114.055 424.746 113.4 424.33 112.557C423.918 111.714 423.712 110.729 423.712 109.602C423.712 108.466 423.918 107.474 424.33 106.626C424.746 105.779 425.324 105.121 426.063 104.652C426.806 104.183 427.67 103.949 428.655 103.949C429.64 103.949 430.502 104.183 431.24 104.652C431.984 105.121 432.561 105.779 432.973 106.626C433.39 107.474 433.598 108.466 433.598 109.602C433.598 110.729 433.39 111.714 432.973 112.557C432.561 113.4 431.984 114.055 431.24 114.524C430.502 114.993 429.64 115.227 428.655 115.227ZM428.655 113.722C429.403 113.722 430.019 113.53 430.502 113.146C430.985 112.763 431.342 112.259 431.574 111.634C431.806 111.009 431.922 110.331 431.922 109.602C431.922 108.873 431.806 108.194 431.574 107.564C431.342 106.934 430.985 106.425 430.502 106.037C430.019 105.649 429.403 105.455 428.655 105.455C427.907 105.455 427.291 105.649 426.808 106.037C426.325 106.425 425.968 106.934 425.736 107.564C425.504 108.194 425.388 108.873 425.388 109.602C425.388 110.331 425.504 111.009 425.736 111.634C425.968 112.259 426.325 112.763 426.808 113.146C427.291 113.53 427.907 113.722 428.655 113.722ZM438.033 108.438V115H436.357V104.091H437.976V105.795H438.118C438.374 105.241 438.762 104.796 439.283 104.46C439.804 104.119 440.476 103.949 441.3 103.949C442.039 103.949 442.685 104.1 443.239 104.403C443.793 104.702 444.224 105.156 444.531 105.767C444.839 106.373 444.993 107.14 444.993 108.068V115H443.317V108.182C443.317 107.325 443.094 106.657 442.649 106.179C442.204 105.696 441.593 105.455 440.817 105.455C440.282 105.455 439.804 105.571 439.382 105.803C438.966 106.035 438.637 106.373 438.395 106.818C438.154 107.263 438.033 107.803 438.033 108.438ZM455.161 119.091C454.876 119.091 454.623 119.067 454.401 119.02C454.178 118.977 454.024 118.935 453.939 118.892L454.365 117.415C454.772 117.519 455.132 117.557 455.445 117.528C455.757 117.5 456.034 117.36 456.276 117.109C456.522 116.863 456.747 116.463 456.95 115.909L457.263 115.057L453.229 104.091H455.047L458.058 112.784H458.172L461.183 104.091H463.001L458.371 116.591C458.162 117.154 457.904 117.621 457.597 117.99C457.289 118.364 456.931 118.641 456.524 118.821C456.122 119.001 455.667 119.091 455.161 119.091ZM469.455 115.227C468.47 115.227 467.606 114.993 466.863 114.524C466.124 114.055 465.546 113.4 465.13 112.557C464.718 111.714 464.512 110.729 464.512 109.602C464.512 108.466 464.718 107.474 465.13 106.626C465.546 105.779 466.124 105.121 466.863 104.652C467.606 104.183 468.47 103.949 469.455 103.949C470.44 103.949 471.302 104.183 472.04 104.652C472.784 105.121 473.361 105.779 473.773 106.626C474.19 107.474 474.398 108.466 474.398 109.602C474.398 110.729 474.19 111.714 473.773 112.557C473.361 113.4 472.784 114.055 472.04 114.524C471.302 114.993 470.44 115.227 469.455 115.227ZM469.455 113.722C470.203 113.722 470.819 113.53 471.302 113.146C471.785 112.763 472.142 112.259 472.374 111.634C472.606 111.009 472.722 110.331 472.722 109.602C472.722 108.873 472.606 108.194 472.374 107.564C472.142 106.934 471.785 106.425 471.302 106.037C470.819 105.649 470.203 105.455 469.455 105.455C468.707 105.455 468.091 105.649 467.608 106.037C467.125 106.425 466.768 106.934 466.536 107.564C466.304 108.194 466.188 108.873 466.188 109.602C466.188 110.331 466.304 111.009 466.536 111.634C466.768 112.259 467.125 112.763 467.608 113.146C468.091 113.53 468.707 113.722 469.455 113.722ZM484.032 110.54V104.091H485.708V115H484.032V113.153H483.918C483.662 113.707 483.265 114.179 482.725 114.567C482.185 114.95 481.503 115.142 480.679 115.142C479.998 115.142 479.392 114.993 478.861 114.695C478.331 114.392 477.914 113.937 477.611 113.331C477.308 112.72 477.157 111.951 477.157 111.023V104.091H478.833V110.909C478.833 111.705 479.055 112.339 479.5 112.812C479.95 113.286 480.523 113.523 481.219 113.523C481.636 113.523 482.06 113.416 482.491 113.203C482.926 112.99 483.291 112.663 483.584 112.223C483.883 111.783 484.032 111.222 484.032 110.54ZM488.978 115V104.091H490.597V105.739H490.711C490.91 105.199 491.27 104.761 491.79 104.425C492.311 104.089 492.898 103.92 493.552 103.92C493.675 103.92 493.829 103.923 494.013 103.928C494.198 103.932 494.338 103.939 494.432 103.949V105.653C494.376 105.639 494.245 105.618 494.042 105.589C493.843 105.556 493.632 105.54 493.41 105.54C492.879 105.54 492.406 105.651 491.989 105.874C491.577 106.091 491.251 106.394 491.009 106.783C490.772 107.166 490.654 107.604 490.654 108.097V115H488.978ZM502.444 115V104.091H504.064V105.739H504.177C504.376 105.199 504.736 104.761 505.257 104.425C505.778 104.089 506.365 103.92 507.018 103.92C507.141 103.92 507.295 103.923 507.48 103.928C507.664 103.932 507.804 103.939 507.899 103.949V105.653C507.842 105.639 507.712 105.618 507.508 105.589C507.309 105.556 507.099 105.54 506.876 105.54C506.346 105.54 505.872 105.651 505.456 105.874C505.044 106.091 504.717 106.394 504.475 106.783C504.239 107.166 504.12 107.604 504.12 108.097V115H502.444ZM514.327 115.227C513.276 115.227 512.37 114.995 511.607 114.531C510.85 114.062 510.265 113.409 509.853 112.571C509.446 111.728 509.242 110.748 509.242 109.631C509.242 108.513 509.446 107.528 509.853 106.676C510.265 105.819 510.838 105.152 511.572 104.673C512.31 104.19 513.172 103.949 514.157 103.949C514.725 103.949 515.286 104.044 515.84 104.233C516.394 104.422 516.899 104.73 517.353 105.156C517.808 105.578 518.17 106.136 518.44 106.832C518.71 107.528 518.845 108.385 518.845 109.403V110.114H510.435V108.665H517.14C517.14 108.049 517.017 107.5 516.771 107.017C516.529 106.534 516.184 106.153 515.734 105.874C515.289 105.594 514.763 105.455 514.157 105.455C513.489 105.455 512.912 105.62 512.424 105.952C511.941 106.278 511.569 106.705 511.309 107.23C511.049 107.756 510.918 108.319 510.918 108.92V109.886C510.918 110.71 511.06 111.409 511.345 111.982C511.633 112.55 512.033 112.983 512.545 113.281C513.056 113.575 513.65 113.722 514.327 113.722C514.768 113.722 515.166 113.66 515.521 113.537C515.881 113.409 516.191 113.22 516.451 112.969C516.711 112.713 516.913 112.396 517.055 112.017L518.674 112.472C518.504 113.021 518.217 113.504 517.815 113.92C517.412 114.332 516.915 114.654 516.323 114.886C515.731 115.114 515.066 115.227 514.327 115.227ZM526.026 115.227C525.003 115.227 524.123 114.986 523.384 114.503C522.645 114.02 522.077 113.355 521.679 112.507C521.282 111.66 521.083 110.691 521.083 109.602C521.083 108.494 521.286 107.517 521.694 106.669C522.106 105.817 522.679 105.152 523.412 104.673C524.151 104.19 525.013 103.949 525.998 103.949C526.765 103.949 527.456 104.091 528.072 104.375C528.687 104.659 529.191 105.057 529.584 105.568C529.977 106.08 530.221 106.676 530.316 107.358H528.64C528.512 106.861 528.228 106.42 527.787 106.037C527.352 105.649 526.765 105.455 526.026 105.455C525.373 105.455 524.8 105.625 524.307 105.966C523.82 106.302 523.438 106.778 523.164 107.393C522.894 108.004 522.759 108.722 522.759 109.545C522.759 110.388 522.892 111.122 523.157 111.747C523.427 112.372 523.805 112.857 524.293 113.203C524.786 113.549 525.363 113.722 526.026 113.722C526.462 113.722 526.857 113.646 527.212 113.494C527.567 113.343 527.868 113.125 528.114 112.841C528.36 112.557 528.536 112.216 528.64 111.818H530.316C530.221 112.462 529.987 113.042 529.613 113.558C529.243 114.07 528.753 114.477 528.143 114.78C527.536 115.078 526.831 115.227 526.026 115.227ZM537.54 115.227C536.489 115.227 535.582 114.995 534.82 114.531C534.062 114.062 533.477 113.409 533.066 112.571C532.658 111.728 532.455 110.748 532.455 109.631C532.455 108.513 532.658 107.528 533.066 106.676C533.477 105.819 534.05 105.152 534.784 104.673C535.523 104.19 536.385 103.949 537.37 103.949C537.938 103.949 538.499 104.044 539.053 104.233C539.607 104.422 540.111 104.73 540.566 105.156C541.02 105.578 541.382 106.136 541.652 106.832C541.922 107.528 542.057 108.385 542.057 109.403V110.114H533.648V108.665H540.352C540.352 108.049 540.229 107.5 539.983 107.017C539.742 106.534 539.396 106.153 538.946 105.874C538.501 105.594 537.976 105.455 537.37 105.455C536.702 105.455 536.124 105.62 535.637 105.952C535.154 106.278 534.782 106.705 534.522 107.23C534.261 107.756 534.131 108.319 534.131 108.92V109.886C534.131 110.71 534.273 111.409 534.557 111.982C534.846 112.55 535.246 112.983 535.757 113.281C536.269 113.575 536.863 113.722 537.54 113.722C537.98 113.722 538.378 113.66 538.733 113.537C539.093 113.409 539.403 113.22 539.664 112.969C539.924 112.713 540.125 112.396 540.267 112.017L541.887 112.472C541.716 113.021 541.43 113.504 541.027 113.92C540.625 114.332 540.128 114.654 539.536 114.886C538.944 115.114 538.279 115.227 537.54 115.227ZM546.483 108.438V115H544.807V104.091H546.426V105.795H546.568C546.824 105.241 547.212 104.796 547.733 104.46C548.254 104.119 548.926 103.949 549.75 103.949C550.489 103.949 551.135 104.1 551.689 104.403C552.243 104.702 552.674 105.156 552.981 105.767C553.289 106.373 553.443 107.14 553.443 108.068V115H551.767V108.182C551.767 107.325 551.544 106.657 551.099 106.179C550.654 105.696 550.043 105.455 549.267 105.455C548.732 105.455 548.254 105.571 547.832 105.803C547.416 106.035 547.087 106.373 546.845 106.818C546.604 107.263 546.483 107.803 546.483 108.438ZM561.45 104.091V105.511H555.797V104.091H561.45ZM557.445 101.477H559.121V111.875C559.121 112.348 559.189 112.704 559.327 112.94C559.469 113.172 559.649 113.329 559.866 113.409C560.089 113.485 560.323 113.523 560.57 113.523C560.754 113.523 560.906 113.513 561.024 113.494C561.143 113.471 561.237 113.452 561.308 113.438L561.649 114.943C561.536 114.986 561.377 115.028 561.173 115.071C560.97 115.118 560.712 115.142 560.399 115.142C559.926 115.142 559.462 115.04 559.007 114.837C558.557 114.633 558.183 114.323 557.885 113.906C557.591 113.49 557.445 112.964 557.445 112.33V101.477ZM574.855 104.091V105.511H568.974V104.091H574.855ZM570.735 115V102.585C570.735 101.96 570.882 101.439 571.176 101.023C571.469 100.606 571.85 100.294 572.319 100.085C572.788 99.8769 573.283 99.7727 573.803 99.7727C574.215 99.7727 574.552 99.8059 574.812 99.8722C575.072 99.9384 575.267 100 575.394 100.057L574.911 101.506C574.826 101.477 574.708 101.442 574.556 101.399C574.409 101.357 574.215 101.335 573.974 101.335C573.42 101.335 573.02 101.475 572.774 101.754C572.532 102.034 572.411 102.443 572.411 102.983V115H570.735ZM581.386 115.227C580.401 115.227 579.537 114.993 578.794 114.524C578.055 114.055 577.478 113.4 577.061 112.557C576.649 111.714 576.443 110.729 576.443 109.602C576.443 108.466 576.649 107.474 577.061 106.626C577.478 105.779 578.055 105.121 578.794 104.652C579.537 104.183 580.401 103.949 581.386 103.949C582.371 103.949 583.233 104.183 583.971 104.652C584.715 105.121 585.292 105.779 585.704 106.626C586.121 107.474 586.329 108.466 586.329 109.602C586.329 110.729 586.121 111.714 585.704 112.557C585.292 113.4 584.715 114.055 583.971 114.524C583.233 114.993 582.371 115.227 581.386 115.227ZM581.386 113.722C582.134 113.722 582.75 113.53 583.233 113.146C583.716 112.763 584.073 112.259 584.305 111.634C584.537 111.009 584.653 110.331 584.653 109.602C584.653 108.873 584.537 108.194 584.305 107.564C584.073 106.934 583.716 106.425 583.233 106.037C582.75 105.649 582.134 105.455 581.386 105.455C580.638 105.455 580.023 105.649 579.54 106.037C579.057 106.425 578.699 106.934 578.467 107.564C578.235 108.194 578.119 108.873 578.119 109.602C578.119 110.331 578.235 111.009 578.467 111.634C578.699 112.259 579.057 112.763 579.54 113.146C580.023 113.53 580.638 113.722 581.386 113.722ZM593.52 115.227C592.497 115.227 591.616 114.986 590.878 114.503C590.139 114.02 589.571 113.355 589.173 112.507C588.775 111.66 588.577 110.691 588.577 109.602C588.577 108.494 588.78 107.517 589.187 106.669C589.599 105.817 590.172 105.152 590.906 104.673C591.645 104.19 592.507 103.949 593.491 103.949C594.258 103.949 594.95 104.091 595.565 104.375C596.181 104.659 596.685 105.057 597.078 105.568C597.471 106.08 597.715 106.676 597.81 107.358H596.133C596.006 106.861 595.722 106.42 595.281 106.037C594.846 105.649 594.258 105.455 593.52 105.455C592.866 105.455 592.293 105.625 591.801 105.966C591.313 106.302 590.932 106.778 590.658 107.393C590.388 108.004 590.253 108.722 590.253 109.545C590.253 110.388 590.385 111.122 590.65 111.747C590.92 112.372 591.299 112.857 591.787 113.203C592.279 113.549 592.857 113.722 593.52 113.722C593.955 113.722 594.351 113.646 594.706 113.494C595.061 113.343 595.362 113.125 595.608 112.841C595.854 112.557 596.029 112.216 596.133 111.818H597.81C597.715 112.462 597.481 113.042 597.106 113.558C596.737 114.07 596.247 114.477 595.636 114.78C595.03 115.078 594.325 115.227 593.52 115.227ZM607.335 110.54V104.091H609.011V115H607.335V113.153H607.221C606.966 113.707 606.568 114.179 606.028 114.567C605.488 114.95 604.806 115.142 603.983 115.142C603.301 115.142 602.695 114.993 602.164 114.695C601.634 114.392 601.217 113.937 600.914 113.331C600.611 112.72 600.46 111.951 600.46 111.023V104.091H602.136V110.909C602.136 111.705 602.359 112.339 602.804 112.812C603.253 113.286 603.826 113.523 604.522 113.523C604.939 113.523 605.363 113.416 605.794 113.203C606.229 112.99 606.594 112.663 606.887 112.223C607.186 111.783 607.335 111.222 607.335 110.54ZM620.008 106.534L618.503 106.96C618.408 106.709 618.268 106.465 618.084 106.229C617.904 105.987 617.657 105.788 617.345 105.632C617.032 105.476 616.632 105.398 616.145 105.398C615.477 105.398 614.921 105.552 614.476 105.859C614.035 106.162 613.815 106.548 613.815 107.017C613.815 107.434 613.967 107.763 614.27 108.004C614.573 108.246 615.046 108.447 615.69 108.608L617.309 109.006C618.285 109.242 619.012 109.605 619.49 110.092C619.968 110.575 620.207 111.198 620.207 111.96C620.207 112.585 620.027 113.144 619.667 113.636C619.312 114.129 618.815 114.517 618.176 114.801C617.537 115.085 616.793 115.227 615.946 115.227C614.833 115.227 613.912 114.986 613.183 114.503C612.454 114.02 611.992 113.314 611.798 112.386L613.389 111.989C613.54 112.576 613.827 113.016 614.248 113.31C614.674 113.603 615.231 113.75 615.917 113.75C616.699 113.75 617.319 113.584 617.778 113.253C618.242 112.917 618.474 112.514 618.474 112.045C618.474 111.667 618.342 111.349 618.076 111.094C617.811 110.833 617.404 110.639 616.855 110.511L615.037 110.085C614.038 109.848 613.304 109.482 612.835 108.984C612.371 108.482 612.139 107.855 612.139 107.102C612.139 106.487 612.312 105.942 612.657 105.469C613.008 104.995 613.484 104.624 614.085 104.354C614.691 104.084 615.378 103.949 616.145 103.949C617.224 103.949 618.072 104.186 618.687 104.659C619.307 105.133 619.748 105.758 620.008 106.534ZM87.958 188.818V170.636H92.1625V172.028H89.5489V187.426H92.1625V188.818H87.958ZM102.762 176.091C102.677 175.371 102.331 174.812 101.725 174.415C101.119 174.017 100.376 173.818 99.495 173.818C98.851 173.818 98.2876 173.922 97.8046 174.131C97.3264 174.339 96.9523 174.625 96.6825 174.99C96.4173 175.355 96.2847 175.769 96.2847 176.233C96.2847 176.621 96.3771 176.955 96.5617 177.234C96.7511 177.509 96.9926 177.739 97.2861 177.923C97.5797 178.103 97.8875 178.252 98.2094 178.371C98.5314 178.484 98.8273 178.577 99.0972 178.648L100.575 179.045C100.953 179.145 101.375 179.282 101.839 179.457C102.307 179.633 102.755 179.872 103.181 180.175C103.612 180.473 103.967 180.857 104.246 181.325C104.526 181.794 104.665 182.369 104.665 183.051C104.665 183.837 104.459 184.547 104.048 185.182C103.64 185.816 103.044 186.321 102.258 186.695C101.476 187.069 100.527 187.256 99.4097 187.256C98.3681 187.256 97.4661 187.088 96.7038 186.751C95.9462 186.415 95.3496 185.946 94.914 185.345C94.4831 184.744 94.2393 184.045 94.1825 183.25H96.0006C96.048 183.799 96.2326 184.254 96.5546 184.614C96.8813 184.969 97.2933 185.234 97.7904 185.409C98.2923 185.58 98.8321 185.665 99.4097 185.665C100.082 185.665 100.686 185.556 101.221 185.338C101.756 185.116 102.18 184.808 102.492 184.415C102.805 184.017 102.961 183.553 102.961 183.023C102.961 182.54 102.826 182.147 102.556 181.844C102.286 181.541 101.931 181.295 101.491 181.105C101.05 180.916 100.575 180.75 100.063 180.608L98.2734 180.097C97.137 179.77 96.2374 179.304 95.5745 178.697C94.9116 178.091 94.5802 177.298 94.5802 176.318C94.5802 175.504 94.8004 174.794 95.2407 174.188C95.6858 173.577 96.2824 173.103 97.0305 172.767C97.7833 172.426 98.6237 172.256 99.5518 172.256C100.489 172.256 101.323 172.424 102.052 172.76C102.781 173.091 103.359 173.546 103.785 174.124C104.216 174.701 104.443 175.357 104.467 176.091H102.762ZM109.21 180.438V187H107.534V176.091H109.153V177.795H109.295C109.551 177.241 109.939 176.796 110.46 176.46C110.981 176.119 111.653 175.949 112.477 175.949C113.216 175.949 113.862 176.1 114.416 176.403C114.97 176.702 115.401 177.156 115.709 177.767C116.017 178.373 116.17 179.14 116.17 180.068V187H114.494V180.182C114.494 179.325 114.272 178.657 113.827 178.179C113.382 177.696 112.771 177.455 111.994 177.455C111.459 177.455 110.981 177.571 110.56 177.803C110.143 178.035 109.814 178.373 109.572 178.818C109.331 179.263 109.21 179.803 109.21 180.438ZM123.865 187.227C122.88 187.227 122.016 186.993 121.273 186.524C120.534 186.055 119.957 185.4 119.54 184.557C119.128 183.714 118.922 182.729 118.922 181.602C118.922 180.466 119.128 179.474 119.54 178.626C119.957 177.779 120.534 177.121 121.273 176.652C122.016 176.183 122.88 175.949 123.865 175.949C124.85 175.949 125.712 176.183 126.45 176.652C127.194 177.121 127.771 177.779 128.183 178.626C128.6 179.474 128.808 180.466 128.808 181.602C128.808 182.729 128.6 183.714 128.183 184.557C127.771 185.4 127.194 186.055 126.45 186.524C125.712 186.993 124.85 187.227 123.865 187.227ZM123.865 185.722C124.613 185.722 125.229 185.53 125.712 185.146C126.195 184.763 126.552 184.259 126.784 183.634C127.016 183.009 127.132 182.331 127.132 181.602C127.132 180.873 127.016 180.194 126.784 179.564C126.552 178.934 126.195 178.425 125.712 178.037C125.229 177.649 124.613 177.455 123.865 177.455C123.117 177.455 122.501 177.649 122.019 178.037C121.536 178.425 121.178 178.934 120.946 179.564C120.714 180.194 120.598 180.873 120.598 181.602C120.598 182.331 120.714 183.009 120.946 183.634C121.178 184.259 121.536 184.763 122.019 185.146C122.501 185.53 123.117 185.722 123.865 185.722ZM135.999 187.227C135.014 187.227 134.15 186.993 133.406 186.524C132.668 186.055 132.09 185.4 131.673 184.557C131.262 183.714 131.056 182.729 131.056 181.602C131.056 180.466 131.262 179.474 131.673 178.626C132.09 177.779 132.668 177.121 133.406 176.652C134.15 176.183 135.014 175.949 135.999 175.949C136.984 175.949 137.845 176.183 138.584 176.652C139.327 177.121 139.905 177.779 140.317 178.626C140.734 179.474 140.942 180.466 140.942 181.602C140.942 182.729 140.734 183.714 140.317 184.557C139.905 185.4 139.327 186.055 138.584 186.524C137.845 186.993 136.984 187.227 135.999 187.227ZM135.999 185.722C136.747 185.722 137.362 185.53 137.845 185.146C138.328 184.763 138.686 184.259 138.918 183.634C139.15 183.009 139.266 182.331 139.266 181.602C139.266 180.873 139.15 180.194 138.918 179.564C138.686 178.934 138.328 178.425 137.845 178.037C137.362 177.649 136.747 177.455 135.999 177.455C135.251 177.455 134.635 177.649 134.152 178.037C133.669 178.425 133.312 178.934 133.08 179.564C132.848 180.194 132.732 180.873 132.732 181.602C132.732 182.331 132.848 183.009 133.08 183.634C133.312 184.259 133.669 184.763 134.152 185.146C134.635 185.53 135.251 185.722 135.999 185.722ZM143.388 187V185.722L149.581 177.767V177.653H143.587V176.091H151.74V177.426L145.718 185.324V185.438H151.939V187H143.388ZM158.982 187.227C157.931 187.227 157.024 186.995 156.262 186.531C155.504 186.062 154.92 185.409 154.508 184.571C154.101 183.728 153.897 182.748 153.897 181.631C153.897 180.513 154.101 179.528 154.508 178.676C154.92 177.819 155.493 177.152 156.226 176.673C156.965 176.19 157.827 175.949 158.812 175.949C159.38 175.949 159.941 176.044 160.495 176.233C161.049 176.422 161.553 176.73 162.008 177.156C162.462 177.578 162.825 178.136 163.094 178.832C163.364 179.528 163.499 180.385 163.499 181.403V182.114H155.09V180.665H161.795C161.795 180.049 161.672 179.5 161.425 179.017C161.184 178.534 160.838 178.153 160.388 177.874C159.943 177.594 159.418 177.455 158.812 177.455C158.144 177.455 157.566 177.62 157.079 177.952C156.596 178.278 156.224 178.705 155.964 179.23C155.703 179.756 155.573 180.319 155.573 180.92V181.886C155.573 182.71 155.715 183.409 155.999 183.982C156.288 184.55 156.688 184.983 157.2 185.281C157.711 185.575 158.305 185.722 158.982 185.722C159.423 185.722 159.82 185.66 160.175 185.537C160.535 185.409 160.845 185.22 161.106 184.969C161.366 184.713 161.567 184.396 161.709 184.017L163.329 184.472C163.158 185.021 162.872 185.504 162.469 185.92C162.067 186.332 161.57 186.654 160.978 186.886C160.386 187.114 159.721 187.227 158.982 187.227ZM177.159 172.455V187H175.398V174.301H175.313L171.761 176.659V174.869L175.398 172.455H177.159ZM183.247 180.438V187H181.571V172.455H183.247V177.795H183.389C183.645 177.232 184.028 176.785 184.54 176.453C185.056 176.117 185.742 175.949 186.599 175.949C187.343 175.949 187.994 176.098 188.552 176.396C189.111 176.69 189.544 177.142 189.852 177.753C190.165 178.359 190.321 179.131 190.321 180.068V187H188.645V180.182C188.645 179.315 188.42 178.645 187.97 178.172C187.525 177.694 186.907 177.455 186.116 177.455C185.567 177.455 185.075 177.571 184.639 177.803C184.208 178.035 183.867 178.373 183.616 178.818C183.37 179.263 183.247 179.803 183.247 180.438ZM193.587 187V176.091H195.207V177.739H195.32C195.519 177.199 195.879 176.761 196.4 176.425C196.921 176.089 197.508 175.92 198.161 175.92C198.284 175.92 198.438 175.923 198.623 175.928C198.807 175.932 198.947 175.939 199.042 175.949V177.653C198.985 177.639 198.855 177.618 198.651 177.589C198.452 177.556 198.242 177.54 198.019 177.54C197.489 177.54 197.015 177.651 196.599 177.874C196.187 178.091 195.86 178.394 195.618 178.783C195.382 179.166 195.263 179.604 195.263 180.097V187H193.587ZM204.581 171.773V189.955H200.376V188.562H202.99V173.165H200.376V171.773H204.581ZM215.324 189.955V171.773H219.528V173.165H216.914V188.562H219.528V189.955H215.324ZM230.128 176.091C230.042 175.371 229.697 174.812 229.091 174.415C228.485 174.017 227.741 173.818 226.861 173.818C226.217 173.818 225.653 173.922 225.17 174.131C224.692 174.339 224.318 174.625 224.048 174.99C223.783 175.355 223.65 175.769 223.65 176.233C223.65 176.621 223.743 176.955 223.927 177.234C224.117 177.509 224.358 177.739 224.652 177.923C224.945 178.103 225.253 178.252 225.575 178.371C225.897 178.484 226.193 178.577 226.463 178.648L227.94 179.045C228.319 179.145 228.74 179.282 229.204 179.457C229.673 179.633 230.121 179.872 230.547 180.175C230.978 180.473 231.333 180.857 231.612 181.325C231.891 181.794 232.031 182.369 232.031 183.051C232.031 183.837 231.825 184.547 231.413 185.182C231.006 185.816 230.409 186.321 229.623 186.695C228.842 187.069 227.893 187.256 226.775 187.256C225.734 187.256 224.832 187.088 224.069 186.751C223.312 186.415 222.715 185.946 222.28 185.345C221.849 184.744 221.605 184.045 221.548 183.25H223.366C223.414 183.799 223.598 184.254 223.92 184.614C224.247 184.969 224.659 185.234 225.156 185.409C225.658 185.58 226.198 185.665 226.775 185.665C227.448 185.665 228.051 185.556 228.586 185.338C229.121 185.116 229.545 184.808 229.858 184.415C230.17 184.017 230.326 183.553 230.326 183.023C230.326 182.54 230.192 182.147 229.922 181.844C229.652 181.541 229.297 181.295 228.856 181.105C228.416 180.916 227.94 180.75 227.429 180.608L225.639 180.097C224.503 179.77 223.603 179.304 222.94 178.697C222.277 178.091 221.946 177.298 221.946 176.318C221.946 175.504 222.166 174.794 222.606 174.188C223.051 173.577 223.648 173.103 224.396 172.767C225.149 172.426 225.989 172.256 226.917 172.256C227.855 172.256 228.688 172.424 229.417 172.76C230.147 173.091 230.724 173.546 231.15 174.124C231.581 174.701 231.808 175.357 231.832 176.091H230.128ZM237.371 187L234.047 176.091H235.809L238.167 184.443H238.28L240.61 176.091H242.4L244.701 184.415H244.814L247.172 176.091H248.934L245.61 187H243.962L241.576 178.619H241.405L239.019 187H237.371ZM254.56 187.256C253.869 187.256 253.241 187.125 252.678 186.865C252.114 186.6 251.667 186.219 251.336 185.722C251.004 185.22 250.838 184.614 250.838 183.903C250.838 183.278 250.961 182.772 251.208 182.384C251.454 181.991 251.783 181.683 252.195 181.46C252.607 181.238 253.061 181.072 253.559 180.963C254.06 180.849 254.565 180.759 255.071 180.693C255.734 180.608 256.272 180.544 256.684 180.501C257.1 180.454 257.403 180.376 257.593 180.267C257.787 180.158 257.884 179.969 257.884 179.699V179.642C257.884 178.941 257.692 178.397 257.309 178.009C256.93 177.62 256.354 177.426 255.583 177.426C254.782 177.426 254.155 177.601 253.701 177.952C253.246 178.302 252.926 178.676 252.742 179.074L251.151 178.506C251.435 177.843 251.814 177.327 252.287 176.957C252.765 176.583 253.286 176.323 253.85 176.176C254.418 176.025 254.977 175.949 255.526 175.949C255.876 175.949 256.279 175.991 256.733 176.077C257.193 176.157 257.635 176.325 258.061 176.581C258.492 176.837 258.85 177.223 259.134 177.739C259.418 178.255 259.56 178.946 259.56 179.812V187H257.884V185.523H257.799C257.685 185.759 257.496 186.013 257.23 186.283C256.965 186.553 256.613 186.782 256.172 186.972C255.732 187.161 255.194 187.256 254.56 187.256ZM254.816 185.75C255.479 185.75 256.037 185.62 256.492 185.359C256.951 185.099 257.297 184.763 257.529 184.351C257.765 183.939 257.884 183.506 257.884 183.051V181.517C257.813 181.602 257.657 181.68 257.415 181.751C257.178 181.818 256.904 181.877 256.591 181.929C256.283 181.976 255.983 182.019 255.689 182.057C255.4 182.09 255.166 182.118 254.986 182.142C254.55 182.199 254.143 182.291 253.764 182.419C253.39 182.542 253.087 182.729 252.855 182.98C252.628 183.226 252.514 183.562 252.514 183.989C252.514 184.571 252.73 185.011 253.161 185.31C253.596 185.603 254.148 185.75 254.816 185.75ZM262.819 191.091V176.091H264.439V177.824H264.637C264.761 177.634 264.931 177.393 265.149 177.099C265.371 176.801 265.689 176.536 266.1 176.304C266.517 176.067 267.081 175.949 267.791 175.949C268.709 175.949 269.519 176.179 270.22 176.638C270.921 177.097 271.467 177.748 271.86 178.591C272.253 179.434 272.45 180.428 272.45 181.574C272.45 182.729 272.253 183.731 271.86 184.578C271.467 185.421 270.923 186.074 270.227 186.538C269.531 186.998 268.728 187.227 267.819 187.227C267.118 187.227 266.557 187.111 266.136 186.879C265.715 186.643 265.39 186.375 265.163 186.077C264.936 185.774 264.761 185.523 264.637 185.324H264.495V191.091H262.819ZM264.467 181.545C264.467 182.369 264.588 183.096 264.829 183.726C265.071 184.351 265.423 184.841 265.887 185.196C266.351 185.546 266.92 185.722 267.592 185.722C268.293 185.722 268.877 185.537 269.346 185.168C269.82 184.794 270.175 184.292 270.412 183.662C270.653 183.027 270.774 182.322 270.774 181.545C270.774 180.778 270.655 180.087 270.419 179.472C270.187 178.851 269.834 178.361 269.36 178.001C268.892 177.637 268.302 177.455 267.592 177.455C266.91 177.455 266.337 177.627 265.873 177.973C265.409 178.314 265.059 178.792 264.822 179.408C264.585 180.018 264.467 180.731 264.467 181.545ZM292.793 172.455V187H291.089L283.162 175.58H283.02V187H281.259V172.455H282.964L290.918 183.903H291.06V172.455H292.793ZM300.722 187.227C299.737 187.227 298.873 186.993 298.13 186.524C297.391 186.055 296.814 185.4 296.397 184.557C295.985 183.714 295.779 182.729 295.779 181.602C295.779 180.466 295.985 179.474 296.397 178.626C296.814 177.779 297.391 177.121 298.13 176.652C298.873 176.183 299.737 175.949 300.722 175.949C301.707 175.949 302.569 176.183 303.307 176.652C304.051 177.121 304.628 177.779 305.04 178.626C305.457 179.474 305.665 180.466 305.665 181.602C305.665 182.729 305.457 183.714 305.04 184.557C304.628 185.4 304.051 186.055 303.307 186.524C302.569 186.993 301.707 187.227 300.722 187.227ZM300.722 185.722C301.47 185.722 302.086 185.53 302.569 185.146C303.052 184.763 303.409 184.259 303.641 183.634C303.873 183.009 303.989 182.331 303.989 181.602C303.989 180.873 303.873 180.194 303.641 179.564C303.409 178.934 303.052 178.425 302.569 178.037C302.086 177.649 301.47 177.455 300.722 177.455C299.974 177.455 299.359 177.649 298.876 178.037C298.393 178.425 298.035 178.934 297.803 179.564C297.571 180.194 297.455 180.873 297.455 181.602C297.455 182.331 297.571 183.009 297.803 183.634C298.035 184.259 298.393 184.763 298.876 185.146C299.359 185.53 299.974 185.722 300.722 185.722ZM310.524 187L307.201 176.091H308.962L311.32 184.443H311.434L313.763 176.091H315.553L317.854 184.415H317.968L320.326 176.091H322.087L318.763 187H317.115L314.729 178.619H314.559L312.172 187H310.524ZM327.855 171.773V189.955H323.651V188.562H326.264V173.165H323.651V171.773H327.855ZM338.598 189.955V171.773H342.802V173.165H340.189V188.562H342.802V189.955H338.598ZM345.447 187V172.455H347.209V179.67H347.379L353.913 172.455H356.214L350.106 179.017L356.214 187H354.084L349.027 180.239L347.209 182.284V187H345.447ZM362.24 187.227C361.189 187.227 360.282 186.995 359.52 186.531C358.762 186.062 358.177 185.409 357.766 184.571C357.358 183.728 357.155 182.748 357.155 181.631C357.155 180.513 357.358 179.528 357.766 178.676C358.177 177.819 358.75 177.152 359.484 176.673C360.223 176.19 361.085 175.949 362.07 175.949C362.638 175.949 363.199 176.044 363.753 176.233C364.307 176.422 364.811 176.73 365.266 177.156C365.72 177.578 366.082 178.136 366.352 178.832C366.622 179.528 366.757 180.385 366.757 181.403V182.114H358.348V180.665H365.052C365.052 180.049 364.929 179.5 364.683 179.017C364.442 178.534 364.096 178.153 363.646 177.874C363.201 177.594 362.676 177.455 362.07 177.455C361.402 177.455 360.824 177.62 360.337 177.952C359.854 178.278 359.482 178.705 359.222 179.23C358.961 179.756 358.831 180.319 358.831 180.92V181.886C358.831 182.71 358.973 183.409 359.257 183.982C359.546 184.55 359.946 184.983 360.457 185.281C360.969 185.575 361.563 185.722 362.24 185.722C362.68 185.722 363.078 185.66 363.433 185.537C363.793 185.409 364.103 185.22 364.364 184.969C364.624 184.713 364.825 184.396 364.967 184.017L366.587 184.472C366.416 185.021 366.13 185.504 365.727 185.92C365.325 186.332 364.828 186.654 364.236 186.886C363.644 187.114 362.979 187.227 362.24 187.227ZM374.081 187.227C373.029 187.227 372.123 186.995 371.36 186.531C370.603 186.062 370.018 185.409 369.606 184.571C369.199 183.728 368.995 182.748 368.995 181.631C368.995 180.513 369.199 179.528 369.606 178.676C370.018 177.819 370.591 177.152 371.325 176.673C372.064 176.19 372.925 175.949 373.91 175.949C374.478 175.949 375.039 176.044 375.593 176.233C376.147 176.422 376.652 176.73 377.106 177.156C377.561 177.578 377.923 178.136 378.193 178.832C378.463 179.528 378.598 180.385 378.598 181.403V182.114H370.189V180.665H376.893C376.893 180.049 376.77 179.5 376.524 179.017C376.282 178.534 375.937 178.153 375.487 177.874C375.042 177.594 374.516 177.455 373.91 177.455C373.243 177.455 372.665 177.62 372.177 177.952C371.694 178.278 371.323 178.705 371.062 179.23C370.802 179.756 370.672 180.319 370.672 180.92V181.886C370.672 182.71 370.814 183.409 371.098 183.982C371.386 184.55 371.787 184.983 372.298 185.281C372.809 185.575 373.404 185.722 374.081 185.722C374.521 185.722 374.919 185.66 375.274 185.537C375.634 185.409 375.944 185.22 376.204 184.969C376.465 184.713 376.666 184.396 376.808 184.017L378.427 184.472C378.257 185.021 377.97 185.504 377.568 185.92C377.165 186.332 376.668 186.654 376.076 186.886C375.484 187.114 374.819 187.227 374.081 187.227ZM381.347 191.091V176.091H382.967V177.824H383.166C383.289 177.634 383.459 177.393 383.677 177.099C383.899 176.801 384.217 176.536 384.629 176.304C385.045 176.067 385.609 175.949 386.319 175.949C387.238 175.949 388.047 176.179 388.748 176.638C389.449 177.097 389.996 177.748 390.389 178.591C390.782 179.434 390.978 180.428 390.978 181.574C390.978 182.729 390.782 183.731 390.389 184.578C389.996 185.421 389.451 186.074 388.755 186.538C388.059 186.998 387.256 187.227 386.347 187.227C385.647 187.227 385.086 187.111 384.664 186.879C384.243 186.643 383.918 186.375 383.691 186.077C383.464 185.774 383.289 185.523 383.166 185.324H383.024V191.091H381.347ZM382.995 181.545C382.995 182.369 383.116 183.096 383.357 183.726C383.599 184.351 383.952 184.841 384.416 185.196C384.88 185.546 385.448 185.722 386.12 185.722C386.821 185.722 387.406 185.537 387.874 185.168C388.348 184.794 388.703 184.292 388.94 183.662C389.181 183.027 389.302 182.322 389.302 181.545C389.302 180.778 389.184 180.087 388.947 179.472C388.715 178.851 388.362 178.361 387.889 178.001C387.42 177.637 386.83 177.455 386.12 177.455C385.438 177.455 384.865 177.627 384.401 177.973C383.937 178.314 383.587 178.792 383.35 179.408C383.113 180.018 382.995 180.731 382.995 181.545ZM398.992 174.017V172.455H409.901V174.017H405.327V187H403.566V174.017H398.992ZM414.268 180.438V187H412.592V172.455H414.268V177.795H414.41C414.666 177.232 415.049 176.785 415.561 176.453C416.077 176.117 416.763 175.949 417.62 175.949C418.364 175.949 419.015 176.098 419.573 176.396C420.132 176.69 420.565 177.142 420.873 177.753C421.186 178.359 421.342 179.131 421.342 180.068V187H419.666V180.182C419.666 179.315 419.441 178.645 418.991 178.172C418.546 177.694 417.928 177.455 417.137 177.455C416.588 177.455 416.096 177.571 415.66 177.803C415.229 178.035 414.888 178.373 414.637 178.818C414.391 179.263 414.268 179.803 414.268 180.438ZM424.608 187V176.091H426.284V187H424.608ZM425.461 174.273C425.134 174.273 424.852 174.161 424.615 173.939C424.383 173.716 424.267 173.449 424.267 173.136C424.267 172.824 424.383 172.556 424.615 172.334C424.852 172.111 425.134 172 425.461 172C425.787 172 426.067 172.111 426.299 172.334C426.535 172.556 426.654 172.824 426.654 173.136C426.654 173.449 426.535 173.716 426.299 173.939C426.067 174.161 425.787 174.273 425.461 174.273ZM437.282 178.534L435.776 178.96C435.681 178.709 435.542 178.465 435.357 178.229C435.177 177.987 434.931 177.788 434.618 177.632C434.306 177.476 433.906 177.398 433.418 177.398C432.75 177.398 432.194 177.552 431.749 177.859C431.309 178.162 431.089 178.548 431.089 179.017C431.089 179.434 431.24 179.763 431.543 180.004C431.846 180.246 432.32 180.447 432.964 180.608L434.583 181.006C435.558 181.242 436.285 181.605 436.763 182.092C437.241 182.575 437.481 183.198 437.481 183.96C437.481 184.585 437.301 185.144 436.941 185.636C436.586 186.129 436.089 186.517 435.449 186.801C434.81 187.085 434.067 187.227 433.219 187.227C432.106 187.227 431.186 186.986 430.456 186.503C429.727 186.02 429.266 185.314 429.071 184.386L430.662 183.989C430.814 184.576 431.1 185.016 431.522 185.31C431.948 185.603 432.504 185.75 433.191 185.75C433.972 185.75 434.592 185.584 435.052 185.253C435.516 184.917 435.748 184.514 435.748 184.045C435.748 183.667 435.615 183.349 435.35 183.094C435.085 182.833 434.678 182.639 434.128 182.511L432.31 182.085C431.311 181.848 430.577 181.482 430.108 180.984C429.644 180.482 429.412 179.855 429.412 179.102C429.412 178.487 429.585 177.942 429.931 177.469C430.281 176.995 430.757 176.624 431.358 176.354C431.964 176.084 432.651 175.949 433.418 175.949C434.498 175.949 435.345 176.186 435.961 176.659C436.581 177.133 437.021 177.758 437.282 178.534ZM457.96 177H456.199C456.095 176.493 455.913 176.048 455.652 175.665C455.397 175.281 455.084 174.959 454.715 174.699C454.35 174.434 453.945 174.235 453.5 174.102C453.055 173.97 452.591 173.903 452.108 173.903C451.227 173.903 450.43 174.126 449.715 174.571C449.004 175.016 448.439 175.672 448.017 176.538C447.601 177.405 447.392 178.468 447.392 179.727C447.392 180.987 447.601 182.05 448.017 182.916C448.439 183.783 449.004 184.438 449.715 184.884C450.43 185.329 451.227 185.551 452.108 185.551C452.591 185.551 453.055 185.485 453.5 185.352C453.945 185.22 454.35 185.023 454.715 184.763C455.084 184.498 455.397 184.173 455.652 183.79C455.913 183.402 456.095 182.956 456.199 182.455H457.96C457.828 183.198 457.586 183.863 457.236 184.45C456.886 185.037 456.45 185.537 455.929 185.949C455.408 186.356 454.824 186.666 454.175 186.879C453.531 187.092 452.842 187.199 452.108 187.199C450.868 187.199 449.764 186.896 448.799 186.29C447.833 185.684 447.073 184.822 446.519 183.705C445.965 182.587 445.688 181.261 445.688 179.727C445.688 178.193 445.965 176.867 446.519 175.75C447.073 174.633 447.833 173.771 448.799 173.165C449.764 172.559 450.868 172.256 452.108 172.256C452.842 172.256 453.531 172.362 454.175 172.575C454.824 172.788 455.408 173.101 455.929 173.513C456.45 173.92 456.886 174.417 457.236 175.004C457.586 175.587 457.828 176.252 457.96 177ZM463.99 187.256C463.298 187.256 462.671 187.125 462.108 186.865C461.544 186.6 461.097 186.219 460.765 185.722C460.434 185.22 460.268 184.614 460.268 183.903C460.268 183.278 460.391 182.772 460.637 182.384C460.884 181.991 461.213 181.683 461.625 181.46C462.036 181.238 462.491 181.072 462.988 180.963C463.49 180.849 463.994 180.759 464.501 180.693C465.164 180.608 465.701 180.544 466.113 180.501C466.53 180.454 466.833 180.376 467.022 180.267C467.216 180.158 467.313 179.969 467.313 179.699V179.642C467.313 178.941 467.122 178.397 466.738 178.009C466.359 177.62 465.784 177.426 465.012 177.426C464.212 177.426 463.585 177.601 463.13 177.952C462.676 178.302 462.356 178.676 462.171 179.074L460.581 178.506C460.865 177.843 461.243 177.327 461.717 176.957C462.195 176.583 462.716 176.323 463.279 176.176C463.848 176.025 464.406 175.949 464.956 175.949C465.306 175.949 465.708 175.991 466.163 176.077C466.622 176.157 467.065 176.325 467.491 176.581C467.922 176.837 468.279 177.223 468.563 177.739C468.848 178.255 468.99 178.946 468.99 179.812V187H467.313V185.523H467.228C467.115 185.759 466.925 186.013 466.66 186.283C466.395 186.553 466.042 186.782 465.602 186.972C465.161 187.161 464.624 187.256 463.99 187.256ZM464.245 185.75C464.908 185.75 465.467 185.62 465.921 185.359C466.381 185.099 466.726 184.763 466.958 184.351C467.195 183.939 467.313 183.506 467.313 183.051V181.517C467.242 181.602 467.086 181.68 466.845 181.751C466.608 181.818 466.333 181.877 466.021 181.929C465.713 181.976 465.412 182.019 465.119 182.057C464.83 182.09 464.596 182.118 464.416 182.142C463.98 182.199 463.573 182.291 463.194 182.419C462.82 182.542 462.517 182.729 462.285 182.98C462.058 183.226 461.944 183.562 461.944 183.989C461.944 184.571 462.16 185.011 462.59 185.31C463.026 185.603 463.578 185.75 464.245 185.75ZM472.249 187V176.091H473.868V177.739H473.982C474.181 177.199 474.541 176.761 475.061 176.425C475.582 176.089 476.169 175.92 476.823 175.92C476.946 175.92 477.1 175.923 477.284 175.928C477.469 175.932 477.609 175.939 477.703 175.949V177.653C477.647 177.639 477.516 177.618 477.313 177.589C477.114 177.556 476.903 177.54 476.681 177.54C476.15 177.54 475.677 177.651 475.26 177.874C474.848 178.091 474.522 178.394 474.28 178.783C474.043 179.166 473.925 179.604 473.925 180.097V187H472.249ZM483.678 187.227C482.769 187.227 481.966 186.998 481.27 186.538C480.574 186.074 480.029 185.421 479.636 184.578C479.243 183.731 479.047 182.729 479.047 181.574C479.047 180.428 479.243 179.434 479.636 178.591C480.029 177.748 480.576 177.097 481.277 176.638C481.978 176.179 482.787 175.949 483.706 175.949C484.416 175.949 484.977 176.067 485.389 176.304C485.806 176.536 486.123 176.801 486.341 177.099C486.564 177.393 486.736 177.634 486.859 177.824H487.002V172.455H488.678V187H487.058V185.324H486.859C486.736 185.523 486.561 185.774 486.334 186.077C486.107 186.375 485.782 186.643 485.361 186.879C484.939 187.111 484.378 187.227 483.678 187.227ZM483.905 185.722C484.577 185.722 485.145 185.546 485.609 185.196C486.073 184.841 486.426 184.351 486.668 183.726C486.909 183.096 487.03 182.369 487.03 181.545C487.03 180.731 486.912 180.018 486.675 179.408C486.438 178.792 486.088 178.314 485.624 177.973C485.16 177.627 484.587 177.455 483.905 177.455C483.195 177.455 482.603 177.637 482.129 178.001C481.661 178.361 481.308 178.851 481.071 179.472C480.839 180.087 480.723 180.778 480.723 181.545C480.723 182.322 480.841 183.027 481.078 183.662C481.32 184.292 481.675 184.794 482.144 185.168C482.617 185.537 483.204 185.722 483.905 185.722ZM495.532 171.773V189.955H491.328V188.562H493.942V173.165H491.328V171.773H495.532Z" fill="black"/>
<g clip-path="url(#clip0_3_76)">
<path d="M135 93.3333C135 94.0406 134.719 94.7189 134.219 95.219C133.719 95.719 133.041 96 132.333 96H113.667C112.959 96 112.281 95.719 111.781 95.219C111.281 94.7189 111 94.0406 111 93.3333V74.6667C111 73.9594 111.281 73.2811 111.781 72.781C112.281 72.281 112.959 72 113.667 72H132.333C133.041 72 133.719 72.281 134.219 72.781C134.719 73.2811 135 73.9594 135 74.6667V93.3333Z" fill="#3B88C3"/>
<path d="M125.828 86.828L127.714 88.714C125.111 91.3173 120.889 91.3167 118.285 88.7133C117.574 88.0028 117.033 87.1401 116.704 86.1903C116.374 85.2405 116.264 84.2284 116.383 83.23L113.691 83.4747C113.548 86.0347 114.443 88.6427 116.399 90.5993C120.044 94.244 125.955 94.2447 129.599 90.5993L131.484 92.4847L132.05 86.262L125.828 86.828ZM129.599 77.4C125.954 73.7553 120.045 73.7553 116.4 77.4L114.515 75.5147L113.949 81.7373L120.171 81.1713L118.285 79.2853C120.889 76.682 125.109 76.682 127.713 79.2853C128.424 79.9962 128.965 80.8589 129.295 81.8087C129.625 82.7586 129.735 83.7708 129.617 84.7693L132.308 84.5253C132.452 81.9647 131.556 79.3567 129.599 77.4Z" fill="white"/>
</g>
<defs>
<clipPath id="clip0_3_76">
<rect width="24" height="24" fill="white" transform="translate(111 72)"/>
</clipPath>
</defs>
</svg>
