<svg width="1027" height="311" viewBox="0 0 1027 311" fill="none" xmlns="http://www.w3.org/2000/svg">
<rect width="1027" height="301" fill="white"/>
<rect x="14.5" y="50.5" width="998" height="200" stroke="black"/>
<path d="M424.585 85V71.9091H426.17V78.4034H426.324L432.205 71.9091H434.276L428.778 77.8153L434.276 85H432.358L427.807 78.9148L426.17 80.7557V85H424.585ZM441.695 80.9858V75.1818H443.204V85H441.695V83.3381H441.593C441.363 83.8366 441.005 84.2607 440.519 84.6101C440.033 84.9553 439.42 85.1278 438.678 85.1278C438.064 85.1278 437.519 84.9936 437.042 84.7251C436.564 84.4524 436.189 84.0433 435.917 83.4979C435.644 82.9482 435.508 82.2557 435.508 81.4205V75.1818H437.016V81.3182C437.016 82.0341 437.216 82.6051 437.617 83.0312C438.022 83.4574 438.537 83.6705 439.164 83.6705C439.539 83.6705 439.92 83.5746 440.308 83.3828C440.7 83.1911 441.028 82.897 441.292 82.5007C441.561 82.1044 441.695 81.5994 441.695 80.9858ZM446.171 85V71.9091H447.68V76.7415H447.808C447.918 76.571 448.072 76.3537 448.268 76.0895C448.468 75.821 448.754 75.5824 449.124 75.3736C449.499 75.1605 450.006 75.054 450.646 75.054C451.472 75.054 452.201 75.2607 452.832 75.674C453.462 76.0874 453.955 76.6733 454.308 77.4318C454.662 78.1903 454.839 79.0852 454.839 80.1165C454.839 81.1562 454.662 82.0575 454.308 82.8203C453.955 83.5788 453.464 84.1669 452.838 84.5845C452.212 84.9979 451.489 85.2045 450.671 85.2045C450.04 85.2045 449.536 85.1001 449.156 84.8913C448.777 84.6783 448.485 84.4375 448.281 84.169C448.076 83.8963 447.918 83.6705 447.808 83.4915H447.629V85H446.171ZM447.654 80.0909C447.654 80.8324 447.763 81.4865 447.98 82.0533C448.197 82.6158 448.515 83.0568 448.933 83.3764C449.35 83.6918 449.862 83.8494 450.467 83.8494C451.097 83.8494 451.624 83.6832 452.045 83.3509C452.472 83.0142 452.791 82.5625 453.004 81.9957C453.222 81.4247 453.33 80.7898 453.33 80.0909C453.33 79.4006 453.224 78.7784 453.011 78.2244C452.802 77.6662 452.484 77.2251 452.058 76.9013C451.636 76.5732 451.106 76.4091 450.467 76.4091C449.853 76.4091 449.337 76.5646 448.92 76.8757C448.502 77.1825 448.187 77.6129 447.974 78.1669C447.761 78.7166 447.654 79.358 447.654 80.0909ZM461.263 85.2045C460.317 85.2045 459.501 84.9957 458.815 84.5781C458.133 84.1562 457.607 83.5682 457.236 82.8139C456.869 82.0554 456.686 81.1733 456.686 80.1676C456.686 79.1619 456.869 78.2756 457.236 77.5085C457.607 76.7372 458.122 76.1364 458.783 75.706C459.447 75.2713 460.223 75.054 461.109 75.054C461.621 75.054 462.126 75.1392 462.624 75.3097C463.123 75.4801 463.577 75.7571 463.986 76.1406C464.395 76.5199 464.721 77.0227 464.964 77.6491C465.207 78.2756 465.328 79.0469 465.328 79.9631V80.6023H457.76V79.2983H463.794C463.794 78.7443 463.683 78.25 463.462 77.8153C463.244 77.3807 462.933 77.0376 462.528 76.7862C462.128 76.5348 461.655 76.4091 461.109 76.4091C460.509 76.4091 459.989 76.5582 459.55 76.8565C459.115 77.1506 458.781 77.5341 458.546 78.0071C458.312 78.4801 458.195 78.9872 458.195 79.5284V80.3977C458.195 81.1392 458.322 81.7678 458.578 82.2834C458.838 82.7947 459.198 83.1847 459.658 83.4531C460.119 83.7173 460.653 83.8494 461.263 83.8494C461.659 83.8494 462.017 83.794 462.337 83.6832C462.661 83.5682 462.94 83.3977 463.174 83.1719C463.408 82.9418 463.589 82.6562 463.717 82.3153L465.175 82.7244C465.021 83.2188 464.763 83.6534 464.401 84.0284C464.039 84.3991 463.592 84.6889 463.059 84.8977C462.526 85.1023 461.928 85.2045 461.263 85.2045ZM474.987 75.1818C474.91 74.5341 474.599 74.0312 474.053 73.6733C473.508 73.3153 472.839 73.1364 472.046 73.1364C471.467 73.1364 470.96 73.2301 470.525 73.4176C470.094 73.6051 469.758 73.8629 469.515 74.1911C469.276 74.5192 469.157 74.892 469.157 75.3097C469.157 75.6591 469.24 75.9595 469.406 76.2109C469.577 76.4581 469.794 76.6648 470.058 76.831C470.322 76.9929 470.599 77.1271 470.889 77.2337C471.179 77.3359 471.445 77.419 471.688 77.483L473.018 77.8409C473.359 77.9304 473.738 78.054 474.156 78.2116C474.577 78.3693 474.98 78.5845 475.364 78.8572C475.751 79.1257 476.071 79.4709 476.322 79.8928C476.574 80.3146 476.7 80.8324 476.7 81.446C476.7 82.1534 476.514 82.7926 476.143 83.3636C475.777 83.9347 475.24 84.3885 474.533 84.7251C473.83 85.0618 472.975 85.2301 471.969 85.2301C471.032 85.2301 470.22 85.0788 469.534 84.7763C468.852 84.4737 468.315 84.0518 467.923 83.5107C467.536 82.9695 467.316 82.3409 467.265 81.625H468.901C468.944 82.1193 469.11 82.5284 469.4 82.8523C469.694 83.1719 470.065 83.4105 470.512 83.5682C470.964 83.7216 471.45 83.7983 471.969 83.7983C472.575 83.7983 473.118 83.7003 473.599 83.5043C474.081 83.304 474.462 83.027 474.744 82.6733C475.025 82.3153 475.165 81.8977 475.165 81.4205C475.165 80.9858 475.044 80.6321 474.801 80.3594C474.558 80.0866 474.239 79.8651 473.842 79.6946C473.446 79.5241 473.018 79.375 472.558 79.2472L470.947 78.7869C469.924 78.4929 469.114 78.0732 468.518 77.5277C467.921 76.9822 467.623 76.2685 467.623 75.3864C467.623 74.6534 467.821 74.0142 468.217 73.4688C468.618 72.919 469.155 72.4929 469.828 72.1903C470.506 71.8835 471.262 71.7301 472.097 71.7301C472.941 71.7301 473.691 71.8814 474.347 72.1839C475.004 72.4822 475.523 72.8913 475.907 73.4112C476.295 73.9311 476.499 74.5213 476.521 75.1818H474.987ZM483.371 75.1818V76.4602H478.283V75.1818H483.371ZM479.766 72.8295H481.275V82.1875C481.275 82.6136 481.336 82.9332 481.46 83.1463C481.588 83.3551 481.75 83.4957 481.946 83.5682C482.146 83.6364 482.357 83.6705 482.579 83.6705C482.745 83.6705 482.881 83.6619 482.988 83.6449C483.094 83.6236 483.18 83.6065 483.243 83.5938L483.55 84.9489C483.448 84.9872 483.305 85.0256 483.122 85.0639C482.939 85.1065 482.706 85.1278 482.425 85.1278C481.999 85.1278 481.581 85.0362 481.172 84.853C480.768 84.6697 480.431 84.3906 480.162 84.0156C479.898 83.6406 479.766 83.1676 479.766 82.5966V72.8295ZM489.651 85.2045C488.705 85.2045 487.889 84.9957 487.203 84.5781C486.521 84.1562 485.995 83.5682 485.624 82.8139C485.258 82.0554 485.075 81.1733 485.075 80.1676C485.075 79.1619 485.258 78.2756 485.624 77.5085C485.995 76.7372 486.511 76.1364 487.171 75.706C487.836 75.2713 488.612 75.054 489.498 75.054C490.009 75.054 490.514 75.1392 491.013 75.3097C491.512 75.4801 491.965 75.7571 492.374 76.1406C492.784 76.5199 493.11 77.0227 493.352 77.6491C493.595 78.2756 493.717 79.0469 493.717 79.9631V80.6023H486.149V79.2983H492.183C492.183 78.7443 492.072 78.25 491.85 77.8153C491.633 77.3807 491.322 77.0376 490.917 76.7862C490.517 76.5348 490.044 76.4091 489.498 76.4091C488.897 76.4091 488.377 76.5582 487.938 76.8565C487.504 77.1506 487.169 77.5341 486.935 78.0071C486.7 78.4801 486.583 78.9872 486.583 79.5284V80.3977C486.583 81.1392 486.711 81.7678 486.967 82.2834C487.227 82.7947 487.587 83.1847 488.047 83.4531C488.507 83.7173 489.042 83.8494 489.651 83.8494C490.048 83.8494 490.406 83.794 490.725 83.6832C491.049 83.5682 491.328 83.3977 491.563 83.1719C491.797 82.9418 491.978 82.6562 492.106 82.3153L493.563 82.7244C493.41 83.2188 493.152 83.6534 492.79 84.0284C492.428 84.3991 491.98 84.6889 491.448 84.8977C490.915 85.1023 490.316 85.2045 489.651 85.2045ZM497.52 71.9091V85H496.012V71.9091H497.52ZM501.792 71.9091V85H500.283V71.9091H501.792ZM507.444 85.2301C506.822 85.2301 506.257 85.1129 505.75 84.8786C505.243 84.6399 504.84 84.2969 504.542 83.8494C504.243 83.3977 504.094 82.8523 504.094 82.2131C504.094 81.6506 504.205 81.1946 504.427 80.8452C504.648 80.4915 504.944 80.2145 505.315 80.0142C505.686 79.8139 506.095 79.6648 506.542 79.5668C506.994 79.4645 507.448 79.3835 507.904 79.3239C508.501 79.2472 508.984 79.1896 509.355 79.1513C509.73 79.1087 510.003 79.0384 510.173 78.9403C510.348 78.8423 510.435 78.6719 510.435 78.429V78.3778C510.435 77.7472 510.263 77.2571 509.917 76.9077C509.577 76.5582 509.059 76.3835 508.364 76.3835C507.644 76.3835 507.079 76.5412 506.67 76.8565C506.261 77.1719 505.974 77.5085 505.807 77.8665L504.376 77.3551C504.631 76.7585 504.972 76.294 505.398 75.9616C505.829 75.625 506.297 75.3906 506.805 75.2585C507.316 75.1222 507.819 75.054 508.313 75.054C508.628 75.054 508.991 75.0923 509.4 75.169C509.813 75.2415 510.211 75.3928 510.595 75.6229C510.983 75.853 511.305 76.2003 511.56 76.6648C511.816 77.1293 511.944 77.7514 511.944 78.5312V85H510.435V83.6705H510.358C510.256 83.8835 510.086 84.1115 509.847 84.3544C509.608 84.5973 509.291 84.804 508.895 84.9744C508.498 85.1449 508.015 85.2301 507.444 85.2301ZM507.674 83.875C508.27 83.875 508.773 83.7578 509.182 83.5234C509.596 83.2891 509.907 82.9865 510.116 82.6158C510.329 82.245 510.435 81.8551 510.435 81.446V80.0653C510.371 80.142 510.231 80.2124 510.013 80.2763C509.8 80.3359 509.553 80.3892 509.272 80.4361C508.995 80.4787 508.724 80.517 508.46 80.5511C508.2 80.581 507.989 80.6065 507.827 80.6278C507.435 80.679 507.069 80.7621 506.728 80.8771C506.391 80.9879 506.118 81.1562 505.91 81.3821C505.705 81.6037 505.603 81.9062 505.603 82.2898C505.603 82.8139 505.797 83.2102 506.184 83.4787C506.577 83.7429 507.073 83.875 507.674 83.875ZM514.697 85V75.1818H516.154V76.6648H516.257C516.436 76.179 516.76 75.7848 517.228 75.4822C517.697 75.1797 518.225 75.0284 518.814 75.0284C518.924 75.0284 519.063 75.0305 519.229 75.0348C519.395 75.0391 519.521 75.0455 519.606 75.054V76.5881C519.555 76.5753 519.438 76.5561 519.255 76.5305C519.076 76.5007 518.886 76.4858 518.686 76.4858C518.208 76.4858 517.782 76.5859 517.407 76.7862C517.037 76.9822 516.743 77.255 516.525 77.6044C516.312 77.9496 516.206 78.3437 516.206 78.7869V85H514.697ZM537.195 76H535.61C535.517 75.544 535.352 75.1435 535.118 74.7983C534.888 74.4531 534.607 74.1634 534.274 73.929C533.946 73.6903 533.582 73.5114 533.181 73.392C532.781 73.2727 532.363 73.2131 531.928 73.2131C531.136 73.2131 530.418 73.4134 529.774 73.8139C529.135 74.2145 528.626 74.8047 528.247 75.5845C527.872 76.3643 527.684 77.321 527.684 78.4545C527.684 79.5881 527.872 80.5447 528.247 81.3246C528.626 82.1044 529.135 82.6946 529.774 83.0952C530.418 83.4957 531.136 83.696 531.928 83.696C532.363 83.696 532.781 83.6364 533.181 83.517C533.582 83.3977 533.946 83.2209 534.274 82.9865C534.607 82.7479 534.888 82.456 535.118 82.1108C535.352 81.7614 535.517 81.3608 535.61 80.9091H537.195C537.076 81.5781 536.859 82.1768 536.544 82.7053C536.228 83.2337 535.836 83.6832 535.367 84.054C534.899 84.4205 534.372 84.6996 533.789 84.8913C533.209 85.0831 532.589 85.179 531.928 85.179C530.812 85.179 529.819 84.9062 528.95 84.3608C528.08 83.8153 527.396 83.0398 526.898 82.0341C526.399 81.0284 526.15 79.8352 526.15 78.4545C526.15 77.0739 526.399 75.8807 526.898 74.875C527.396 73.8693 528.08 73.0938 528.95 72.5483C529.819 72.0028 530.812 71.7301 531.928 71.7301C532.589 71.7301 533.209 71.826 533.789 72.0178C534.372 72.2095 534.899 72.4908 535.367 72.8615C535.836 73.228 536.228 73.6754 536.544 74.2038C536.859 74.728 537.076 75.3267 537.195 76ZM543.541 85.2045C542.655 85.2045 541.877 84.9936 541.208 84.5717C540.543 84.1499 540.023 83.5597 539.648 82.8011C539.278 82.0426 539.092 81.1562 539.092 80.142C539.092 79.1193 539.278 78.2266 539.648 77.4638C540.023 76.701 540.543 76.1087 541.208 75.6868C541.877 75.2649 542.655 75.054 543.541 75.054C544.428 75.054 545.203 75.2649 545.868 75.6868C546.537 76.1087 547.057 76.701 547.428 77.4638C547.803 78.2266 547.99 79.1193 547.99 80.142C547.99 81.1562 547.803 82.0426 547.428 82.8011C547.057 83.5597 546.537 84.1499 545.868 84.5717C545.203 84.9936 544.428 85.2045 543.541 85.2045ZM543.541 83.8494C544.214 83.8494 544.768 83.6768 545.203 83.3317C545.638 82.9865 545.96 82.5327 546.168 81.9702C546.377 81.4077 546.482 80.7983 546.482 80.142C546.482 79.4858 546.377 78.8743 546.168 78.3075C545.96 77.7408 545.638 77.2827 545.203 76.9332C544.768 76.5838 544.214 76.4091 543.541 76.4091C542.868 76.4091 542.314 76.5838 541.879 76.9332C541.445 77.2827 541.123 77.7408 540.914 78.3075C540.705 78.8743 540.601 79.4858 540.601 80.142C540.601 80.7983 540.705 81.4077 540.914 81.9702C541.123 82.5327 541.445 82.9865 541.879 83.3317C542.314 83.6768 542.868 83.8494 543.541 83.8494ZM551.801 79.0938V85H550.293V75.1818H551.75V76.7159H551.878C552.108 76.2173 552.458 75.8168 552.926 75.5142C553.395 75.2074 554 75.054 554.742 75.054C555.406 75.054 555.988 75.1903 556.487 75.4631C556.985 75.7315 557.373 76.1406 557.65 76.6903C557.927 77.2358 558.066 77.9261 558.066 78.7614V85H556.557V78.8636C556.557 78.0923 556.357 77.4915 555.956 77.0611C555.556 76.6264 555.006 76.4091 554.307 76.4091C553.825 76.4091 553.395 76.5135 553.016 76.7223C552.641 76.9311 552.345 77.2358 552.127 77.6364C551.91 78.0369 551.801 78.5227 551.801 79.0938ZM567.777 77.3807L566.422 77.7642C566.336 77.5384 566.211 77.3189 566.044 77.1058C565.882 76.8885 565.661 76.7095 565.38 76.5689C565.098 76.4283 564.738 76.358 564.299 76.358C563.699 76.358 563.198 76.4964 562.797 76.7734C562.401 77.0462 562.203 77.3935 562.203 77.8153C562.203 78.1903 562.339 78.4865 562.612 78.7038C562.885 78.9212 563.311 79.1023 563.89 79.2472L565.348 79.6051C566.225 79.8182 566.88 80.1442 567.31 80.5831C567.74 81.0178 567.956 81.5781 567.956 82.2642C567.956 82.8267 567.794 83.3295 567.47 83.7727C567.15 84.2159 566.703 84.5653 566.127 84.821C565.552 85.0767 564.883 85.2045 564.12 85.2045C563.119 85.2045 562.29 84.9872 561.634 84.5526C560.978 84.1179 560.562 83.483 560.387 82.6477L561.819 82.2898C561.956 82.8182 562.213 83.2145 562.593 83.4787C562.976 83.7429 563.477 83.875 564.095 83.875C564.798 83.875 565.356 83.7259 565.77 83.4276C566.187 83.125 566.396 82.7628 566.396 82.3409C566.396 82 566.277 81.7145 566.038 81.4844C565.799 81.25 565.433 81.0753 564.939 80.9602L563.302 80.5767C562.403 80.3636 561.743 80.0334 561.321 79.5859C560.903 79.1342 560.694 78.5696 560.694 77.892C560.694 77.3381 560.85 76.848 561.161 76.4219C561.476 75.9957 561.904 75.6612 562.446 75.4183C562.991 75.1754 563.609 75.054 564.299 75.054C565.271 75.054 566.034 75.267 566.588 75.6932C567.146 76.1193 567.542 76.6818 567.777 77.3807ZM574.215 85.2045C573.329 85.2045 572.551 84.9936 571.882 84.5717C571.217 84.1499 570.697 83.5597 570.322 82.8011C569.952 82.0426 569.766 81.1562 569.766 80.142C569.766 79.1193 569.952 78.2266 570.322 77.4638C570.697 76.701 571.217 76.1087 571.882 75.6868C572.551 75.2649 573.329 75.054 574.215 75.054C575.101 75.054 575.877 75.2649 576.542 75.6868C577.211 76.1087 577.731 76.701 578.101 77.4638C578.476 78.2266 578.664 79.1193 578.664 80.142C578.664 81.1562 578.476 82.0426 578.101 82.8011C577.731 83.5597 577.211 84.1499 576.542 84.5717C575.877 84.9936 575.101 85.2045 574.215 85.2045ZM574.215 83.8494C574.888 83.8494 575.442 83.6768 575.877 83.3317C576.312 82.9865 576.633 82.5327 576.842 81.9702C577.051 81.4077 577.155 80.7983 577.155 80.142C577.155 79.4858 577.051 78.8743 576.842 78.3075C576.633 77.7408 576.312 77.2827 575.877 76.9332C575.442 76.5838 574.888 76.4091 574.215 76.4091C573.542 76.4091 572.988 76.5838 572.553 76.9332C572.118 77.2827 571.797 77.7408 571.588 78.3075C571.379 78.8743 571.275 79.4858 571.275 80.142C571.275 80.7983 571.379 81.4077 571.588 81.9702C571.797 82.5327 572.118 82.9865 572.553 83.3317C572.988 83.6768 573.542 83.8494 574.215 83.8494ZM582.475 71.9091V85H580.967V71.9091H582.475ZM589.355 85.2045C588.409 85.2045 587.593 84.9957 586.906 84.5781C586.225 84.1562 585.698 83.5682 585.328 82.8139C584.961 82.0554 584.778 81.1733 584.778 80.1676C584.778 79.1619 584.961 78.2756 585.328 77.5085C585.698 76.7372 586.214 76.1364 586.874 75.706C587.539 75.2713 588.315 75.054 589.201 75.054C589.713 75.054 590.218 75.1392 590.716 75.3097C591.215 75.4801 591.669 75.7571 592.078 76.1406C592.487 76.5199 592.813 77.0227 593.056 77.6491C593.298 78.2756 593.42 79.0469 593.42 79.9631V80.6023H585.852V79.2983H591.886C591.886 78.7443 591.775 78.25 591.553 77.8153C591.336 77.3807 591.025 77.0376 590.62 76.7862C590.22 76.5348 589.747 76.4091 589.201 76.4091C588.6 76.4091 588.08 76.5582 587.642 76.8565C587.207 77.1506 586.872 77.5341 586.638 78.0071C586.404 78.4801 586.286 78.9872 586.286 79.5284V80.3977C586.286 81.1392 586.414 81.7678 586.67 82.2834C586.93 82.7947 587.29 83.1847 587.75 83.4531C588.21 83.7173 588.745 83.8494 589.355 83.8494C589.751 83.8494 590.109 83.794 590.428 83.6832C590.752 83.5682 591.031 83.3977 591.266 83.1719C591.5 82.9418 591.681 82.6562 591.809 82.3153L593.267 82.7244C593.113 83.2188 592.855 83.6534 592.493 84.0284C592.131 84.3991 591.683 84.6889 591.151 84.8977C590.618 85.1023 590.019 85.2045 589.355 85.2045ZM601.314 79.4773C601.314 77.8665 601.523 76.3857 601.941 75.0348C602.362 73.6797 602.963 72.4332 603.743 71.2955H605.073C604.766 71.7173 604.478 72.2372 604.21 72.8551C603.945 73.4687 603.713 74.1442 603.513 74.8814C603.313 75.6143 603.155 76.3729 603.04 77.157C602.929 77.9411 602.874 78.7145 602.874 79.4773C602.874 80.4915 602.972 81.5206 603.168 82.5646C603.364 83.6087 603.628 84.5781 603.96 85.473C604.293 86.3679 604.664 87.0966 605.073 87.6591H603.743C602.963 86.5213 602.362 85.277 601.941 83.9261C601.523 82.571 601.314 81.0881 601.314 79.4773ZM608.705 81.4205L608.679 79.554H608.986L613.282 75.1818H615.148L610.571 79.8097H610.444L608.705 81.4205ZM607.299 85V71.9091H608.807V85H607.299ZM613.537 85L609.702 80.142L610.776 79.0938L615.455 85H613.537ZM620.674 85.2045C619.754 85.2045 618.961 84.9872 618.296 84.5526C617.631 84.1179 617.12 83.5192 616.762 82.7564C616.404 81.9936 616.225 81.1222 616.225 80.142C616.225 79.1449 616.408 78.2649 616.775 77.5021C617.146 76.7351 617.661 76.1364 618.322 75.706C618.987 75.2713 619.762 75.054 620.648 75.054C621.339 75.054 621.961 75.1818 622.515 75.4375C623.069 75.6932 623.523 76.0511 623.876 76.5114C624.23 76.9716 624.45 77.5085 624.535 78.1222H623.026C622.911 77.6747 622.656 77.2784 622.259 76.9332C621.867 76.5838 621.339 76.4091 620.674 76.4091C620.086 76.4091 619.57 76.5625 619.127 76.8693C618.688 77.1719 618.345 77.6001 618.098 78.1541C617.855 78.7038 617.734 79.3494 617.734 80.0909C617.734 80.8494 617.853 81.5099 618.092 82.0724C618.335 82.6349 618.675 83.0717 619.114 83.3828C619.558 83.6939 620.077 83.8494 620.674 83.8494C621.066 83.8494 621.422 83.7812 621.741 83.6449C622.061 83.5085 622.332 83.3125 622.553 83.0568C622.775 82.8011 622.933 82.4943 623.026 82.1364H624.535C624.45 82.7159 624.239 83.2379 623.902 83.7024C623.57 84.1626 623.129 84.5291 622.579 84.8018C622.033 85.0703 621.398 85.2045 620.674 85.2045ZM629.962 79.4773C629.962 81.0881 629.751 82.571 629.329 83.9261C628.911 85.277 628.313 86.5213 627.533 87.6591H626.203C626.51 87.2372 626.795 86.7173 627.06 86.0994C627.328 85.4858 627.563 84.8125 627.763 84.0795C627.963 83.3423 628.119 82.5817 628.229 81.7976C628.344 81.0092 628.402 80.2358 628.402 79.4773C628.402 78.4631 628.304 77.4339 628.108 76.3899C627.912 75.3459 627.648 74.3764 627.315 73.4815C626.983 72.5866 626.612 71.858 626.203 71.2955H627.533C628.313 72.4332 628.911 73.6797 629.329 75.0348C629.751 76.3857 629.962 77.8665 629.962 79.4773Z" fill="black"/>
<rect x="41.5" y="105.5" width="165" height="118" stroke="black"/>
<rect x="463.5" y="105.5" width="165" height="118" stroke="black"/>
<rect x="669.5" y="105.5" width="165" height="118" stroke="black"/>
<rect x="257.5" y="105.5" width="165" height="118" stroke="black"/>
<path d="M84.0994 138.5H82.7784C82.7003 138.12 82.5636 137.786 82.3683 137.499C82.1765 137.211 81.9421 136.969 81.6651 136.774C81.3917 136.575 81.0881 136.426 80.7543 136.327C80.4205 136.227 80.0724 136.178 79.7102 136.178C79.0497 136.178 78.4513 136.344 77.9151 136.678C77.3825 137.012 76.9581 137.504 76.642 138.154C76.3295 138.804 76.1733 139.601 76.1733 140.545C76.1733 141.49 76.3295 142.287 76.642 142.937C76.9581 143.587 77.3825 144.079 77.9151 144.413C78.4513 144.746 79.0497 144.913 79.7102 144.913C80.0724 144.913 80.4205 144.864 80.7543 144.764C81.0881 144.665 81.3917 144.517 81.6651 144.322C81.9421 144.123 82.1765 143.88 82.3683 143.592C82.5636 143.301 82.7003 142.967 82.7784 142.591H84.0994C84 143.148 83.8189 143.647 83.5561 144.088C83.2933 144.528 82.9666 144.903 82.576 145.212C82.1854 145.517 81.7468 145.75 81.2603 145.909C80.7773 146.069 80.2607 146.149 79.7102 146.149C78.7798 146.149 77.9524 145.922 77.228 145.467C76.5036 145.013 75.9336 144.366 75.5181 143.528C75.1026 142.69 74.8949 141.696 74.8949 140.545C74.8949 139.395 75.1026 138.401 75.5181 137.562C75.9336 136.724 76.5036 136.078 77.228 135.624C77.9524 135.169 78.7798 134.942 79.7102 134.942C80.2607 134.942 80.7773 135.022 81.2603 135.181C81.7468 135.341 82.1854 135.576 82.576 135.885C82.9666 136.19 83.2933 136.563 83.5561 137.003C83.8189 137.44 84 137.939 84.0994 138.5ZM87.3208 135.091V146H86.0637V135.091H87.3208ZM94.7795 142.655V137.818H96.0366V146H94.7795V144.615H94.6942C94.5025 145.031 94.2042 145.384 93.7994 145.675C93.3945 145.963 92.8832 146.107 92.2653 146.107C91.7539 146.107 91.2994 145.995 90.9016 145.771C90.5039 145.544 90.1914 145.203 89.9641 144.748C89.7369 144.29 89.6232 143.713 89.6232 143.017V137.818H90.8803V142.932C90.8803 143.528 91.0472 144.004 91.381 144.359C91.7184 144.714 92.1481 144.892 92.6701 144.892C92.9826 144.892 93.3004 144.812 93.6236 144.652C93.9503 144.493 94.2237 144.248 94.4439 143.917C94.6676 143.587 94.7795 143.166 94.7795 142.655ZM104.134 139.651L103.005 139.97C102.934 139.782 102.829 139.599 102.691 139.422C102.556 139.24 102.371 139.091 102.137 138.974C101.903 138.857 101.603 138.798 101.237 138.798C100.736 138.798 100.319 138.914 99.985 139.145C99.6547 139.372 99.4896 139.661 99.4896 140.013C99.4896 140.325 99.6032 140.572 99.8305 140.753C100.058 140.934 100.413 141.085 100.896 141.206L102.11 141.504C102.842 141.682 103.387 141.953 103.746 142.319C104.104 142.681 104.284 143.148 104.284 143.72C104.284 144.189 104.149 144.608 103.879 144.977C103.612 145.347 103.24 145.638 102.76 145.851C102.281 146.064 101.723 146.17 101.088 146.17C100.253 146.17 99.5624 145.989 99.0155 145.627C98.4687 145.265 98.1224 144.736 97.9768 144.04L99.17 143.741C99.2836 144.182 99.4985 144.512 99.8145 144.732C100.134 144.952 100.551 145.062 101.066 145.062C101.652 145.062 102.117 144.938 102.462 144.69C102.81 144.437 102.984 144.136 102.984 143.784C102.984 143.5 102.884 143.262 102.686 143.07C102.487 142.875 102.181 142.729 101.769 142.634L100.406 142.314C99.6565 142.136 99.1061 141.861 98.7545 141.488C98.4065 141.112 98.2325 140.641 98.2325 140.077C98.2325 139.615 98.3621 139.207 98.6214 138.852C98.8841 138.496 99.241 138.218 99.692 138.015C100.147 137.813 100.661 137.712 101.237 137.712C102.046 137.712 102.682 137.889 103.144 138.244C103.609 138.599 103.939 139.068 104.134 139.651ZM109.734 137.818V138.884H105.494V137.818H109.734ZM106.73 135.858H107.987V143.656C107.987 144.011 108.039 144.278 108.142 144.455C108.248 144.629 108.383 144.746 108.546 144.807C108.713 144.864 108.889 144.892 109.074 144.892C109.212 144.892 109.326 144.885 109.415 144.871C109.503 144.853 109.574 144.839 109.628 144.828L109.883 145.957C109.798 145.989 109.679 146.021 109.526 146.053C109.374 146.089 109.18 146.107 108.946 146.107C108.591 146.107 108.243 146.03 107.902 145.877C107.564 145.725 107.284 145.492 107.06 145.18C106.84 144.867 106.73 144.473 106.73 143.997V135.858ZM114.968 146.17C114.179 146.17 113.499 145.996 112.928 145.648C112.359 145.297 111.921 144.807 111.612 144.178C111.306 143.546 111.154 142.811 111.154 141.973C111.154 141.135 111.306 140.396 111.612 139.757C111.921 139.114 112.35 138.614 112.901 138.255C113.455 137.893 114.101 137.712 114.84 137.712C115.266 137.712 115.687 137.783 116.102 137.925C116.518 138.067 116.896 138.298 117.237 138.617C117.578 138.933 117.849 139.352 118.052 139.874C118.254 140.396 118.355 141.039 118.355 141.803V142.335H112.049V141.249H117.077C117.077 140.787 116.985 140.375 116.8 140.013C116.619 139.651 116.36 139.365 116.022 139.155C115.689 138.946 115.294 138.841 114.84 138.841C114.339 138.841 113.906 138.965 113.54 139.214C113.178 139.459 112.899 139.778 112.704 140.173C112.509 140.567 112.411 140.989 112.411 141.44V142.165C112.411 142.783 112.517 143.306 112.73 143.736C112.947 144.162 113.247 144.487 113.631 144.711C114.014 144.931 114.46 145.041 114.968 145.041C115.298 145.041 115.596 144.995 115.863 144.903C116.132 144.807 116.365 144.665 116.56 144.477C116.756 144.285 116.907 144.047 117.013 143.763L118.228 144.104C118.1 144.516 117.885 144.878 117.583 145.19C117.281 145.499 116.908 145.741 116.464 145.915C116.021 146.085 115.522 146.17 114.968 146.17ZM120.268 146V137.818H121.482V139.054H121.567C121.717 138.649 121.987 138.321 122.377 138.069C122.768 137.816 123.208 137.69 123.698 137.69C123.79 137.69 123.906 137.692 124.044 137.696C124.183 137.699 124.288 137.705 124.359 137.712V138.99C124.316 138.979 124.218 138.963 124.066 138.942C123.917 138.917 123.759 138.905 123.592 138.905C123.194 138.905 122.839 138.988 122.526 139.155C122.217 139.319 121.972 139.546 121.791 139.837C121.614 140.125 121.525 140.453 121.525 140.822V146H120.268ZM130.238 146V135.091H131.559V139.949H137.376V135.091H138.697V146H137.376V141.121H131.559V146H130.238ZM144.601 146.17C143.813 146.17 143.133 145.996 142.561 145.648C141.993 145.297 141.555 144.807 141.246 144.178C140.94 143.546 140.788 142.811 140.788 141.973C140.788 141.135 140.94 140.396 141.246 139.757C141.555 139.114 141.984 138.614 142.535 138.255C143.089 137.893 143.735 137.712 144.474 137.712C144.9 137.712 145.321 137.783 145.736 137.925C146.152 138.067 146.53 138.298 146.871 138.617C147.212 138.933 147.483 139.352 147.686 139.874C147.888 140.396 147.989 141.039 147.989 141.803V142.335H141.682V141.249H146.711C146.711 140.787 146.619 140.375 146.434 140.013C146.253 139.651 145.994 139.365 145.656 139.155C145.322 138.946 144.928 138.841 144.474 138.841C143.973 138.841 143.54 138.965 143.174 139.214C142.812 139.459 142.533 139.778 142.338 140.173C142.142 140.567 142.045 140.989 142.045 141.44V142.165C142.045 142.783 142.151 143.306 142.364 143.736C142.581 144.162 142.881 144.487 143.264 144.711C143.648 144.931 144.094 145.041 144.601 145.041C144.932 145.041 145.23 144.995 145.496 144.903C145.766 144.807 145.999 144.665 146.194 144.477C146.389 144.285 146.54 144.047 146.647 143.763L147.861 144.104C147.734 144.516 147.519 144.878 147.217 145.19C146.915 145.499 146.542 145.741 146.098 145.915C145.654 146.085 145.155 146.17 144.601 146.17ZM152.309 146.192C151.791 146.192 151.32 146.094 150.898 145.899C150.475 145.7 150.139 145.414 149.891 145.041C149.642 144.665 149.518 144.21 149.518 143.678C149.518 143.209 149.61 142.829 149.795 142.538C149.98 142.243 150.226 142.012 150.535 141.845C150.844 141.678 151.185 141.554 151.558 141.472C151.935 141.387 152.313 141.32 152.693 141.27C153.19 141.206 153.593 141.158 153.902 141.126C154.214 141.091 154.442 141.032 154.584 140.95C154.729 140.869 154.802 140.727 154.802 140.524V140.482C154.802 139.956 154.658 139.548 154.371 139.256C154.087 138.965 153.655 138.82 153.076 138.82C152.476 138.82 152.006 138.951 151.665 139.214C151.324 139.477 151.084 139.757 150.946 140.055L149.752 139.629C149.965 139.132 150.25 138.745 150.605 138.468C150.963 138.187 151.354 137.992 151.777 137.882C152.203 137.768 152.622 137.712 153.034 137.712C153.296 137.712 153.598 137.744 153.939 137.808C154.284 137.868 154.616 137.994 154.935 138.186C155.258 138.377 155.527 138.667 155.74 139.054C155.953 139.441 156.059 139.96 156.059 140.609V146H154.802V144.892H154.738C154.653 145.07 154.511 145.26 154.312 145.462C154.113 145.664 153.849 145.837 153.518 145.979C153.188 146.121 152.785 146.192 152.309 146.192ZM152.501 145.062C152.998 145.062 153.417 144.965 153.758 144.77C154.103 144.574 154.362 144.322 154.536 144.013C154.713 143.704 154.802 143.379 154.802 143.038V141.888C154.749 141.952 154.632 142.01 154.451 142.064C154.273 142.113 154.067 142.158 153.833 142.197C153.602 142.232 153.376 142.264 153.156 142.293C152.94 142.317 152.764 142.339 152.629 142.357C152.302 142.399 151.997 142.468 151.713 142.564C151.432 142.657 151.205 142.797 151.031 142.985C150.86 143.17 150.775 143.422 150.775 143.741C150.775 144.178 150.937 144.509 151.26 144.732C151.587 144.952 152 145.062 152.501 145.062ZM159.611 135.091V146H158.354V135.091H159.611ZM165.472 137.818V138.884H161.231V137.818H165.472ZM162.467 135.858H163.724V143.656C163.724 144.011 163.776 144.278 163.879 144.455C163.985 144.629 164.12 144.746 164.284 144.807C164.451 144.864 164.626 144.892 164.811 144.892C164.949 144.892 165.063 144.885 165.152 144.871C165.241 144.853 165.312 144.839 165.365 144.828L165.621 145.957C165.535 145.989 165.416 146.021 165.264 146.053C165.111 146.089 164.918 146.107 164.683 146.107C164.328 146.107 163.98 146.03 163.639 145.877C163.302 145.725 163.021 145.492 162.797 145.18C162.577 144.867 162.467 144.473 162.467 143.997V135.858ZM168.795 141.078V146H167.538V135.091H168.795V139.097H168.902C169.094 138.674 169.381 138.338 169.765 138.09C170.152 137.838 170.667 137.712 171.31 137.712C171.867 137.712 172.355 137.824 172.774 138.047C173.193 138.267 173.518 138.607 173.749 139.065C173.984 139.519 174.101 140.098 174.101 140.801V146H172.844V140.886C172.844 140.237 172.675 139.734 172.338 139.379C172.004 139.02 171.54 138.841 170.947 138.841C170.535 138.841 170.166 138.928 169.839 139.102C169.516 139.276 169.261 139.53 169.072 139.864C168.888 140.197 168.795 140.602 168.795 141.078Z" fill="black"/>
<path d="M496.321 151V140.091H502.905V141.263H497.642V144.949H502.564V146.121H497.642V149.828H502.99V151H496.321ZM511.806 142.818L508.78 151H507.502L504.476 142.818H505.84L508.098 149.338H508.184L510.442 142.818H511.806ZM516.602 151.17C515.814 151.17 515.134 150.996 514.562 150.648C513.994 150.297 513.556 149.807 513.247 149.178C512.941 148.546 512.789 147.811 512.789 146.973C512.789 146.135 512.941 145.396 513.247 144.757C513.556 144.114 513.985 143.614 514.536 143.255C515.09 142.893 515.736 142.712 516.475 142.712C516.901 142.712 517.322 142.783 517.737 142.925C518.153 143.067 518.531 143.298 518.872 143.617C519.213 143.933 519.484 144.352 519.687 144.874C519.889 145.396 519.99 146.039 519.99 146.803V147.335H513.683V146.249H518.712C518.712 145.787 518.619 145.375 518.435 145.013C518.254 144.651 517.994 144.365 517.657 144.155C517.323 143.946 516.929 143.841 516.475 143.841C515.974 143.841 515.541 143.965 515.175 144.214C514.813 144.459 514.534 144.778 514.339 145.173C514.143 145.567 514.046 145.989 514.046 146.44V147.165C514.046 147.783 514.152 148.306 514.365 148.736C514.582 149.162 514.882 149.487 515.265 149.711C515.649 149.931 516.095 150.041 516.602 150.041C516.933 150.041 517.231 149.995 517.497 149.903C517.767 149.807 518 149.665 518.195 149.477C518.39 149.285 518.541 149.047 518.648 148.763L519.862 149.104C519.735 149.516 519.52 149.878 519.218 150.19C518.916 150.499 518.543 150.741 518.099 150.915C517.655 151.085 517.156 151.17 516.602 151.17ZM523.16 146.078V151H521.903V142.818H523.117V144.097H523.224C523.415 143.681 523.706 143.347 524.097 143.095C524.488 142.839 524.992 142.712 525.61 142.712C526.164 142.712 526.649 142.825 527.064 143.053C527.48 143.276 527.803 143.617 528.034 144.075C528.264 144.53 528.38 145.105 528.38 145.801V151H527.123V145.886C527.123 145.244 526.956 144.743 526.622 144.384C526.288 144.022 525.83 143.841 525.248 143.841C524.846 143.841 524.488 143.928 524.172 144.102C523.859 144.276 523.612 144.53 523.431 144.864C523.25 145.197 523.16 145.602 523.16 146.078ZM534.235 142.818V143.884H529.995V142.818H534.235ZM531.231 140.858H532.488V148.656C532.488 149.011 532.54 149.278 532.642 149.455C532.749 149.629 532.884 149.746 533.047 149.807C533.214 149.864 533.39 149.892 533.575 149.892C533.713 149.892 533.827 149.885 533.916 149.871C534.004 149.853 534.075 149.839 534.129 149.828L534.384 150.957C534.299 150.989 534.18 151.021 534.027 151.053C533.875 151.089 533.681 151.107 533.447 151.107C533.092 151.107 532.744 151.03 532.403 150.877C532.065 150.725 531.785 150.492 531.561 150.18C531.341 149.867 531.231 149.473 531.231 148.997V140.858ZM546.481 142.818C546.417 142.278 546.158 141.859 545.704 141.561C545.249 141.263 544.691 141.114 544.031 141.114C543.548 141.114 543.125 141.192 542.763 141.348C542.405 141.504 542.124 141.719 541.922 141.993C541.723 142.266 541.623 142.577 541.623 142.925C541.623 143.216 541.693 143.466 541.831 143.676C541.973 143.882 542.154 144.054 542.374 144.192C542.595 144.327 542.825 144.439 543.067 144.528C543.308 144.613 543.53 144.683 543.733 144.736L544.841 145.034C545.125 145.109 545.441 145.212 545.789 145.343C546.14 145.474 546.476 145.654 546.796 145.881C547.119 146.105 547.385 146.392 547.595 146.744C547.804 147.096 547.909 147.527 547.909 148.038C547.909 148.628 547.754 149.161 547.445 149.636C547.14 150.112 546.693 150.49 546.103 150.771C545.517 151.051 544.805 151.192 543.967 151.192C543.186 151.192 542.509 151.066 541.938 150.814C541.369 150.561 540.922 150.21 540.595 149.759C540.272 149.308 540.089 148.784 540.047 148.188H541.41C541.446 148.599 541.584 148.94 541.826 149.21C542.071 149.477 542.38 149.675 542.753 149.807C543.129 149.935 543.534 149.999 543.967 149.999C544.471 149.999 544.924 149.917 545.325 149.754C545.727 149.587 546.044 149.356 546.279 149.061C546.513 148.763 546.63 148.415 546.63 148.017C546.63 147.655 546.529 147.36 546.327 147.133C546.124 146.906 545.858 146.721 545.528 146.579C545.198 146.437 544.841 146.312 544.457 146.206L543.115 145.822C542.263 145.577 541.588 145.228 541.091 144.773C540.593 144.319 540.345 143.724 540.345 142.989C540.345 142.378 540.51 141.845 540.84 141.391C541.174 140.933 541.622 140.577 542.183 140.325C542.747 140.07 543.378 139.942 544.074 139.942C544.777 139.942 545.402 140.068 545.949 140.32C546.495 140.569 546.929 140.909 547.248 141.343C547.571 141.776 547.742 142.268 547.76 142.818H546.481ZM553.469 142.818V143.884H549.229V142.818H553.469ZM550.464 140.858H551.721V148.656C551.721 149.011 551.773 149.278 551.876 149.455C551.982 149.629 552.117 149.746 552.281 149.807C552.448 149.864 552.623 149.892 552.808 149.892C552.947 149.892 553.06 149.885 553.149 149.871C553.238 149.853 553.309 149.839 553.362 149.828L553.618 150.957C553.532 150.989 553.414 151.021 553.261 151.053C553.108 151.089 552.915 151.107 552.68 151.107C552.325 151.107 551.977 151.03 551.636 150.877C551.299 150.725 551.018 150.492 550.795 150.18C550.574 149.867 550.464 149.473 550.464 148.997V140.858ZM555.36 151V142.818H556.574V144.054H556.659C556.808 143.649 557.078 143.321 557.469 143.069C557.86 142.816 558.3 142.69 558.79 142.69C558.882 142.69 558.998 142.692 559.136 142.696C559.275 142.699 559.379 142.705 559.45 142.712V143.99C559.408 143.979 559.31 143.963 559.157 143.942C559.008 143.917 558.85 143.905 558.683 143.905C558.286 143.905 557.931 143.988 557.618 144.155C557.309 144.319 557.064 144.546 556.883 144.837C556.705 145.125 556.617 145.453 556.617 145.822V151H555.36ZM564.122 151.17C563.334 151.17 562.654 150.996 562.082 150.648C561.514 150.297 561.075 149.807 560.766 149.178C560.461 148.546 560.308 147.811 560.308 146.973C560.308 146.135 560.461 145.396 560.766 144.757C561.075 144.114 561.505 143.614 562.055 143.255C562.609 142.893 563.256 142.712 563.994 142.712C564.42 142.712 564.841 142.783 565.257 142.925C565.672 143.067 566.05 143.298 566.391 143.617C566.732 143.933 567.004 144.352 567.206 144.874C567.409 145.396 567.51 146.039 567.51 146.803V147.335H561.203V146.249H566.231C566.231 145.787 566.139 145.375 565.954 145.013C565.773 144.651 565.514 144.365 565.177 144.155C564.843 143.946 564.449 143.841 563.994 143.841C563.493 143.841 563.06 143.965 562.694 144.214C562.332 144.459 562.053 144.778 561.858 145.173C561.663 145.567 561.565 145.989 561.565 146.44V147.165C561.565 147.783 561.672 148.306 561.885 148.736C562.101 149.162 562.401 149.487 562.785 149.711C563.169 149.931 563.614 150.041 564.122 150.041C564.452 150.041 564.751 149.995 565.017 149.903C565.287 149.807 565.519 149.665 565.715 149.477C565.91 149.285 566.061 149.047 566.167 148.763L567.382 149.104C567.254 149.516 567.039 149.878 566.737 150.19C566.436 150.499 566.063 150.741 565.619 150.915C565.175 151.085 564.676 151.17 564.122 151.17ZM571.83 151.192C571.311 151.192 570.841 151.094 570.418 150.899C569.996 150.7 569.66 150.414 569.411 150.041C569.163 149.665 569.039 149.21 569.039 148.678C569.039 148.209 569.131 147.829 569.316 147.538C569.5 147.243 569.747 147.012 570.056 146.845C570.365 146.678 570.706 146.554 571.079 146.472C571.455 146.387 571.833 146.32 572.213 146.27C572.71 146.206 573.113 146.158 573.422 146.126C573.735 146.091 573.962 146.032 574.104 145.95C574.25 145.869 574.323 145.727 574.323 145.524V145.482C574.323 144.956 574.179 144.548 573.891 144.256C573.607 143.965 573.176 143.82 572.597 143.82C571.997 143.82 571.526 143.951 571.185 144.214C570.844 144.477 570.605 144.757 570.466 145.055L569.273 144.629C569.486 144.132 569.77 143.745 570.125 143.468C570.484 143.187 570.874 142.992 571.297 142.882C571.723 142.768 572.142 142.712 572.554 142.712C572.817 142.712 573.119 142.744 573.46 142.808C573.804 142.868 574.136 142.994 574.456 143.186C574.779 143.377 575.047 143.667 575.26 144.054C575.473 144.441 575.58 144.96 575.58 145.609V151H574.323V149.892H574.259C574.173 150.07 574.031 150.26 573.833 150.462C573.634 150.664 573.369 150.837 573.039 150.979C572.709 151.121 572.306 151.192 571.83 151.192ZM572.021 150.062C572.519 150.062 572.938 149.965 573.279 149.77C573.623 149.574 573.882 149.322 574.056 149.013C574.234 148.704 574.323 148.379 574.323 148.038V146.888C574.269 146.952 574.152 147.01 573.971 147.064C573.794 147.113 573.588 147.158 573.353 147.197C573.122 147.232 572.897 147.264 572.677 147.293C572.46 147.317 572.284 147.339 572.149 147.357C571.823 147.399 571.517 147.468 571.233 147.564C570.953 147.657 570.725 147.797 570.551 147.985C570.381 148.17 570.296 148.422 570.296 148.741C570.296 149.178 570.457 149.509 570.78 149.732C571.107 149.952 571.521 150.062 572.021 150.062ZM577.874 151V142.818H579.089V144.097H579.195C579.366 143.66 579.641 143.321 580.021 143.079C580.401 142.834 580.857 142.712 581.39 142.712C581.93 142.712 582.379 142.834 582.737 143.079C583.1 143.321 583.382 143.66 583.584 144.097H583.67C583.879 143.674 584.193 143.338 584.612 143.09C585.032 142.838 585.534 142.712 586.12 142.712C586.851 142.712 587.45 142.941 587.915 143.399C588.38 143.853 588.613 144.562 588.613 145.524V151H587.356V145.524C587.356 144.92 587.191 144.489 586.86 144.23C586.53 143.971 586.141 143.841 585.694 143.841C585.119 143.841 584.673 144.015 584.357 144.363C584.041 144.707 583.883 145.144 583.883 145.673V151H582.604V145.396C582.604 144.931 582.453 144.556 582.152 144.272C581.85 143.985 581.461 143.841 580.985 143.841C580.658 143.841 580.353 143.928 580.069 144.102C579.788 144.276 579.561 144.517 579.387 144.826C579.217 145.132 579.131 145.485 579.131 145.886V151H577.874Z" fill="black"/>
<path d="M714.688 141H711.321V130.091H714.837C715.895 130.091 716.8 130.309 717.553 130.746C718.306 131.179 718.883 131.803 719.284 132.616C719.686 133.425 719.886 134.395 719.886 135.524C719.886 136.661 719.684 137.639 719.279 138.459C718.874 139.276 718.285 139.904 717.511 140.345C716.737 140.782 715.795 141 714.688 141ZM712.642 139.828H714.602C715.504 139.828 716.252 139.654 716.845 139.306C717.438 138.958 717.88 138.463 718.171 137.82C718.462 137.177 718.608 136.412 718.608 135.524C718.608 134.643 718.464 133.885 718.176 133.25C717.889 132.61 717.459 132.12 716.887 131.779C716.316 131.435 715.604 131.263 714.751 131.263H712.642V139.828ZM725.362 141.17C724.574 141.17 723.894 140.996 723.322 140.648C722.754 140.297 722.315 139.807 722.006 139.178C721.701 138.546 721.548 137.811 721.548 136.973C721.548 136.135 721.701 135.396 722.006 134.757C722.315 134.114 722.745 133.614 723.295 133.255C723.849 132.893 724.496 132.712 725.234 132.712C725.661 132.712 726.081 132.783 726.497 132.925C726.912 133.067 727.29 133.298 727.631 133.617C727.972 133.933 728.244 134.352 728.446 134.874C728.649 135.396 728.75 136.039 728.75 136.803V137.335H722.443V136.249H727.472C727.472 135.787 727.379 135.375 727.195 135.013C727.013 134.651 726.754 134.365 726.417 134.155C726.083 133.946 725.689 133.841 725.234 133.841C724.734 133.841 724.3 133.965 723.935 134.214C723.572 134.459 723.294 134.778 723.098 135.173C722.903 135.567 722.805 135.989 722.805 136.44V137.165C722.805 137.783 722.912 138.306 723.125 138.736C723.342 139.162 723.642 139.487 724.025 139.711C724.409 139.931 724.854 140.041 725.362 140.041C725.692 140.041 725.991 139.995 726.257 139.903C726.527 139.807 726.76 139.665 726.955 139.477C727.15 139.285 727.301 139.047 727.408 138.763L728.622 139.104C728.494 139.516 728.279 139.878 727.978 140.19C727.676 140.499 727.303 140.741 726.859 140.915C726.415 141.085 725.916 141.17 725.362 141.17ZM730.662 144.068V132.818H731.877V134.118H732.026C732.118 133.976 732.246 133.795 732.409 133.575C732.576 133.351 732.814 133.152 733.123 132.978C733.436 132.8 733.858 132.712 734.391 132.712C735.08 132.712 735.687 132.884 736.213 133.228C736.738 133.573 737.148 134.061 737.443 134.693C737.738 135.325 737.885 136.071 737.885 136.93C737.885 137.797 737.738 138.548 737.443 139.184C737.148 139.816 736.74 140.306 736.218 140.654C735.696 140.998 735.094 141.17 734.412 141.17C733.887 141.17 733.466 141.083 733.15 140.909C732.834 140.732 732.591 140.531 732.42 140.308C732.25 140.08 732.118 139.892 732.026 139.743H731.919V144.068H730.662ZM731.898 136.909C731.898 137.527 731.989 138.072 732.17 138.544C732.351 139.013 732.615 139.381 732.963 139.647C733.311 139.91 733.738 140.041 734.242 140.041C734.767 140.041 735.206 139.903 735.558 139.626C735.913 139.345 736.179 138.969 736.357 138.496C736.538 138.021 736.628 137.491 736.628 136.909C736.628 136.334 736.539 135.815 736.362 135.354C736.188 134.888 735.923 134.521 735.568 134.251C735.217 133.978 734.775 133.841 734.242 133.841C733.73 133.841 733.301 133.971 732.953 134.23C732.605 134.485 732.342 134.844 732.164 135.306C731.987 135.764 731.898 136.298 731.898 136.909ZM741.06 130.091V141H739.803V130.091H741.06ZM746.686 141.17C745.948 141.17 745.3 140.995 744.742 140.643C744.188 140.292 743.755 139.8 743.442 139.168C743.133 138.536 742.979 137.797 742.979 136.952C742.979 136.099 743.133 135.355 743.442 134.72C743.755 134.084 744.188 133.591 744.742 133.239C745.3 132.887 745.948 132.712 746.686 132.712C747.425 132.712 748.071 132.887 748.625 133.239C749.183 133.591 749.616 134.084 749.925 134.72C750.237 135.355 750.394 136.099 750.394 136.952C750.394 137.797 750.237 138.536 749.925 139.168C749.616 139.8 749.183 140.292 748.625 140.643C748.071 140.995 747.425 141.17 746.686 141.17ZM746.686 140.041C747.247 140.041 747.709 139.897 748.071 139.61C748.434 139.322 748.702 138.944 748.876 138.475C749.05 138.006 749.137 137.499 749.137 136.952C749.137 136.405 749.05 135.895 748.876 135.423C748.702 134.951 748.434 134.569 748.071 134.278C747.709 133.987 747.247 133.841 746.686 133.841C746.125 133.841 745.664 133.987 745.301 134.278C744.939 134.569 744.671 134.951 744.497 135.423C744.323 135.895 744.236 136.405 744.236 136.952C744.236 137.499 744.323 138.006 744.497 138.475C744.671 138.944 744.939 139.322 745.301 139.61C745.664 139.897 746.125 140.041 746.686 140.041ZM752.829 144.068C752.616 144.068 752.426 144.05 752.259 144.015C752.093 143.983 751.977 143.951 751.913 143.919L752.233 142.811C752.538 142.889 752.808 142.918 753.042 142.896C753.277 142.875 753.485 142.77 753.666 142.582C753.85 142.397 754.019 142.097 754.172 141.682L754.406 141.043L751.381 132.818H752.744L755.003 139.338H755.088L757.346 132.818H758.71L755.237 142.193C755.081 142.616 754.887 142.966 754.656 143.243C754.426 143.523 754.157 143.731 753.852 143.866C753.55 144.001 753.209 144.068 752.829 144.068ZM760.369 141V132.818H761.584V134.097H761.69C761.861 133.66 762.136 133.321 762.516 133.079C762.896 132.834 763.352 132.712 763.885 132.712C764.425 132.712 764.874 132.834 765.233 133.079C765.595 133.321 765.877 133.66 766.08 134.097H766.165C766.374 133.674 766.689 133.338 767.108 133.09C767.527 132.838 768.029 132.712 768.615 132.712C769.347 132.712 769.945 132.941 770.41 133.399C770.875 133.853 771.108 134.562 771.108 135.524V141H769.851V135.524C769.851 134.92 769.686 134.489 769.355 134.23C769.025 133.971 768.636 133.841 768.189 133.841C767.614 133.841 767.168 134.015 766.852 134.363C766.536 134.707 766.378 135.144 766.378 135.673V141H765.099V135.396C765.099 134.931 764.949 134.556 764.647 134.272C764.345 133.985 763.956 133.841 763.48 133.841C763.153 133.841 762.848 133.928 762.564 134.102C762.283 134.276 762.056 134.517 761.882 134.826C761.712 135.132 761.626 135.485 761.626 135.886V141H760.369ZM776.837 141.17C776.048 141.17 775.368 140.996 774.797 140.648C774.229 140.297 773.79 139.807 773.481 139.178C773.176 138.546 773.023 137.811 773.023 136.973C773.023 136.135 773.176 135.396 773.481 134.757C773.79 134.114 774.22 133.614 774.77 133.255C775.324 132.893 775.97 132.712 776.709 132.712C777.135 132.712 777.556 132.783 777.971 132.925C778.387 133.067 778.765 133.298 779.106 133.617C779.447 133.933 779.719 134.352 779.921 134.874C780.123 135.396 780.225 136.039 780.225 136.803V137.335H773.918V136.249H778.946C778.946 135.787 778.854 135.375 778.669 135.013C778.488 134.651 778.229 134.365 777.892 134.155C777.558 133.946 777.164 133.841 776.709 133.841C776.208 133.841 775.775 133.965 775.409 134.214C775.047 134.459 774.768 134.778 774.573 135.173C774.378 135.567 774.28 135.989 774.28 136.44V137.165C774.28 137.783 774.387 138.306 774.6 138.736C774.816 139.162 775.116 139.487 775.5 139.711C775.883 139.931 776.329 140.041 776.837 140.041C777.167 140.041 777.465 139.995 777.732 139.903C778.002 139.807 778.234 139.665 778.43 139.477C778.625 139.285 778.776 139.047 778.882 138.763L780.097 139.104C779.969 139.516 779.754 139.878 779.452 140.19C779.15 140.499 778.778 140.741 778.334 140.915C777.89 141.085 777.391 141.17 776.837 141.17ZM783.394 136.078V141H782.137V132.818H783.351V134.097H783.458C783.65 133.681 783.941 133.347 784.331 133.095C784.722 132.839 785.226 132.712 785.844 132.712C786.398 132.712 786.883 132.825 787.298 133.053C787.714 133.276 788.037 133.617 788.268 134.075C788.499 134.53 788.614 135.105 788.614 135.801V141H787.357V135.886C787.357 135.244 787.19 134.743 786.856 134.384C786.523 134.022 786.064 133.841 785.482 133.841C785.081 133.841 784.722 133.928 784.406 134.102C784.094 134.276 783.847 134.53 783.666 134.864C783.485 135.197 783.394 135.602 783.394 136.078ZM794.47 132.818V133.884H790.229V132.818H794.47ZM791.465 130.858H792.722V138.656C792.722 139.011 792.774 139.278 792.877 139.455C792.983 139.629 793.118 139.746 793.282 139.807C793.449 139.864 793.624 139.892 793.809 139.892C793.948 139.892 794.061 139.885 794.15 139.871C794.239 139.853 794.31 139.839 794.363 139.828L794.619 140.957C794.533 140.989 794.415 141.021 794.262 141.053C794.109 141.089 793.916 141.107 793.681 141.107C793.326 141.107 792.978 141.03 792.637 140.877C792.3 140.725 792.019 140.492 791.796 140.18C791.575 139.867 791.465 139.473 791.465 138.997V130.858ZM719.759 159V148.091H723.445C724.3 148.091 725 148.245 725.543 148.554C726.09 148.86 726.495 149.273 726.758 149.795C727.021 150.317 727.152 150.9 727.152 151.543C727.152 152.185 727.021 152.77 726.758 153.295C726.499 153.821 726.097 154.24 725.554 154.552C725.011 154.861 724.315 155.016 723.466 155.016H720.824V153.844H723.423C724.009 153.844 724.48 153.743 724.835 153.54C725.19 153.338 725.447 153.064 725.607 152.72C725.771 152.372 725.852 151.979 725.852 151.543C725.852 151.106 725.771 150.715 725.607 150.371C725.447 150.026 725.188 149.756 724.83 149.561C724.471 149.362 723.995 149.263 723.402 149.263H721.08V159H719.759ZM729.11 159V150.818H730.324V152.054H730.409C730.558 151.649 730.828 151.321 731.219 151.069C731.61 150.816 732.05 150.69 732.54 150.69C732.632 150.69 732.748 150.692 732.886 150.696C733.025 150.699 733.129 150.705 733.2 150.712V151.99C733.158 151.979 733.06 151.963 732.907 151.942C732.758 151.917 732.6 151.905 732.433 151.905C732.036 151.905 731.681 151.988 731.368 152.155C731.059 152.319 730.814 152.546 730.633 152.837C730.455 153.125 730.367 153.453 730.367 153.822V159H729.11ZM737.765 159.17C737.027 159.17 736.379 158.995 735.821 158.643C735.267 158.292 734.834 157.8 734.521 157.168C734.213 156.536 734.058 155.797 734.058 154.952C734.058 154.099 734.213 153.355 734.521 152.72C734.834 152.084 735.267 151.591 735.821 151.239C736.379 150.887 737.027 150.712 737.765 150.712C738.504 150.712 739.15 150.887 739.704 151.239C740.262 151.591 740.695 152.084 741.004 152.72C741.317 153.355 741.473 154.099 741.473 154.952C741.473 155.797 741.317 156.536 741.004 157.168C740.695 157.8 740.262 158.292 739.704 158.643C739.15 158.995 738.504 159.17 737.765 159.17ZM737.765 158.041C738.327 158.041 738.788 157.897 739.15 157.61C739.513 157.322 739.781 156.944 739.955 156.475C740.129 156.006 740.216 155.499 740.216 154.952C740.216 154.405 740.129 153.895 739.955 153.423C739.781 152.951 739.513 152.569 739.15 152.278C738.788 151.987 738.327 151.841 737.765 151.841C737.204 151.841 736.743 151.987 736.381 152.278C736.018 152.569 735.75 152.951 735.576 153.423C735.402 153.895 735.315 154.405 735.315 154.952C735.315 155.499 735.402 156.006 735.576 156.475C735.75 156.944 736.018 157.322 736.381 157.61C736.743 157.897 737.204 158.041 737.765 158.041ZM746.694 162.239C746.087 162.239 745.565 162.161 745.128 162.004C744.691 161.852 744.328 161.649 744.036 161.397C743.749 161.148 743.52 160.882 743.349 160.598L744.351 159.895C744.464 160.044 744.608 160.214 744.782 160.406C744.956 160.602 745.194 160.77 745.496 160.912C745.801 161.058 746.201 161.131 746.694 161.131C747.355 161.131 747.9 160.971 748.33 160.651C748.759 160.332 748.974 159.831 748.974 159.149V157.487H748.868C748.775 157.636 748.644 157.821 748.473 158.041C748.307 158.258 748.065 158.451 747.749 158.622C747.437 158.789 747.014 158.872 746.481 158.872C745.821 158.872 745.228 158.716 744.702 158.403C744.18 158.091 743.766 157.636 743.461 157.04C743.159 156.443 743.008 155.719 743.008 154.866C743.008 154.028 743.156 153.299 743.45 152.677C743.745 152.052 744.155 151.569 744.681 151.228C745.206 150.884 745.814 150.712 746.503 150.712C747.035 150.712 747.458 150.8 747.77 150.978C748.086 151.152 748.328 151.351 748.495 151.575C748.665 151.795 748.797 151.976 748.889 152.118H749.017V150.818H750.231V159.234C750.231 159.938 750.071 160.509 749.752 160.95C749.436 161.393 749.01 161.718 748.473 161.924C747.941 162.134 747.348 162.239 746.694 162.239ZM746.652 157.743C747.156 157.743 747.582 157.627 747.93 157.397C748.278 157.166 748.543 156.834 748.724 156.401C748.905 155.967 748.995 155.449 748.995 154.845C748.995 154.256 748.907 153.735 748.729 153.284C748.552 152.833 748.289 152.48 747.941 152.224C747.593 151.969 747.163 151.841 746.652 151.841C746.119 151.841 745.675 151.976 745.32 152.246C744.968 152.516 744.704 152.878 744.526 153.332C744.352 153.787 744.265 154.291 744.265 154.845C744.265 155.413 744.354 155.916 744.532 156.353C744.713 156.786 744.979 157.127 745.331 157.375C745.686 157.62 746.126 157.743 746.652 157.743ZM752.532 159V150.818H753.747V152.054H753.832C753.981 151.649 754.251 151.321 754.642 151.069C755.032 150.816 755.473 150.69 755.963 150.69C756.055 150.69 756.171 150.692 756.309 150.696C756.448 150.699 756.552 150.705 756.623 150.712V151.99C756.581 151.979 756.483 151.963 756.33 151.942C756.181 151.917 756.023 151.905 755.856 151.905C755.459 151.905 755.103 151.988 754.791 152.155C754.482 152.319 754.237 152.546 754.056 152.837C753.878 153.125 753.79 153.453 753.79 153.822V159H752.532ZM761.295 159.17C760.506 159.17 759.826 158.996 759.255 158.648C758.687 158.297 758.248 157.807 757.939 157.178C757.634 156.546 757.481 155.811 757.481 154.973C757.481 154.135 757.634 153.396 757.939 152.757C758.248 152.114 758.678 151.614 759.228 151.255C759.782 150.893 760.428 150.712 761.167 150.712C761.593 150.712 762.014 150.783 762.429 150.925C762.845 151.067 763.223 151.298 763.564 151.617C763.905 151.933 764.177 152.352 764.379 152.874C764.581 153.396 764.683 154.039 764.683 154.803V155.335H758.376V154.249H763.404C763.404 153.787 763.312 153.375 763.127 153.013C762.946 152.651 762.687 152.365 762.35 152.155C762.016 151.946 761.622 151.841 761.167 151.841C760.666 151.841 760.233 151.965 759.867 152.214C759.505 152.459 759.226 152.778 759.031 153.173C758.836 153.567 758.738 153.989 758.738 154.44V155.165C758.738 155.783 758.845 156.306 759.058 156.736C759.274 157.162 759.574 157.487 759.958 157.711C760.341 157.931 760.787 158.041 761.295 158.041C761.625 158.041 761.923 157.995 762.19 157.903C762.46 157.807 762.692 157.665 762.888 157.477C763.083 157.285 763.234 157.047 763.34 156.763L764.555 157.104C764.427 157.516 764.212 157.878 763.91 158.19C763.608 158.499 763.236 158.741 762.792 158.915C762.348 159.085 761.849 159.17 761.295 159.17ZM772.39 152.651L771.261 152.97C771.19 152.782 771.085 152.599 770.947 152.422C770.812 152.24 770.627 152.091 770.393 151.974C770.158 151.857 769.858 151.798 769.493 151.798C768.992 151.798 768.575 151.914 768.241 152.145C767.911 152.372 767.745 152.661 767.745 153.013C767.745 153.325 767.859 153.572 768.086 153.753C768.314 153.934 768.669 154.085 769.152 154.206L770.366 154.504C771.098 154.682 771.643 154.953 772.002 155.319C772.36 155.681 772.54 156.148 772.54 156.72C772.54 157.189 772.405 157.608 772.135 157.977C771.868 158.347 771.495 158.638 771.016 158.851C770.537 159.064 769.979 159.17 769.343 159.17C768.509 159.17 767.818 158.989 767.271 158.627C766.725 158.265 766.378 157.736 766.233 157.04L767.426 156.741C767.54 157.182 767.754 157.512 768.07 157.732C768.39 157.952 768.807 158.062 769.322 158.062C769.908 158.062 770.373 157.938 770.718 157.69C771.066 157.437 771.24 157.136 771.24 156.784C771.24 156.5 771.14 156.262 770.941 156.07C770.743 155.875 770.437 155.729 770.025 155.634L768.662 155.314C767.912 155.136 767.362 154.861 767.01 154.488C766.662 154.112 766.488 153.641 766.488 153.077C766.488 152.615 766.618 152.207 766.877 151.852C767.14 151.496 767.497 151.218 767.948 151.015C768.402 150.813 768.917 150.712 769.493 150.712C770.302 150.712 770.938 150.889 771.4 151.244C771.865 151.599 772.195 152.068 772.39 152.651ZM780.227 152.651L779.098 152.97C779.027 152.782 778.922 152.599 778.784 152.422C778.649 152.24 778.464 152.091 778.23 151.974C777.995 151.857 777.695 151.798 777.33 151.798C776.829 151.798 776.412 151.914 776.078 152.145C775.748 152.372 775.582 152.661 775.582 153.013C775.582 153.325 775.696 153.572 775.923 153.753C776.151 153.934 776.506 154.085 776.989 154.206L778.203 154.504C778.935 154.682 779.48 154.953 779.838 155.319C780.197 155.681 780.376 156.148 780.376 156.72C780.376 157.189 780.241 157.608 779.972 157.977C779.705 158.347 779.332 158.638 778.853 158.851C778.374 159.064 777.816 159.17 777.18 159.17C776.346 159.17 775.655 158.989 775.108 158.627C774.561 158.265 774.215 157.736 774.07 157.04L775.263 156.741C775.376 157.182 775.591 157.512 775.907 157.732C776.227 157.952 776.644 158.062 777.159 158.062C777.745 158.062 778.21 157.938 778.555 157.69C778.903 157.437 779.077 157.136 779.077 156.784C779.077 156.5 778.977 156.262 778.778 156.07C778.58 155.875 778.274 155.729 777.862 155.634L776.499 155.314C775.749 155.136 775.199 154.861 774.847 154.488C774.499 154.112 774.325 153.641 774.325 153.077C774.325 152.615 774.455 152.207 774.714 151.852C774.977 151.496 775.334 151.218 775.785 151.015C776.239 150.813 776.754 150.712 777.33 150.712C778.139 150.712 778.775 150.889 779.237 151.244C779.702 151.599 780.032 152.068 780.227 152.651Z" fill="black"/>
<path d="M517.862 198.216V184.58H521.016V185.624H519.055V197.172H521.016V198.216H517.862ZM523.936 185.091V196H522.679V185.091H523.936ZM526.238 196V187.818H527.496V196H526.238ZM526.878 186.455C526.633 186.455 526.421 186.371 526.244 186.204C526.07 186.037 525.983 185.837 525.983 185.602C525.983 185.368 526.07 185.167 526.244 185C526.421 184.833 526.633 184.75 526.878 184.75C527.123 184.75 527.332 184.833 527.506 185C527.684 185.167 527.773 185.368 527.773 185.602C527.773 185.837 527.684 186.037 527.506 186.204C527.332 186.371 527.123 186.455 526.878 186.455ZM536.488 187.818L533.463 196H532.184L529.159 187.818H530.522L532.781 194.338H532.866L535.125 187.818H536.488ZM541.285 196.17C540.497 196.17 539.817 195.996 539.245 195.648C538.677 195.297 538.238 194.807 537.929 194.178C537.624 193.546 537.471 192.811 537.471 191.973C537.471 191.135 537.624 190.396 537.929 189.757C538.238 189.114 538.668 188.614 539.218 188.255C539.772 187.893 540.419 187.712 541.157 187.712C541.583 187.712 542.004 187.783 542.42 187.925C542.835 188.067 543.213 188.298 543.554 188.617C543.895 188.933 544.167 189.352 544.369 189.874C544.572 190.396 544.673 191.039 544.673 191.803V192.335H538.366V191.249H543.394C543.394 190.787 543.302 190.375 543.117 190.013C542.936 189.651 542.677 189.365 542.34 189.155C542.006 188.946 541.612 188.841 541.157 188.841C540.657 188.841 540.223 188.965 539.858 189.214C539.495 189.459 539.217 189.778 539.021 190.173C538.826 190.567 538.728 190.989 538.728 191.44V192.165C538.728 192.783 538.835 193.306 539.048 193.736C539.264 194.162 539.565 194.487 539.948 194.711C540.332 194.931 540.777 195.041 541.285 195.041C541.615 195.041 541.914 194.995 542.18 194.903C542.45 194.807 542.682 194.665 542.878 194.477C543.073 194.285 543.224 194.047 543.331 193.763L544.545 194.104C544.417 194.516 544.202 194.878 543.9 195.19C543.599 195.499 543.226 195.741 542.782 195.915C542.338 196.085 541.839 196.17 541.285 196.17ZM547.501 196.085C547.239 196.085 547.013 195.991 546.825 195.803C546.637 195.615 546.543 195.389 546.543 195.126C546.543 194.864 546.637 194.638 546.825 194.45C547.013 194.262 547.239 194.168 547.501 194.168C547.764 194.168 547.99 194.262 548.178 194.45C548.366 194.638 548.46 194.864 548.46 195.126C548.46 195.3 548.416 195.46 548.327 195.606C548.242 195.751 548.126 195.869 547.981 195.957C547.839 196.043 547.679 196.085 547.501 196.085ZM551.632 196.085C551.369 196.085 551.144 195.991 550.956 195.803C550.767 195.615 550.673 195.389 550.673 195.126C550.673 194.864 550.767 194.638 550.956 194.45C551.144 194.262 551.369 194.168 551.632 194.168C551.895 194.168 552.12 194.262 552.309 194.45C552.497 194.638 552.591 194.864 552.591 195.126C552.591 195.3 552.547 195.46 552.458 195.606C552.373 195.751 552.257 195.869 552.112 195.957C551.97 196.043 551.81 196.085 551.632 196.085ZM555.763 196.085C555.5 196.085 555.275 195.991 555.087 195.803C554.898 195.615 554.804 195.389 554.804 195.126C554.804 194.864 554.898 194.638 555.087 194.45C555.275 194.262 555.5 194.168 555.763 194.168C556.026 194.168 556.251 194.262 556.44 194.45C556.628 194.638 556.722 194.864 556.722 195.126C556.722 195.3 556.677 195.46 556.589 195.606C556.503 195.751 556.388 195.869 556.242 195.957C556.1 196.043 555.941 196.085 555.763 196.085ZM561.492 184.58V198.216H558.339V197.172H560.299V185.624H558.339V184.58H561.492Z" fill="black"/>
<path d="M295.768 141H294.384L298.389 130.091H299.753L303.759 141H302.374L299.114 131.817H299.028L295.768 141ZM296.28 136.739H301.862V137.911H296.28V136.739ZM305.287 144.068V132.818H306.502V134.118H306.651C306.743 133.976 306.871 133.795 307.034 133.575C307.201 133.351 307.439 133.152 307.748 132.978C308.061 132.8 308.483 132.712 309.016 132.712C309.705 132.712 310.312 132.884 310.838 133.228C311.363 133.573 311.773 134.061 312.068 134.693C312.363 135.325 312.51 136.071 312.51 136.93C312.51 137.797 312.363 138.548 312.068 139.184C311.773 139.816 311.365 140.306 310.843 140.654C310.321 140.998 309.719 141.17 309.037 141.17C308.512 141.17 308.091 141.083 307.775 140.909C307.459 140.732 307.216 140.531 307.045 140.308C306.875 140.08 306.743 139.892 306.651 139.743H306.544V144.068H305.287ZM306.523 136.909C306.523 137.527 306.614 138.072 306.795 138.544C306.976 139.013 307.24 139.381 307.588 139.647C307.936 139.91 308.363 140.041 308.867 140.041C309.392 140.041 309.831 139.903 310.183 139.626C310.538 139.345 310.804 138.969 310.982 138.496C311.163 138.021 311.253 137.491 311.253 136.909C311.253 136.334 311.164 135.815 310.987 135.354C310.813 134.888 310.548 134.521 310.193 134.251C309.842 133.978 309.4 133.841 308.867 133.841C308.355 133.841 307.926 133.971 307.578 134.23C307.23 134.485 306.967 134.844 306.789 135.306C306.612 135.764 306.523 136.298 306.523 136.909ZM314.428 144.068V132.818H315.642V134.118H315.792C315.884 133.976 316.012 133.795 316.175 133.575C316.342 133.351 316.58 133.152 316.889 132.978C317.201 132.8 317.624 132.712 318.157 132.712C318.846 132.712 319.453 132.884 319.978 133.228C320.504 133.573 320.914 134.061 321.209 134.693C321.504 135.325 321.651 136.071 321.651 136.93C321.651 137.797 321.504 138.548 321.209 139.184C320.914 139.816 320.506 140.306 319.984 140.654C319.462 140.998 318.86 141.17 318.178 141.17C317.652 141.17 317.232 141.083 316.915 140.909C316.599 140.732 316.356 140.531 316.186 140.308C316.015 140.08 315.884 139.892 315.792 139.743H315.685V144.068H314.428ZM315.664 136.909C315.664 137.527 315.754 138.072 315.935 138.544C316.116 139.013 316.381 139.381 316.729 139.647C317.077 139.91 317.503 140.041 318.007 140.041C318.533 140.041 318.972 139.903 319.323 139.626C319.678 139.345 319.945 138.969 320.122 138.496C320.303 138.021 320.394 137.491 320.394 136.909C320.394 136.334 320.305 135.815 320.127 135.354C319.953 134.888 319.689 134.521 319.334 134.251C318.982 133.978 318.54 133.841 318.007 133.841C317.496 133.841 317.066 133.971 316.718 134.23C316.37 134.485 316.108 134.844 315.93 135.306C315.752 135.764 315.664 136.298 315.664 136.909ZM333.924 132.818C333.86 132.278 333.6 131.859 333.146 131.561C332.691 131.263 332.134 131.114 331.473 131.114C330.99 131.114 330.568 131.192 330.206 131.348C329.847 131.504 329.566 131.719 329.364 131.993C329.165 132.266 329.066 132.577 329.066 132.925C329.066 133.216 329.135 133.466 329.273 133.676C329.415 133.882 329.597 134.054 329.817 134.192C330.037 134.327 330.268 134.439 330.509 134.528C330.751 134.613 330.973 134.683 331.175 134.736L332.283 135.034C332.567 135.109 332.883 135.212 333.231 135.343C333.583 135.474 333.918 135.654 334.238 135.881C334.561 136.105 334.827 136.392 335.037 136.744C335.246 137.096 335.351 137.527 335.351 138.038C335.351 138.628 335.197 139.161 334.888 139.636C334.582 140.112 334.135 140.49 333.545 140.771C332.96 141.051 332.248 141.192 331.409 141.192C330.628 141.192 329.952 141.066 329.38 140.814C328.812 140.561 328.364 140.21 328.038 139.759C327.714 139.308 327.532 138.784 327.489 138.188H328.853C328.888 138.599 329.027 138.94 329.268 139.21C329.513 139.477 329.822 139.675 330.195 139.807C330.571 139.935 330.976 139.999 331.409 139.999C331.914 139.999 332.366 139.917 332.768 139.754C333.169 139.587 333.487 139.356 333.721 139.061C333.956 138.763 334.073 138.415 334.073 138.017C334.073 137.655 333.972 137.36 333.769 137.133C333.567 136.906 333.3 136.721 332.97 136.579C332.64 136.437 332.283 136.312 331.9 136.206L330.557 135.822C329.705 135.577 329.03 135.228 328.533 134.773C328.036 134.319 327.787 133.724 327.787 132.989C327.787 132.378 327.952 131.845 328.283 131.391C328.616 130.933 329.064 130.577 329.625 130.325C330.19 130.07 330.82 129.942 331.516 129.942C332.219 129.942 332.844 130.068 333.391 130.32C333.938 130.569 334.371 130.909 334.691 131.343C335.014 131.776 335.184 132.268 335.202 132.818H333.924ZM340.911 132.818V133.884H336.671V132.818H340.911ZM337.907 130.858H339.164V138.656C339.164 139.011 339.215 139.278 339.318 139.455C339.425 139.629 339.56 139.746 339.723 139.807C339.89 139.864 340.066 139.892 340.25 139.892C340.389 139.892 340.503 139.885 340.591 139.871C340.68 139.853 340.751 139.839 340.804 139.828L341.06 140.957C340.975 140.989 340.856 141.021 340.703 141.053C340.551 141.089 340.357 141.107 340.123 141.107C339.767 141.107 339.419 141.03 339.079 140.877C338.741 140.725 338.461 140.492 338.237 140.18C338.017 139.867 337.907 139.473 337.907 138.997V130.858ZM345.21 141.192C344.691 141.192 344.221 141.094 343.798 140.899C343.375 140.7 343.04 140.414 342.791 140.041C342.543 139.665 342.418 139.21 342.418 138.678C342.418 138.209 342.511 137.829 342.695 137.538C342.88 137.243 343.127 137.012 343.436 136.845C343.745 136.678 344.086 136.554 344.459 136.472C344.835 136.387 345.213 136.32 345.593 136.27C346.09 136.206 346.493 136.158 346.802 136.126C347.115 136.091 347.342 136.032 347.484 135.95C347.63 135.869 347.703 135.727 347.703 135.524V135.482C347.703 134.956 347.559 134.548 347.271 134.256C346.987 133.965 346.555 133.82 345.977 133.82C345.377 133.82 344.906 133.951 344.565 134.214C344.224 134.477 343.984 134.757 343.846 135.055L342.653 134.629C342.866 134.132 343.15 133.745 343.505 133.468C343.864 133.187 344.254 132.992 344.677 132.882C345.103 132.768 345.522 132.712 345.934 132.712C346.197 132.712 346.499 132.744 346.84 132.808C347.184 132.868 347.516 132.994 347.836 133.186C348.159 133.377 348.427 133.667 348.64 134.054C348.853 134.441 348.96 134.96 348.96 135.609V141H347.703V139.892H347.639C347.553 140.07 347.411 140.26 347.212 140.462C347.014 140.664 346.749 140.837 346.419 140.979C346.089 141.121 345.685 141.192 345.21 141.192ZM345.401 140.062C345.899 140.062 346.318 139.965 346.658 139.77C347.003 139.574 347.262 139.322 347.436 139.013C347.614 138.704 347.703 138.379 347.703 138.038V136.888C347.649 136.952 347.532 137.01 347.351 137.064C347.173 137.113 346.967 137.158 346.733 137.197C346.502 137.232 346.277 137.264 346.057 137.293C345.84 137.317 345.664 137.339 345.529 137.357C345.203 137.399 344.897 137.468 344.613 137.564C344.332 137.657 344.105 137.797 343.931 137.985C343.761 138.17 343.676 138.422 343.676 138.741C343.676 139.178 343.837 139.509 344.16 139.732C344.487 139.952 344.901 140.062 345.401 140.062ZM354.812 132.818V133.884H350.572V132.818H354.812ZM351.808 130.858H353.065V138.656C353.065 139.011 353.117 139.278 353.22 139.455C353.326 139.629 353.461 139.746 353.624 139.807C353.791 139.864 353.967 139.892 354.152 139.892C354.29 139.892 354.404 139.885 354.493 139.871C354.581 139.853 354.653 139.839 354.706 139.828L354.961 140.957C354.876 140.989 354.757 141.021 354.605 141.053C354.452 141.089 354.258 141.107 354.024 141.107C353.669 141.107 353.321 141.03 352.98 140.877C352.643 140.725 352.362 140.492 352.138 140.18C351.918 139.867 351.808 139.473 351.808 138.997V130.858ZM361.86 137.655V132.818H363.117V141H361.86V139.615H361.774C361.583 140.031 361.284 140.384 360.879 140.675C360.475 140.963 359.963 141.107 359.345 141.107C358.834 141.107 358.379 140.995 357.982 140.771C357.584 140.544 357.271 140.203 357.044 139.748C356.817 139.29 356.703 138.713 356.703 138.017V132.818H357.96V137.932C357.96 138.528 358.127 139.004 358.461 139.359C358.798 139.714 359.228 139.892 359.75 139.892C360.063 139.892 360.381 139.812 360.704 139.652C361.03 139.493 361.304 139.248 361.524 138.917C361.748 138.587 361.86 138.166 361.86 137.655ZM371.215 134.651L370.085 134.97C370.014 134.782 369.91 134.599 369.771 134.422C369.636 134.24 369.451 134.091 369.217 133.974C368.983 133.857 368.683 133.798 368.317 133.798C367.816 133.798 367.399 133.914 367.065 134.145C366.735 134.372 366.57 134.661 366.57 135.013C366.57 135.325 366.683 135.572 366.911 135.753C367.138 135.934 367.493 136.085 367.976 136.206L369.19 136.504C369.922 136.682 370.467 136.953 370.826 137.319C371.184 137.681 371.364 138.148 371.364 138.72C371.364 139.189 371.229 139.608 370.959 139.977C370.693 140.347 370.32 140.638 369.84 140.851C369.361 141.064 368.803 141.17 368.168 141.17C367.333 141.17 366.642 140.989 366.096 140.627C365.549 140.265 365.203 139.736 365.057 139.04L366.25 138.741C366.364 139.182 366.579 139.512 366.895 139.732C367.214 139.952 367.631 140.062 368.146 140.062C368.732 140.062 369.198 139.938 369.542 139.69C369.89 139.437 370.064 139.136 370.064 138.784C370.064 138.5 369.965 138.262 369.766 138.07C369.567 137.875 369.261 137.729 368.85 137.634L367.486 137.314C366.737 137.136 366.186 136.861 365.835 136.488C365.487 136.112 365.313 135.641 365.313 135.077C365.313 134.615 365.442 134.207 365.701 133.852C365.964 133.496 366.321 133.218 366.772 133.015C367.227 132.813 367.742 132.712 368.317 132.712C369.127 132.712 369.762 132.889 370.224 133.244C370.689 133.599 371.019 134.068 371.215 134.651ZM295.598 153.545C295.598 152.203 295.772 150.969 296.12 149.843C296.472 148.714 296.972 147.675 297.622 146.727H298.73C298.474 147.079 298.235 147.512 298.011 148.027C297.791 148.538 297.597 149.101 297.43 149.716C297.263 150.326 297.132 150.958 297.036 151.612C296.944 152.265 296.898 152.91 296.898 153.545C296.898 154.391 296.979 155.248 297.143 156.118C297.306 156.988 297.526 157.796 297.803 158.542C298.08 159.288 298.389 159.895 298.73 160.364H297.622C296.972 159.415 296.472 158.379 296.12 157.253C295.772 156.124 295.598 154.888 295.598 153.545ZM304.25 159.149C303.547 159.149 302.92 159.028 302.37 158.787C301.823 158.545 301.388 158.21 301.065 157.78C300.745 157.347 300.571 156.844 300.543 156.273H301.885C301.913 156.624 302.034 156.928 302.247 157.184C302.46 157.436 302.739 157.631 303.083 157.77C303.428 157.908 303.81 157.977 304.229 157.977C304.697 157.977 305.113 157.896 305.475 157.732C305.837 157.569 306.121 157.342 306.327 157.05C306.533 156.759 306.636 156.422 306.636 156.038C306.636 155.637 306.537 155.284 306.338 154.978C306.139 154.669 305.848 154.428 305.464 154.254C305.081 154.08 304.612 153.993 304.058 153.993H303.185V152.821H304.058C304.491 152.821 304.871 152.743 305.198 152.587C305.528 152.43 305.786 152.21 305.97 151.926C306.159 151.642 306.253 151.308 306.253 150.925C306.253 150.555 306.171 150.234 306.008 149.961C305.844 149.687 305.614 149.474 305.315 149.321C305.021 149.169 304.672 149.092 304.271 149.092C303.895 149.092 303.54 149.162 303.206 149.3C302.876 149.435 302.606 149.632 302.396 149.891C302.187 150.147 302.073 150.456 302.055 150.818H300.777C300.798 150.246 300.97 149.746 301.294 149.316C301.617 148.883 302.039 148.545 302.561 148.304C303.087 148.062 303.664 147.942 304.293 147.942C304.967 147.942 305.546 148.078 306.029 148.352C306.512 148.622 306.883 148.979 307.142 149.423C307.402 149.866 307.531 150.346 307.531 150.861C307.531 151.475 307.37 151.999 307.046 152.432C306.727 152.865 306.292 153.165 305.741 153.332V153.418C306.43 153.531 306.968 153.824 307.355 154.297C307.742 154.765 307.936 155.346 307.936 156.038C307.936 156.631 307.774 157.164 307.451 157.636C307.132 158.105 306.695 158.474 306.141 158.744C305.587 159.014 304.957 159.149 304.25 159.149ZM323.304 151.5H321.983C321.904 151.12 321.768 150.786 321.572 150.499C321.381 150.211 321.146 149.969 320.869 149.774C320.596 149.575 320.292 149.426 319.958 149.327C319.625 149.227 319.277 149.178 318.914 149.178C318.254 149.178 317.655 149.344 317.119 149.678C316.587 150.012 316.162 150.504 315.846 151.154C315.534 151.804 315.377 152.601 315.377 153.545C315.377 154.49 315.534 155.287 315.846 155.937C316.162 156.587 316.587 157.079 317.119 157.413C317.655 157.746 318.254 157.913 318.914 157.913C319.277 157.913 319.625 157.864 319.958 157.764C320.292 157.665 320.596 157.517 320.869 157.322C321.146 157.123 321.381 156.88 321.572 156.592C321.768 156.301 321.904 155.967 321.983 155.591H323.304C323.204 156.148 323.023 156.647 322.76 157.088C322.497 157.528 322.171 157.903 321.78 158.212C321.389 158.517 320.951 158.75 320.464 158.909C319.981 159.069 319.465 159.149 318.914 159.149C317.984 159.149 317.157 158.922 316.432 158.467C315.708 158.013 315.138 157.366 314.722 156.528C314.307 155.69 314.099 154.696 314.099 153.545C314.099 152.395 314.307 151.401 314.722 150.562C315.138 149.724 315.708 149.078 316.432 148.624C317.157 148.169 317.984 147.942 318.914 147.942C319.465 147.942 319.981 148.022 320.464 148.181C320.951 148.341 321.389 148.576 321.78 148.885C322.171 149.19 322.497 149.563 322.76 150.003C323.023 150.44 323.204 150.939 323.304 151.5ZM326.525 148.091V159H325.268V148.091H326.525ZM333.984 155.655V150.818H335.241V159H333.984V157.615H333.898C333.707 158.031 333.408 158.384 333.003 158.675C332.599 158.963 332.087 159.107 331.469 159.107C330.958 159.107 330.503 158.995 330.106 158.771C329.708 158.544 329.396 158.203 329.168 157.748C328.941 157.29 328.827 156.713 328.827 156.017V150.818H330.084V155.932C330.084 156.528 330.251 157.004 330.585 157.359C330.922 157.714 331.352 157.892 331.874 157.892C332.187 157.892 332.505 157.812 332.828 157.652C333.154 157.493 333.428 157.248 333.648 156.917C333.872 156.587 333.984 156.166 333.984 155.655ZM343.339 152.651L342.209 152.97C342.138 152.782 342.034 152.599 341.895 152.422C341.76 152.24 341.575 152.091 341.341 151.974C341.107 151.857 340.807 151.798 340.441 151.798C339.94 151.798 339.523 151.914 339.189 152.145C338.859 152.372 338.694 152.661 338.694 153.013C338.694 153.325 338.807 153.572 339.035 153.753C339.262 153.934 339.617 154.085 340.1 154.206L341.314 154.504C342.046 154.682 342.591 154.953 342.95 155.319C343.308 155.681 343.488 156.148 343.488 156.72C343.488 157.189 343.353 157.608 343.083 157.977C342.817 158.347 342.444 158.638 341.964 158.851C341.485 159.064 340.927 159.17 340.292 159.17C339.457 159.17 338.767 158.989 338.22 158.627C337.673 158.265 337.327 157.736 337.181 157.04L338.374 156.741C338.488 157.182 338.703 157.512 339.019 157.732C339.338 157.952 339.756 158.062 340.27 158.062C340.856 158.062 341.322 157.938 341.666 157.69C342.014 157.437 342.188 157.136 342.188 156.784C342.188 156.5 342.089 156.262 341.89 156.07C341.691 155.875 341.385 155.729 340.974 155.634L339.61 155.314C338.861 155.136 338.31 154.861 337.959 154.488C337.611 154.112 337.437 153.641 337.437 153.077C337.437 152.615 337.566 152.207 337.825 151.852C338.088 151.496 338.445 151.218 338.896 151.015C339.351 150.813 339.866 150.712 340.441 150.712C341.251 150.712 341.886 150.889 342.348 151.244C342.813 151.599 343.143 152.068 343.339 152.651ZM348.938 150.818V151.884H344.698V150.818H348.938ZM345.934 148.858H347.191V156.656C347.191 157.011 347.243 157.278 347.346 157.455C347.452 157.629 347.587 157.746 347.75 157.807C347.917 157.864 348.093 157.892 348.278 157.892C348.416 157.892 348.53 157.885 348.619 157.871C348.707 157.853 348.778 157.839 348.832 157.828L349.087 158.957C349.002 158.989 348.883 159.021 348.731 159.053C348.578 159.089 348.384 159.107 348.15 159.107C347.795 159.107 347.447 159.03 347.106 158.877C346.769 158.725 346.488 158.492 346.264 158.18C346.044 157.867 345.934 157.473 345.934 156.997V148.858ZM354.172 159.17C353.383 159.17 352.703 158.996 352.132 158.648C351.563 158.297 351.125 157.807 350.816 157.178C350.511 156.546 350.358 155.811 350.358 154.973C350.358 154.135 350.511 153.396 350.816 152.757C351.125 152.114 351.555 151.614 352.105 151.255C352.659 150.893 353.305 150.712 354.044 150.712C354.47 150.712 354.891 150.783 355.306 150.925C355.722 151.067 356.1 151.298 356.441 151.617C356.782 151.933 357.054 152.352 357.256 152.874C357.458 153.396 357.56 154.039 357.56 154.803V155.335H351.253V154.249H356.281C356.281 153.787 356.189 153.375 356.004 153.013C355.823 152.651 355.564 152.365 355.226 152.155C354.893 151.946 354.498 151.841 354.044 151.841C353.543 151.841 353.11 151.965 352.744 152.214C352.382 152.459 352.103 152.778 351.908 153.173C351.713 153.567 351.615 153.989 351.615 154.44V155.165C351.615 155.783 351.722 156.306 351.935 156.736C352.151 157.162 352.451 157.487 352.835 157.711C353.218 157.931 353.664 158.041 354.172 158.041C354.502 158.041 354.8 157.995 355.067 157.903C355.337 157.807 355.569 157.665 355.764 157.477C355.96 157.285 356.111 157.047 356.217 156.763L357.432 157.104C357.304 157.516 357.089 157.878 356.787 158.19C356.485 158.499 356.112 158.741 355.669 158.915C355.225 159.085 354.726 159.17 354.172 159.17ZM359.472 159V150.818H360.686V152.054H360.772C360.921 151.649 361.191 151.321 361.581 151.069C361.972 150.816 362.412 150.69 362.902 150.69C362.995 150.69 363.11 150.692 363.248 150.696C363.387 150.699 363.492 150.705 363.563 150.712V151.99C363.52 151.979 363.422 151.963 363.27 151.942C363.121 151.917 362.963 151.905 362.796 151.905C362.398 151.905 362.043 151.988 361.73 152.155C361.421 152.319 361.176 152.546 360.995 152.837C360.818 153.125 360.729 153.453 360.729 153.822V159H359.472ZM370.848 152.651L369.719 152.97C369.648 152.782 369.543 152.599 369.405 152.422C369.27 152.24 369.085 152.091 368.851 151.974C368.616 151.857 368.316 151.798 367.951 151.798C367.45 151.798 367.033 151.914 366.699 152.145C366.369 152.372 366.203 152.661 366.203 153.013C366.203 153.325 366.317 153.572 366.544 153.753C366.772 153.934 367.127 154.085 367.61 154.206L368.824 154.504C369.556 154.682 370.101 154.953 370.46 155.319C370.818 155.681 370.998 156.148 370.998 156.72C370.998 157.189 370.863 157.608 370.593 157.977C370.326 158.347 369.953 158.638 369.474 158.851C368.995 159.064 368.437 159.17 367.801 159.17C366.967 159.17 366.276 158.989 365.729 158.627C365.183 158.265 364.836 157.736 364.691 157.04L365.884 156.741C365.998 157.182 366.212 157.512 366.528 157.732C366.848 157.952 367.265 158.062 367.78 158.062C368.366 158.062 368.831 157.938 369.176 157.69C369.524 157.437 369.698 157.136 369.698 156.784C369.698 156.5 369.598 156.262 369.4 156.07C369.201 155.875 368.895 155.729 368.483 155.634L367.12 155.314C366.37 155.136 365.82 154.861 365.468 154.488C365.12 154.112 364.946 153.641 364.946 153.077C364.946 152.615 365.076 152.207 365.335 151.852C365.598 151.496 365.955 151.218 366.406 151.015C366.86 150.813 367.375 150.712 367.951 150.712C368.76 150.712 369.396 150.889 369.858 151.244C370.323 151.599 370.653 152.068 370.848 152.651ZM375.574 154.398C375.574 155.74 375.399 156.976 375.047 158.105C374.699 159.231 374.2 160.268 373.55 161.216H372.442C372.698 160.864 372.936 160.431 373.156 159.916C373.38 159.405 373.575 158.844 373.742 158.233C373.909 157.619 374.039 156.985 374.131 156.331C374.227 155.674 374.275 155.03 374.275 154.398C374.275 153.553 374.193 152.695 374.03 151.825C373.866 150.955 373.646 150.147 373.369 149.401C373.092 148.656 372.783 148.048 372.442 147.58H373.55C374.2 148.528 374.699 149.566 375.047 150.696C375.399 151.821 375.574 153.055 375.574 154.398Z" fill="black"/>
<rect x="55" y="182" width="20" height="22" fill="#49FF01"/>
<rect x="684" y="185" width="20" height="22" fill="#49FF01"/>
<rect x="74" y="182" width="20" height="22" fill="#3AFF04"/>
<rect x="703" y="185" width="20" height="22" fill="#3AFF04"/>
<rect x="94" y="182" width="20" height="22" fill="#49FF01"/>
<rect x="723" y="185" width="20" height="22" fill="#49FF01"/>
<rect x="114" y="182" width="20" height="22" fill="#26FF05"/>
<rect x="743" y="185" width="20" height="22" fill="#26FF05"/>
<rect x="134" y="182" width="20" height="22" fill="#49FF01"/>
<rect x="763" y="185" width="20" height="22" fill="#FF0101"/>
<rect x="153" y="182" width="20" height="22" fill="#49FF01"/>
<rect x="782" y="185" width="20" height="22" fill="#FF0101"/>
<g filter="url(#filter0_d_1_37)">
<rect x="173" y="182" width="20" height="22" fill="#FF0101"/>
</g>
<g filter="url(#filter1_d_1_37)">
<rect x="802" y="185" width="20" height="22" fill="#FF0101"/>
</g>
<path d="M882.264 154.318L877.492 149.545L882.264 144.773L883.085 145.582L879.707 148.96H888.454V150.131H879.707L883.085 153.498L882.264 154.318ZM904.64 147.5H903.319C903.241 147.12 903.105 146.786 902.909 146.499C902.718 146.211 902.483 145.969 902.206 145.774C901.933 145.575 901.629 145.426 901.295 145.327C900.961 145.227 900.613 145.178 900.251 145.178C899.591 145.178 898.992 145.344 898.456 145.678C897.923 146.012 897.499 146.504 897.183 147.154C896.871 147.804 896.714 148.601 896.714 149.545C896.714 150.49 896.871 151.287 897.183 151.937C897.499 152.587 897.923 153.079 898.456 153.413C898.992 153.746 899.591 153.913 900.251 153.913C900.613 153.913 900.961 153.864 901.295 153.764C901.629 153.665 901.933 153.517 902.206 153.322C902.483 153.123 902.718 152.88 902.909 152.592C903.105 152.301 903.241 151.967 903.319 151.591H904.64C904.541 152.148 904.36 152.647 904.097 153.088C903.834 153.528 903.508 153.903 903.117 154.212C902.726 154.517 902.288 154.75 901.801 154.909C901.318 155.069 900.802 155.149 900.251 155.149C899.321 155.149 898.493 154.922 897.769 154.467C897.045 154.013 896.475 153.366 896.059 152.528C895.644 151.69 895.436 150.696 895.436 149.545C895.436 148.395 895.644 147.401 896.059 146.562C896.475 145.724 897.045 145.078 897.769 144.624C898.493 144.169 899.321 143.942 900.251 143.942C900.802 143.942 901.318 144.022 901.801 144.181C902.288 144.341 902.726 144.576 903.117 144.885C903.508 145.19 903.834 145.563 904.097 146.003C904.36 146.44 904.541 146.939 904.64 147.5ZM909.012 155.192C908.494 155.192 908.023 155.094 907.601 154.899C907.178 154.7 906.843 154.414 906.594 154.041C906.345 153.665 906.221 153.21 906.221 152.678C906.221 152.209 906.313 151.829 906.498 151.538C906.683 151.243 906.93 151.012 907.239 150.845C907.547 150.678 907.888 150.554 908.261 150.472C908.638 150.387 909.016 150.32 909.396 150.27C909.893 150.206 910.296 150.158 910.605 150.126C910.918 150.091 911.145 150.032 911.287 149.95C911.432 149.869 911.505 149.727 911.505 149.524V149.482C911.505 148.956 911.361 148.548 911.074 148.256C910.79 147.965 910.358 147.82 909.779 147.82C909.179 147.82 908.709 147.951 908.368 148.214C908.027 148.477 907.787 148.757 907.649 149.055L906.456 148.629C906.669 148.132 906.953 147.745 907.308 147.468C907.666 147.187 908.057 146.992 908.48 146.882C908.906 146.768 909.325 146.712 909.737 146.712C910 146.712 910.301 146.744 910.642 146.808C910.987 146.868 911.319 146.994 911.638 147.186C911.962 147.377 912.23 147.667 912.443 148.054C912.656 148.441 912.762 148.96 912.762 149.609V155H911.505V153.892H911.441C911.356 154.07 911.214 154.26 911.015 154.462C910.816 154.664 910.552 154.837 910.222 154.979C909.891 155.121 909.488 155.192 909.012 155.192ZM909.204 154.062C909.701 154.062 910.12 153.965 910.461 153.77C910.806 153.574 911.065 153.322 911.239 153.013C911.416 152.704 911.505 152.379 911.505 152.038V150.888C911.452 150.952 911.335 151.01 911.154 151.064C910.976 151.113 910.77 151.158 910.536 151.197C910.305 151.232 910.079 151.264 909.859 151.293C909.643 151.317 909.467 151.339 909.332 151.357C909.005 151.399 908.7 151.468 908.416 151.564C908.135 151.657 907.908 151.797 907.734 151.985C907.563 152.17 907.478 152.422 907.478 152.741C907.478 153.178 907.64 153.509 907.963 153.732C908.29 153.952 908.703 154.062 909.204 154.062ZM915.057 155V146.818H916.271V148.054H916.357C916.506 147.649 916.776 147.321 917.166 147.069C917.557 146.816 917.997 146.69 918.487 146.69C918.58 146.69 918.695 146.692 918.833 146.696C918.972 146.699 919.077 146.705 919.148 146.712V147.99C919.105 147.979 919.007 147.963 918.855 147.942C918.706 147.917 918.548 147.905 918.381 147.905C917.983 147.905 917.628 147.988 917.315 148.155C917.006 148.319 916.761 148.546 916.58 148.837C916.403 149.125 916.314 149.453 916.314 149.822V155H915.057ZM923.478 155.17C922.797 155.17 922.195 154.998 921.673 154.654C921.151 154.306 920.742 153.816 920.447 153.184C920.153 152.548 920.005 151.797 920.005 150.93C920.005 150.071 920.153 149.325 920.447 148.693C920.742 148.061 921.152 147.573 921.678 147.228C922.203 146.884 922.811 146.712 923.5 146.712C924.032 146.712 924.453 146.8 924.762 146.978C925.075 147.152 925.313 147.351 925.476 147.575C925.643 147.795 925.772 147.976 925.865 148.118H925.971V144.091H927.228V155H926.014V153.743H925.865C925.772 153.892 925.641 154.08 925.471 154.308C925.3 154.531 925.057 154.732 924.741 154.909C924.425 155.083 924.004 155.17 923.478 155.17ZM923.649 154.041C924.153 154.041 924.579 153.91 924.927 153.647C925.275 153.381 925.54 153.013 925.721 152.544C925.902 152.072 925.993 151.527 925.993 150.909C925.993 150.298 925.904 149.764 925.726 149.306C925.549 148.844 925.286 148.485 924.938 148.23C924.59 147.971 924.16 147.841 923.649 147.841C923.116 147.841 922.672 147.978 922.317 148.251C921.966 148.521 921.701 148.888 921.523 149.354C921.349 149.815 921.262 150.334 921.262 150.909C921.262 151.491 921.351 152.021 921.529 152.496C921.71 152.969 921.976 153.345 922.328 153.626C922.683 153.903 923.123 154.041 923.649 154.041ZM935.501 148.651L934.371 148.97C934.3 148.782 934.196 148.599 934.057 148.422C933.922 148.24 933.738 148.091 933.503 147.974C933.269 147.857 932.969 147.798 932.603 147.798C932.102 147.798 931.685 147.914 931.351 148.145C931.021 148.372 930.856 148.661 930.856 149.013C930.856 149.325 930.969 149.572 931.197 149.753C931.424 149.934 931.779 150.085 932.262 150.206L933.477 150.504C934.208 150.682 934.753 150.953 935.112 151.319C935.471 151.681 935.65 152.148 935.65 152.72C935.65 153.189 935.515 153.608 935.245 153.977C934.979 154.347 934.606 154.638 934.126 154.851C933.647 155.064 933.089 155.17 932.454 155.17C931.619 155.17 930.929 154.989 930.382 154.627C929.835 154.265 929.489 153.736 929.343 153.04L930.536 152.741C930.65 153.182 930.865 153.512 931.181 153.732C931.5 153.952 931.918 154.062 932.433 154.062C933.018 154.062 933.484 153.938 933.828 153.69C934.176 153.437 934.35 153.136 934.35 152.784C934.35 152.5 934.251 152.262 934.052 152.07C933.853 151.875 933.548 151.729 933.136 151.634L931.772 151.314C931.023 151.136 930.472 150.861 930.121 150.488C929.773 150.112 929.599 149.641 929.599 149.077C929.599 148.615 929.728 148.207 929.988 147.852C930.25 147.496 930.607 147.218 931.058 147.015C931.513 146.813 932.028 146.712 932.603 146.712C933.413 146.712 934.048 146.889 934.51 147.244C934.975 147.599 935.305 148.068 935.501 148.651ZM944.169 155.192C943.65 155.192 943.18 155.094 942.757 154.899C942.334 154.7 941.999 154.414 941.75 154.041C941.502 153.665 941.377 153.21 941.377 152.678C941.377 152.209 941.47 151.829 941.654 151.538C941.839 151.243 942.086 151.012 942.395 150.845C942.704 150.678 943.045 150.554 943.418 150.472C943.794 150.387 944.172 150.32 944.552 150.27C945.049 150.206 945.452 150.158 945.761 150.126C946.074 150.091 946.301 150.032 946.443 149.95C946.589 149.869 946.661 149.727 946.661 149.524V149.482C946.661 148.956 946.518 148.548 946.23 148.256C945.946 147.965 945.514 147.82 944.936 147.82C944.335 147.82 943.865 147.951 943.524 148.214C943.183 148.477 942.943 148.757 942.805 149.055L941.612 148.629C941.825 148.132 942.109 147.745 942.464 147.468C942.823 147.187 943.213 146.992 943.636 146.882C944.062 146.768 944.481 146.712 944.893 146.712C945.156 146.712 945.458 146.744 945.799 146.808C946.143 146.868 946.475 146.994 946.795 147.186C947.118 147.377 947.386 147.667 947.599 148.054C947.812 148.441 947.919 148.96 947.919 149.609V155H946.661V153.892H946.598C946.512 154.07 946.37 154.26 946.171 154.462C945.973 154.664 945.708 154.837 945.378 154.979C945.047 155.121 944.644 155.192 944.169 155.192ZM944.36 154.062C944.858 154.062 945.277 153.965 945.617 153.77C945.962 153.574 946.221 153.322 946.395 153.013C946.573 152.704 946.661 152.379 946.661 152.038V150.888C946.608 150.952 946.491 151.01 946.31 151.064C946.132 151.113 945.926 151.158 945.692 151.197C945.461 151.232 945.236 151.264 945.016 151.293C944.799 151.317 944.623 151.339 944.488 151.357C944.161 151.399 943.856 151.468 943.572 151.564C943.291 151.657 943.064 151.797 942.89 151.985C942.72 152.17 942.634 152.422 942.634 152.741C942.634 153.178 942.796 153.509 943.119 153.732C943.446 153.952 943.86 154.062 944.36 154.062ZM955.369 151.655V146.818H956.626V155H955.369V153.615H955.284C955.092 154.031 954.794 154.384 954.389 154.675C953.984 154.963 953.473 155.107 952.855 155.107C952.344 155.107 951.889 154.995 951.491 154.771C951.094 154.544 950.781 154.203 950.554 153.748C950.327 153.29 950.213 152.713 950.213 152.017V146.818H951.47V151.932C951.47 152.528 951.637 153.004 951.971 153.359C952.308 153.714 952.738 153.892 953.26 153.892C953.572 153.892 953.89 153.812 954.213 153.652C954.54 153.493 954.814 153.248 955.034 152.917C955.257 152.587 955.369 152.166 955.369 151.655ZM962.487 146.818V147.884H958.247V146.818H962.487ZM959.483 144.858H960.74V152.656C960.74 153.011 960.791 153.278 960.894 153.455C961.001 153.629 961.136 153.746 961.299 153.807C961.466 153.864 961.642 153.892 961.827 153.892C961.965 153.892 962.079 153.885 962.168 153.871C962.256 153.853 962.327 153.839 962.381 153.828L962.636 154.957C962.551 154.989 962.432 155.021 962.279 155.053C962.127 155.089 961.933 155.107 961.699 155.107C961.344 155.107 960.996 155.03 960.655 154.877C960.317 154.725 960.037 154.492 959.813 154.18C959.593 153.867 959.483 153.473 959.483 152.997V144.858ZM967.614 155.17C966.875 155.17 966.227 154.995 965.67 154.643C965.116 154.292 964.683 153.8 964.37 153.168C964.061 152.536 963.907 151.797 963.907 150.952C963.907 150.099 964.061 149.355 964.37 148.72C964.683 148.084 965.116 147.591 965.67 147.239C966.227 146.887 966.875 146.712 967.614 146.712C968.353 146.712 968.999 146.887 969.553 147.239C970.111 147.591 970.544 148.084 970.853 148.72C971.165 149.355 971.321 150.099 971.321 150.952C971.321 151.797 971.165 152.536 970.853 153.168C970.544 153.8 970.111 154.292 969.553 154.643C968.999 154.995 968.353 155.17 967.614 155.17ZM967.614 154.041C968.175 154.041 968.637 153.897 968.999 153.61C969.361 153.322 969.629 152.944 969.803 152.475C969.977 152.006 970.064 151.499 970.064 150.952C970.064 150.405 969.977 149.895 969.803 149.423C969.629 148.951 969.361 148.569 968.999 148.278C968.637 147.987 968.175 147.841 967.614 147.841C967.053 147.841 966.591 147.987 966.229 148.278C965.867 148.569 965.599 148.951 965.425 149.423C965.251 149.895 965.164 150.405 965.164 150.952C965.164 151.499 965.251 152.006 965.425 152.475C965.599 152.944 965.867 153.322 966.229 153.61C966.591 153.897 967.053 154.041 967.614 154.041ZM977.928 149.737V150.909H973.155V149.737H977.928ZM915.637 166.651L914.508 166.97C914.437 166.782 914.332 166.599 914.194 166.422C914.059 166.24 913.874 166.091 913.64 165.974C913.406 165.857 913.105 165.798 912.74 165.798C912.239 165.798 911.822 165.914 911.488 166.145C911.158 166.372 910.993 166.661 910.993 167.013C910.993 167.325 911.106 167.572 911.333 167.753C911.561 167.934 911.916 168.085 912.399 168.206L913.613 168.504C914.345 168.682 914.89 168.953 915.249 169.319C915.607 169.681 915.787 170.148 915.787 170.72C915.787 171.189 915.652 171.608 915.382 171.977C915.115 172.347 914.743 172.638 914.263 172.851C913.784 173.064 913.226 173.17 912.591 173.17C911.756 173.17 911.065 172.989 910.518 172.627C909.972 172.265 909.625 171.736 909.48 171.04L910.673 170.741C910.787 171.182 911.001 171.512 911.317 171.732C911.637 171.952 912.054 172.062 912.569 172.062C913.155 172.062 913.62 171.938 913.965 171.69C914.313 171.437 914.487 171.136 914.487 170.784C914.487 170.5 914.387 170.262 914.189 170.07C913.99 169.875 913.684 169.729 913.272 169.634L911.909 169.314C911.159 169.136 910.609 168.861 910.257 168.488C909.909 168.112 909.735 167.641 909.735 167.077C909.735 166.615 909.865 166.207 910.124 165.852C910.387 165.496 910.744 165.218 911.195 165.015C911.65 164.813 912.164 164.712 912.74 164.712C913.549 164.712 914.185 164.889 914.647 165.244C915.112 165.599 915.442 166.068 915.637 166.651ZM919.533 173L917.04 164.818H918.361L920.129 171.082H920.214L921.962 164.818H923.304L925.03 171.061H925.115L926.883 164.818H928.204L925.712 173H924.476L922.686 166.714H922.558L920.768 173H919.533ZM932.274 173.192C931.756 173.192 931.285 173.094 930.862 172.899C930.44 172.7 930.104 172.414 929.856 172.041C929.607 171.665 929.483 171.21 929.483 170.678C929.483 170.209 929.575 169.829 929.76 169.538C929.945 169.243 930.191 169.012 930.5 168.845C930.809 168.678 931.15 168.554 931.523 168.472C931.899 168.387 932.278 168.32 932.658 168.27C933.155 168.206 933.558 168.158 933.867 168.126C934.179 168.091 934.407 168.032 934.549 167.95C934.694 167.869 934.767 167.727 934.767 167.524V167.482C934.767 166.956 934.623 166.548 934.335 166.256C934.051 165.965 933.62 165.82 933.041 165.82C932.441 165.82 931.97 165.951 931.63 166.214C931.289 166.477 931.049 166.757 930.91 167.055L929.717 166.629C929.93 166.132 930.214 165.745 930.57 165.468C930.928 165.187 931.319 164.992 931.741 164.882C932.168 164.768 932.587 164.712 932.998 164.712C933.261 164.712 933.563 164.744 933.904 164.808C934.248 164.868 934.581 164.994 934.9 165.186C935.223 165.377 935.491 165.667 935.704 166.054C935.918 166.441 936.024 166.96 936.024 167.609V173H934.767V171.892H934.703C934.618 172.07 934.476 172.26 934.277 172.462C934.078 172.664 933.813 172.837 933.483 172.979C933.153 173.121 932.75 173.192 932.274 173.192ZM932.466 172.062C932.963 172.062 933.382 171.965 933.723 171.77C934.067 171.574 934.327 171.322 934.501 171.013C934.678 170.704 934.767 170.379 934.767 170.038V168.888C934.714 168.952 934.597 169.01 934.415 169.064C934.238 169.113 934.032 169.158 933.797 169.197C933.567 169.232 933.341 169.264 933.121 169.293C932.904 169.317 932.729 169.339 932.594 169.357C932.267 169.399 931.962 169.468 931.677 169.564C931.397 169.657 931.17 169.797 930.996 169.985C930.825 170.17 930.74 170.422 930.74 170.741C930.74 171.178 930.902 171.509 931.225 171.732C931.551 171.952 931.965 172.062 932.466 172.062ZM938.319 176.068V164.818H939.533V166.118H939.682C939.775 165.976 939.902 165.795 940.066 165.575C940.233 165.351 940.471 165.152 940.779 164.978C941.092 164.8 941.515 164.712 942.047 164.712C942.736 164.712 943.343 164.884 943.869 165.228C944.395 165.573 944.805 166.061 945.099 166.693C945.394 167.325 945.542 168.071 945.542 168.93C945.542 169.797 945.394 170.548 945.099 171.184C944.805 171.816 944.396 172.306 943.874 172.654C943.352 172.998 942.75 173.17 942.069 173.17C941.543 173.17 941.122 173.083 940.806 172.909C940.49 172.732 940.247 172.531 940.076 172.308C939.906 172.08 939.775 171.892 939.682 171.743H939.576V176.068H938.319ZM939.554 168.909C939.554 169.527 939.645 170.072 939.826 170.544C940.007 171.013 940.272 171.381 940.62 171.647C940.968 171.91 941.394 172.041 941.898 172.041C942.424 172.041 942.862 171.903 943.214 171.626C943.569 171.345 943.835 170.969 944.013 170.496C944.194 170.021 944.284 169.491 944.284 168.909C944.284 168.334 944.196 167.815 944.018 167.354C943.844 166.888 943.58 166.521 943.224 166.251C942.873 165.978 942.431 165.841 941.898 165.841C941.387 165.841 940.957 165.971 940.609 166.23C940.261 166.485 939.998 166.844 939.821 167.306C939.643 167.764 939.554 168.298 939.554 168.909Z" fill="black"/>
<g clip-path="url(#clip0_1_37)">
<path d="M301 203.333C301 204.041 300.719 204.719 300.219 205.219C299.719 205.719 299.041 206 298.333 206H279.667C278.959 206 278.281 205.719 277.781 205.219C277.281 204.719 277 204.041 277 203.333V184.667C277 183.959 277.281 183.281 277.781 182.781C278.281 182.281 278.959 182 279.667 182H298.333C299.041 182 299.719 182.281 300.219 182.781C300.719 183.281 301 183.959 301 184.667V203.333Z" fill="#77B255"/>
<path d="M296.52 186.241C296.149 186.001 295.698 185.917 295.266 186.009C294.833 186.101 294.455 186.361 294.215 186.732L286.957 197.918L283.605 194.818C283.445 194.666 283.256 194.547 283.05 194.469C282.843 194.39 282.623 194.353 282.403 194.361C282.182 194.368 281.965 194.419 281.764 194.51C281.564 194.602 281.383 194.733 281.233 194.895C281.083 195.057 280.967 195.247 280.891 195.455C280.816 195.662 280.782 195.882 280.792 196.103C280.802 196.323 280.856 196.54 280.95 196.739C281.045 196.939 281.178 197.118 281.342 197.265L286.148 201.709C286.468 202.006 286.875 202.153 287.279 202.153C287.727 202.153 288.301 201.965 288.678 201.393C288.899 201.056 297.011 188.547 297.011 188.547C297.13 188.363 297.212 188.158 297.252 187.943C297.292 187.727 297.289 187.506 297.243 187.292C297.198 187.078 297.11 186.875 296.986 186.695C296.862 186.515 296.704 186.36 296.52 186.241Z" fill="white"/>
</g>
<g clip-path="url(#clip1_1_37)">
<path d="M352 203.333C352 204.041 351.719 204.719 351.219 205.219C350.719 205.719 350.041 206 349.333 206H330.667C329.959 206 329.281 205.719 328.781 205.219C328.281 204.719 328 204.041 328 203.333V184.667C328 183.959 328.281 183.281 328.781 182.781C329.281 182.281 329.959 182 330.667 182H349.333C350.041 182 350.719 182.281 351.219 182.781C351.719 183.281 352 183.959 352 184.667V203.333Z" fill="#77B255"/>
<path d="M347.52 186.241C347.149 186.001 346.698 185.917 346.266 186.009C345.833 186.101 345.455 186.361 345.215 186.732L337.957 197.918L334.605 194.818C334.445 194.666 334.256 194.547 334.05 194.469C333.843 194.39 333.623 194.353 333.403 194.361C333.182 194.368 332.965 194.419 332.764 194.51C332.564 194.602 332.383 194.733 332.233 194.895C332.083 195.057 331.967 195.247 331.891 195.455C331.816 195.662 331.782 195.882 331.792 196.103C331.802 196.323 331.856 196.54 331.95 196.739C332.045 196.939 332.178 197.118 332.342 197.265L337.148 201.709C337.468 202.006 337.875 202.153 338.279 202.153C338.727 202.153 339.301 201.965 339.678 201.393C339.899 201.056 348.011 188.547 348.011 188.547C348.13 188.363 348.212 188.158 348.252 187.943C348.292 187.727 348.289 187.506 348.243 187.292C348.198 187.078 348.11 186.875 347.986 186.695C347.862 186.515 347.704 186.36 347.52 186.241Z" fill="white"/>
</g>
<g clip-path="url(#clip2_1_37)">
<path d="M378.769 204.333C377.541 204.333 376.999 203.441 377.565 202.351L387.971 182.315C388.537 181.225 389.463 181.225 390.029 182.315L400.435 202.352C401.001 203.441 400.459 204.333 399.231 204.333H378.769Z" fill="#FFCC4D"/>
<path d="M387.389 200.302C387.389 199.874 387.559 199.465 387.861 199.162C388.164 198.86 388.574 198.69 389.001 198.69C389.429 198.69 389.839 198.86 390.141 199.163C390.443 199.465 390.613 199.875 390.613 200.302C390.613 200.73 390.443 201.14 390.141 201.442C389.839 201.744 389.429 201.914 389.001 201.915C388.574 201.914 388.164 201.745 387.861 201.442C387.559 201.14 387.389 200.73 387.389 200.302ZM387.513 188.107C387.513 187.239 388.153 186.701 389.001 186.701C389.828 186.701 390.489 187.259 390.489 188.107V196.065C390.489 196.913 389.828 197.471 389.001 197.471C388.153 197.471 387.513 196.933 387.513 196.065V188.107Z" fill="#231F20"/>
</g>
<defs>
<filter id="filter0_d_1_37" x="73" y="86" width="220" height="222" filterUnits="userSpaceOnUse" color-interpolation-filters="sRGB">
<feFlood flood-opacity="0" result="BackgroundImageFix"/>
<feColorMatrix in="SourceAlpha" type="matrix" values="0 0 0 0 0 0 0 0 0 0 0 0 0 0 0 0 0 0 127 0" result="hardAlpha"/>
<feOffset dy="4"/>
<feGaussianBlur stdDeviation="50"/>
<feComposite in2="hardAlpha" operator="out"/>
<feColorMatrix type="matrix" values="0 0 0 0 0 0 0 0 0 0 0 0 0 0 0 0 0 0 0.25 0"/>
<feBlend mode="normal" in2="BackgroundImageFix" result="effect1_dropShadow_1_37"/>
<feBlend mode="normal" in="SourceGraphic" in2="effect1_dropShadow_1_37" result="shape"/>
</filter>
<filter id="filter1_d_1_37" x="702" y="89" width="220" height="222" filterUnits="userSpaceOnUse" color-interpolation-filters="sRGB">
<feFlood flood-opacity="0" result="BackgroundImageFix"/>
<feColorMatrix in="SourceAlpha" type="matrix" values="0 0 0 0 0 0 0 0 0 0 0 0 0 0 0 0 0 0 127 0" result="hardAlpha"/>
<feOffset dy="4"/>
<feGaussianBlur stdDeviation="50"/>
<feComposite in2="hardAlpha" operator="out"/>
<feColorMatrix type="matrix" values="0 0 0 0 0 0 0 0 0 0 0 0 0 0 0 0 0 0 0.25 0"/>
<feBlend mode="normal" in2="BackgroundImageFix" result="effect1_dropShadow_1_37"/>
<feBlend mode="normal" in="SourceGraphic" in2="effect1_dropShadow_1_37" result="shape"/>
</filter>
<clipPath id="clip0_1_37">
<rect width="24" height="24" fill="white" transform="translate(277 182)"/>
</clipPath>
<clipPath id="clip1_1_37">
<rect width="24" height="24" fill="white" transform="translate(328 182)"/>
</clipPath>
<clipPath id="clip2_1_37">
<rect width="24" height="24" fill="white" transform="translate(377 181)"/>
</clipPath>
</defs>
</svg>
